<?xml version="1.0" standalone="no"?>
<!DOCTYPE svg PUBLIC "-//W3C//DTD SVG 1.1//EN" "http://www.w3.org/Graphics/SVG/1.1/DTD/svg11.dtd" >
<svg xmlns="http://www.w3.org/2000/svg" xmlns:xlink="http://www.w3.org/1999/xlink" version="1.1">
<metadata>
Created by FontForge 20170731 at Sun May 27 00:16:23 2018
 By Aleksey,,,
Copyright (c) 2018 by Mans Greback. All rights reserved.
</metadata>
<defs>
<font id="Sonika-Bold" horiz-adv-x="668" >
  <font-face 
    font-family="Sonika"
    font-weight="700"
    font-stretch="normal"
    units-per-em="1000"
    panose-1="0 0 0 0 0 0 0 0 0 0"
    ascent="750"
    descent="-250"
    x-height="529"
    cap-height="737"
    bbox="-232 -355 1251 1076"
    underline-thickness="50"
    underline-position="-150"
    unicode-range="U+000D-FB02"
  />
<missing-glyph horiz-adv-x="329" 
 />
    <glyph glyph-name="fi" unicode="fi" horiz-adv-x="482" 
d="M317 416h-147v-416h-128v416h-72v113h72v9q0 60 15.5 99.5t44 62t69.5 30t93 1.5l8 -115q-46 8 -74 -6t-28 -65v-16h275v-529h-128v416zM296 626q0 33 24 56t59 23t59 -23t24 -56q0 -34 -24 -57t-59 -23t-59 23t-24 57z" />
    <glyph glyph-name="fl" unicode="fl" horiz-adv-x="508" 
d="M-30 529h72v9q0 60 17 101t47.5 65.5t73 33.5t94.5 3l8 -115q-46 7 -79 -11.5t-33 -69.5v-16h141v-113h-141v-416h-128v416h-72v113zM346 765h128v-765h-128v765z" />
    <glyph glyph-name=".notdef" horiz-adv-x="329" 
 />
    <glyph glyph-name=".null" horiz-adv-x="0" 
 />
    <glyph glyph-name="nonmarkingreturn" unicode="&#xd;" horiz-adv-x="329" 
 />
    <glyph glyph-name="NULL" horiz-adv-x="0" 
 />
    <glyph glyph-name="NULL" horiz-adv-x="0" 
 />
    <glyph glyph-name="space" unicode=" " horiz-adv-x="329" 
 />
    <glyph glyph-name="exclam" unicode="!" horiz-adv-x="226" 
d="M167 212h-114l-11 506h136zM198 81q0 -15 -6.5 -29.5t-18 -26t-27 -18.5t-33.5 -7t-33.5 7t-26.5 18.5t-17.5 26t-6.5 29.5q0 31 23.5 56t60.5 25q18 0 33.5 -7t27 -18t18 -26t6.5 -30z" />
    <glyph glyph-name="quotedbl" unicode="&#x22;" horiz-adv-x="385" 
d="M24 718h129l-8 -354h-115zM232 718h129l-8 -354h-115z" />
    <glyph glyph-name="numbersign" unicode="#" horiz-adv-x="684" 
d="M371 147h-129q-6 -27 -12.5 -57t-10.5 -52h-118l22 109h-104l19 112h106q4 22 7.5 39t7.5 33.5t7.5 34.5t8.5 42h-109l20 113h112l25 123h118l-26 -123h132l25 123h116l-25 -123h102l-18 -113h-105q-4 -21 -7.5 -38.5t-7 -34t-7.5 -34.5t-8 -42h106l-20 -112h-108
q-5 -27 -11.5 -57t-10.5 -52h-118zM263 259h130q4 22 7.5 39t7 33.5t7.5 34.5t9 42h-131z" />
    <glyph glyph-name="dollar" unicode="$" horiz-adv-x="639" 
d="M242 5q-44 7 -79.5 23t-63.5 38t-49 49.5t-36 58.5l114 37q18 -35 50 -60t75 -33q7 57 14 107.5t15 110.5q-37 10 -72.5 23t-64 33.5t-47.5 50.5t-22 73v-2q-5 40 10.5 76t48 63.5t81 44.5t110.5 19l11 81h107l-9 -90q42 -11 80 -35t66 -59l-84 -69q-42 40 -77 49
l-20 -168q41 -10 80 -24t69 -37.5t48 -58.5t18 -87q0 -40 -16 -77.5t-49 -67.5t-83 -49.5t-117 -23.5l-10 -81h-109zM495 219q0 19 -9 33t-24 25t-35 19.5t-41 14.5l-24 -197q64 8 98.5 37.5t34.5 67.5zM200 518q3 -27 28.5 -42t65.5 -26q2 21 4.5 39t4.5 36t4.5 37t4.5 42
q-58 -3 -86.5 -27.5t-25.5 -58.5z" />
    <glyph glyph-name="percent" unicode="%" horiz-adv-x="868" 
d="M844 217q0 -50 -16 -90t-43.5 -68t-66 -43.5t-83.5 -15.5q-53 0 -91 17.5t-62.5 47.5t-36.5 69t-12 83q0 29 6 59l-246 -276h-164l263 294q-30 -9 -66 -9q-53 0 -91 17.5t-62.5 47t-36.5 68.5t-12 83q0 40 12 79t36.5 70t62.5 49.5t91 18.5q45 0 83 -15.5t66 -43.5
t44 -68.5t16 -89.5q0 -29 -6 -53l242 270h163l-261 -292q30 8 62 8q45 0 83.5 -15.5t66 -43.5t43.5 -68.5t16 -89.5zM315 501q0 19 -5 38.5t-15.5 35t-27.5 25t-41 9.5q-22 0 -37.5 -9.5t-25.5 -25t-14.5 -35t-4.5 -38.5q0 -20 4.5 -39t14.5 -34t25.5 -24.5t37.5 -9.5
q24 0 41 9.5t27.5 24.5t15.5 34t5 39zM723 217q0 19 -4.5 38.5t-15 34.5t-27.5 24.5t-41 9.5q-22 0 -37.5 -9.5t-25.5 -24.5t-14.5 -34.5t-4.5 -38.5q0 -20 4.5 -39t14.5 -34.5t25.5 -25t37.5 -9.5q24 0 41 9.5t27.5 25t15 34.5t4.5 39z" />
    <glyph glyph-name="ampersand" unicode="&#x26;" horiz-adv-x="759" 
d="M678 418q1 -78 -14 -142t-44 -111l125 -78l-55 -99q-42 25 -78.5 47.5t-65.5 43.5q-46 -41 -103 -60t-130 -19q-68 0 -121 19.5t-90.5 51t-57 72.5t-19.5 84q0 60 40 114.5t125 86.5q-33 60 -33 118q0 37 13.5 69t38 54.5t59 35.5t76.5 13q44 0 78.5 -13t58 -35.5t36 -52
t12.5 -62.5q0 -27 -9 -54t-28 -52t-48 -46t-68 -36q32 -33 70 -66t82 -67q20 35 32.5 81t14.5 103h103zM317 112q72 1 133 41q-58 47 -107 93t-87 90q-59 -18 -81.5 -47t-22.5 -61q0 -22 11.5 -43t33 -37.5t52 -26t68.5 -9.5zM274 543q0 -17 7 -43t22 -44q56 14 83 40.5
t27 55.5q0 22 -17.5 37.5t-50.5 15.5q-34 0 -52.5 -17t-18.5 -45z" />
    <glyph glyph-name="quotesingle" unicode="'" horiz-adv-x="177" 
d="M24 718h129l-8 -354h-115z" />
    <glyph glyph-name="parenleft" unicode="(" horiz-adv-x="321" 
d="M156 359q0 -56 12 -110.5t33 -102.5t50.5 -87.5t64.5 -64.5l-94 -64q-41 28 -77 73t-63 101t-42.5 121t-15.5 134t15.5 134t42.5 121t63 101t77 74l91 -62q-35 -28 -63.5 -68t-49.5 -88t-32.5 -102t-11.5 -110z" />
    <glyph glyph-name="parenright" unicode=")" horiz-adv-x="321" 
d="M164 359q0 56 -11.5 110.5t-32.5 102.5t-50.5 87.5t-65.5 64.5l95 65q41 -29 77 -74t62.5 -101t42 -121t15.5 -134t-15.5 -134t-42.5 -121t-63 -100.5t-76 -73.5l-92 62q35 28 64 67.5t49.5 87.5t32 102t11.5 110z" />
    <glyph glyph-name="asterisk" unicode="*" horiz-adv-x="605" 
d="M70 702l176 -107l-4 183h120l-4 -180l168 103l67 -92l-187 -105l187 -103l-67 -93l-168 103l3 -180h-119l3 180l-175 -104l-56 94l183 103q-22 12 -46 25.5l-48 27t-47 26.5t-42 24z" />
    <glyph glyph-name="plus" unicode="+" horiz-adv-x="631" 
d="M380 413h227v-115h-227v-222h-120v222h-236v115h236v216h120v-216z" />
    <glyph glyph-name="comma" unicode="," horiz-adv-x="249" 
d="M102 224h132l-103 -308h-116z" />
    <glyph glyph-name="hyphen" unicode="-" horiz-adv-x="559" 
d="M24 243v120h509v-120h-509z" />
    <glyph glyph-name="period" unicode="." horiz-adv-x="219" 
d="M194 81q0 -15 -6.5 -29.5t-18 -26t-27 -18.5t-33.5 -7t-33.5 7t-27 18.5t-18 26t-6.5 29.5t6.5 30t18 26t27 18t33.5 7t33.5 -7t27 -18t18 -26t6.5 -30z" />
    <glyph glyph-name="slash" unicode="/" horiz-adv-x="656" 
d="M503 718h148l-498 -850h-149z" />
    <glyph glyph-name="zero" unicode="0" horiz-adv-x="693" 
d="M533 359q0 49 -13 93t-38 78t-60 54t-79 20q-42 0 -76 -19t-58 -52t-37.5 -78t-13.5 -96t13.5 -95.5t37.5 -78t58 -52.5t76 -19q44 0 79 20t60 53.5t38 78t13 93.5zM665 359q0 -84 -25.5 -150.5t-70 -113t-103 -71t-124.5 -24.5q-71 0 -129 27.5t-99.5 76t-64.5 114
t-23 141.5t23 141.5t64.5 114t99.5 76t129 27.5q66 0 124.5 -26t103 -73t70 -113t25.5 -147z" />
    <glyph glyph-name="one" unicode="1" horiz-adv-x="310" 
d="M153 0v477h-129v108q37 1 62 4t41 10t24 18.5t11 29.5l6 71h117v-718h-132z" />
    <glyph glyph-name="two" unicode="2" horiz-adv-x="631" 
d="M39 421q-3 5 -6.5 22t-3.5 37q0 49 20 92.5t57 76t88.5 51t113.5 18.5q71 0 124 -19.5t88.5 -51.5t53 -73.5t17.5 -86.5q0 -51 -27 -101.5t-71 -98.5t-100 -92t-113 -82h327v-113h-583v106q65 30 130 68t120 77.5t96.5 77.5t60.5 67q16 23 23 45.5t7 44.5q0 49 -38 83
t-113 34q-35 0 -62.5 -10t-46.5 -27t-29.5 -40t-10.5 -49q0 -19 1.5 -30t3.5 -26h-127z" />
    <glyph glyph-name="three" unicode="3" horiz-adv-x="643" 
d="M69 500q-8 36 1.5 74.5t39.5 70.5t82 52.5t129 20.5q65 0 112.5 -14.5t78.5 -39t46 -58t15 -71.5t-16.5 -73t-58.5 -63q61 -24 90.5 -66t29.5 -100q0 -42 -18 -84t-56 -75t-96.5 -53.5t-140.5 -20.5q-70 0 -123 19.5t-88 51.5t-53 72.5t-18 83.5q0 19 8 62h130
q-5 -22 -7.5 -36.5t-2.5 -21.5q0 -51 41.5 -84.5t113.5 -33.5q46 0 80 10t56.5 27t34 39.5t11.5 47.5q0 17 -10 34t-33 30.5t-60.5 22t-91.5 8.5h-96v111h83q60 0 95.5 14.5t51.5 34.5q18 21 18.5 42t-14.5 37.5t-44.5 27t-71.5 10.5q-35 0 -60 -9.5t-40 -25.5t-20.5 -35.5
t-2.5 -38.5h-125v0z" />
    <glyph glyph-name="four" unicode="4" horiz-adv-x="636" 
d="M524 718v-458h86v-110h-86v-150h-127v150h-375v82l389 486h113zM398 260q1 34 2 65.5t1.5 64t1.5 67.5t2 76q-27 -35 -51.5 -67.5t-49.5 -65t-50.5 -67t-54.5 -73.5h199z" />
    <glyph glyph-name="five" unicode="5" horiz-adv-x="642" 
d="M490 268q0 33 -10.5 57.5t-28.5 41t-42 25t-51 8.5q-51 0 -94.5 -15.5t-88.5 -48.5h-113l49 382h450v-111h-341l-17 -134q40 18 83.5 25t83.5 7q52 0 97.5 -15.5t79 -45.5t52.5 -73.5t19 -98.5q0 -61 -22.5 -111t-62.5 -86t-94 -55.5t-118 -19.5q-60 0 -114 16.5
t-94.5 48.5t-64.5 78.5t-24 106.5h129q0 -31 14.5 -56t38.5 -43t54 -27.5t61 -9.5q36 0 66.5 11.5t53.5 32t36 48.5t13 62z" />
    <glyph glyph-name="six" unicode="6" horiz-adv-x="632" 
d="M476 266q0 54 -34 85t-93 31q-39 0 -88.5 -15t-104.5 -47q2 -57 16 -96.5t36.5 -64t51.5 -36t61 -11.5t60.5 12.5t49.5 33.5t33 49t12 59zM323 0q-62 0 -116.5 21t-95 63.5t-64 107.5t-23.5 153q0 81 25 149.5t69.5 118t106 77.5t134.5 28q61 0 112 -18t95 -46l-45 -106
q-36 29 -77 45t-79 16q-75 -2 -126.5 -47.5t-72.5 -119.5q55 26 105 38t95 12q54 0 98.5 -16t76.5 -45.5t49.5 -71t17.5 -93.5q0 -54 -22 -102t-60.5 -84.5t-90.5 -58t-112 -21.5z" />
    <glyph glyph-name="seven" unicode="7" horiz-adv-x="606" 
d="M581 616q-58 -45 -104.5 -100.5t-79.5 -128.5t-50.5 -168t-17.5 -219h-132q0 112 14.5 203t41.5 165t64.5 131.5t82.5 101.5h-376v117h557v-102z" />
    <glyph glyph-name="eight" unicode="8" horiz-adv-x="647" 
d="M24 222q0 57 27.5 103t87.5 76q-37 25 -55.5 58t-18.5 68q0 38 16.5 72.5t48.5 61t80.5 42t112.5 15.5t112.5 -15.5t81 -42t48.5 -61t16 -72.5t-17 -70.5t-54 -55.5q54 -31 83.5 -78t29.5 -101q0 -43 -21 -83t-60 -71t-94.5 -49.5t-124.5 -18.5q-72 0 -127.5 18.5
t-93.5 49.5t-58 71t-20 83zM323 113q41 0 72.5 10.5t53 26.5t32.5 36t11 40q0 25 -12.5 46.5t-35 37.5t-53.5 25t-68 9q-38 0 -69 -9t-53 -25t-34.5 -37.5t-12.5 -46.5q0 -20 10 -40t31 -36t53 -26.5t75 -10.5zM323 607q-36 0 -61 -7t-40.5 -18.5t-23 -26.5t-7.5 -31
q0 -32 35.5 -52.5t96.5 -20.5q62 0 97 20.5t35 52.5t-31.5 57.5t-100.5 25.5z" />
    <glyph glyph-name="nine" unicode="9" horiz-adv-x="632" 
d="M156 453q0 -54 34.5 -86t93.5 -32q38 0 88 15.5t104 47.5q-2 57 -16 96.5t-36.5 64t-51.5 36t-61 11.5t-60 -12.5t-49 -33.5t-33.5 -48.5t-12.5 -58.5zM309 718q62 0 116.5 -21t95 -63.5t64 -107.5t23.5 -153q0 -81 -25 -149.5t-69 -118t-105.5 -77.5t-134.5 -28
q-61 0 -112.5 18t-95.5 46l45 106q36 -29 77 -45.5t78 -15.5q75 2 127.5 47t72.5 120q-54 -27 -104 -38.5t-96 -11.5q-54 0 -98.5 16t-76.5 45.5t-49.5 71.5t-17.5 94q0 53 22 101t60.5 84.5t90.5 58t112 21.5z" />
    <glyph glyph-name="colon" unicode=":" horiz-adv-x="219" 
d="M194 81q0 -15 -6.5 -29.5t-18 -26t-27 -18.5t-33.5 -7t-33.5 7t-27 18.5t-18 26t-6.5 29.5t6.5 30t18 26t27 18t33.5 7t33.5 -7t27 -18t18 -26t6.5 -30zM194 457q0 -15 -6.5 -30t-18 -26.5t-27 -18.5t-33.5 -7t-33.5 7t-27 18.5t-18 26.5t-6.5 30t6.5 29.5t18 25.5t27 18
t33.5 7t33.5 -7t27 -18t18 -25.5t6.5 -29.5z" />
    <glyph glyph-name="semicolon" unicode=";" horiz-adv-x="251" 
d="M102 224h132l-103 -308h-116zM224 457q0 -15 -6.5 -30t-17.5 -26.5t-26.5 -18.5t-33.5 -7t-33.5 7t-27 18.5t-18 26.5t-6.5 30t6.5 29.5t18 25.5t27 18t33.5 7t33.5 -7t26.5 -18t17.5 -25.5t6.5 -29.5z" />
    <glyph glyph-name="less" unicode="&#x3c;" horiz-adv-x="461" 
d="M451 543l-253 -189l252 -185l-75 -83l-371 267l369 265z" />
    <glyph glyph-name="equal" unicode="=" horiz-adv-x="631" 
d="M44 393v110h543v-110h-543zM44 197v110h543v-110h-543z" />
    <glyph glyph-name="greater" unicode="&#x3e;" horiz-adv-x="461" 
d="M4 161l253 189l-252 185l75 83l371 -267l-369 -265z" />
    <glyph glyph-name="question" unicode="?" horiz-adv-x="593" 
d="M29 469q-11 40 0 83.5t44 80.5t88 61t134 24q62 0 112.5 -17t86 -46.5t55 -68t19.5 -80.5q0 -37 -12.5 -66t-33.5 -52t-49.5 -41t-59.5 -31q-19 -8 -36 -17.5t-28.5 -23.5t-16.5 -33.5t-1 -48.5h-116q-8 58 5.5 95.5t38.5 61.5t56 39.5t58.5 30.5t46.5 33t20 48
q1 22 -10 41.5t-30.5 34t-47.5 22.5t-61 8q-41 0 -68.5 -14t-44 -34.5t-22 -44.5t-0.5 -45h-127zM352 78q0 -15 -6.5 -29t-17.5 -25t-27 -17.5t-34 -6.5t-33 6.5t-26.5 17.5t-18 25t-6.5 29t6.5 28.5t17.5 24.5t26.5 17.5t33.5 6.5t34 -6.5t27 -17.5t17.5 -24.5t6.5 -28.5z
" />
    <glyph glyph-name="at" unicode="@" horiz-adv-x="970" 
d="M273 510q14 18 33.5 35t46 29.5t60.5 20.5t78 8q106 0 165.5 -51t59.5 -147v-140q0 -14 7.5 -29.5t31.5 -15.5q29 0 49 39.5t20 113.5q0 70 -25 127.5t-69.5 97.5t-107 62t-137.5 22q-74 0 -136 -23.5t-107 -66t-70 -102t-25 -131.5q0 -78 25 -138t69 -101t105.5 -62.5
t134.5 -21.5q27 0 50 2t46 8t47.5 16t55.5 27l71 -75q-50 -36 -122 -60t-148 -24q-108 0 -193 32t-143.5 89.5t-89.5 136t-31 171.5q0 90 31.5 168.5t90.5 136.5t145 91.5t194 33.5q106 0 191 -30.5t145 -85t92 -131t32 -167.5q0 -63 -15 -111.5t-41 -81.5t-61 -50t-76 -17
q-44 0 -74 14t-50 41q-61 -53 -160 -53q-46 0 -85.5 12t-69 33.5t-46 51.5t-16.5 66q0 34 12.5 63t39.5 50t69 33t102 12q26 0 62 -0.5t59 1.5q-11 31 -40.5 45.5t-76.5 14.5q-50 0 -77 -13.5t-45 -39.5zM599 341q-22 -4 -50 -5t-63 -1q-68 0 -94 -15t-26 -40
q0 -26 30.5 -42t83.5 -16q32 0 54.5 8.5t37 22t21 30t6.5 33.5v25z" />
    <glyph glyph-name="A" unicode="A" horiz-adv-x="782" 
d="M331 737h120l326 -737h-145l-68 155h-352q-14 -36 -33.5 -78t-34.5 -77h-140zM262 269h253q-17 40 -32 73t-29.5 66t-30.5 68.5t-35 79.5z" />
    <glyph glyph-name="B" unicode="B" horiz-adv-x="642" 
d="M592 530q0 -43 -18 -80t-52 -63q48 -25 73.5 -68t25.5 -105q0 -46 -17 -85.5t-48.5 -68t-77 -44.5t-103.5 -16h-354v737h313q69 0 117.5 -15t80 -42.5t46 -65.5t14.5 -84zM361 112q62 0 95.5 30t33.5 75q0 47 -34.5 76t-99.5 29h-203v-210h208zM153 434h197q48 0 79 23.5
t31 66.5q0 101 -133 101h-174v-191z" />
    <glyph glyph-name="C" unicode="C" horiz-adv-x="710" 
d="M689 228q-14 -48 -41.5 -92.5t-67.5 -79t-92 -55t-116 -20.5q-81 0 -146 28.5t-110.5 78.5t-70 119.5t-24.5 151.5q0 84 25.5 156.5t72 126.5t112.5 84.5t147 30.5q69 0 124 -23.5t95.5 -60t65 -82t31.5 -89.5h-131q-7 27 -23 53t-39.5 46t-54 32t-66.5 12q-54 0 -96 -23
t-71 -62t-44.5 -91t-15.5 -110q0 -56 14.5 -104.5t42 -84.5t68.5 -56.5t95 -20.5q34 0 63 10.5t52.5 29t41 43t28.5 52.5h131z" />
    <glyph glyph-name="D" unicode="D" horiz-adv-x="680" 
d="M310 737q82 0 147 -25.5t110 -73t68.5 -115.5t23.5 -154t-25 -154.5t-70 -116t-109 -73t-142 -25.5h-292v737h289zM315 112q47 0 86.5 17t68 49.5t44 80.5t15.5 110q0 130 -60 193t-159 63h-157v-513h162z" />
    <glyph glyph-name="E" unicode="E" horiz-adv-x="615" 
d="M594 0h-573v737h563v-112h-431v-183h382v-113h-382v-217h441v-112z" />
    <glyph glyph-name="F" unicode="F" horiz-adv-x="584" 
d="M524 285h-371v-285h-132v737h542v-112h-410v-229h371v-111z" />
    <glyph glyph-name="G" unicode="G" horiz-adv-x="708" 
d="M682 0h-117v50q-37 -30 -89 -49.5t-118 -19.5q-72 0 -133.5 25.5t-106.5 74t-71 119t-26 159.5q0 91 27 164.5t74 125t112 79.5t140 28q60 0 113 -18.5t94.5 -51.5t70.5 -79.5t43 -101.5h-133q-20 66 -72.5 102.5t-118.5 36.5q-45 0 -84.5 -20t-69.5 -56.5t-47 -89.5
t-17 -119q0 -60 15 -109.5t42.5 -84t66.5 -53.5t88 -19q40 0 74 12.5t59 33.5t38.5 48t13.5 56v42h-223v111h355v-396z" />
    <glyph glyph-name="H" unicode="H" 
d="M648 0h-132v303h-363v-303h-132v737h132v-322h363v322h132v-737z" />
    <glyph glyph-name="I" unicode="I" horiz-adv-x="173" 
d="M153 0h-132v737h132v-737z" />
    <glyph glyph-name="J" unicode="J" horiz-adv-x="535" 
d="M514 737v-489q0 -128 -74 -197.5t-208 -69.5q-27 0 -57 4.5t-59.5 12t-55 18t-42.5 21.5l26 122q19 -14 41.5 -26t46.5 -21t47 -14t43 -5q79 0 119.5 42.5t40.5 112.5v489h132z" />
    <glyph glyph-name="K" unicode="K" horiz-adv-x="696" 
d="M153 737v-333l360 333h187l-389 -350l406 -387h-179l-320 303l-65 -60v-243h-132v737h132z" />
    <glyph glyph-name="L" unicode="L" horiz-adv-x="608" 
d="M588 0h-567v737h132v-625h435v-112z" />
    <glyph glyph-name="M" unicode="M" horiz-adv-x="814" 
d="M413 261l250 476h131v-737h-126v489l-208 -405h-97l-216 406v-490h-126v737h132z" />
    <glyph glyph-name="N" unicode="N" 
d="M21 737h120l376 -502v502h131v-737h-112l-384 511v-511h-131v737z" />
    <glyph glyph-name="O" unicode="O" horiz-adv-x="757" 
d="M378 756q85 0 152 -30.5t113 -83.5t70 -123.5t24 -149.5q0 -80 -24 -150.5t-70 -123.5t-113 -83.5t-152 -30.5q-84 0 -150.5 31t-112.5 83.5t-70 123t-24 150.5q0 79 24 149.5t70 123.5t112.5 83.5t150.5 30.5zM378 93q50 0 92 20.5t72 57t46.5 87t16.5 111.5
q0 60 -16.5 110.5t-46.5 87t-72 57t-92 20.5t-91.5 -20.5t-71 -57t-46 -87t-16.5 -110.5q0 -61 16.5 -111.5t46.5 -87t71 -57t91 -20.5z" />
    <glyph glyph-name="P" unicode="P" horiz-adv-x="638" 
d="M343 737q66 0 117 -18.5t86 -51t53 -75.5t18 -91q0 -49 -16.5 -91.5t-50.5 -74.5t-85.5 -50.5t-121.5 -18.5h-190v-266h-132v737h322zM153 625v-248h185q69 0 108 34t39 90q0 54 -39 89t-108 35h-185z" />
    <glyph glyph-name="Q" unicode="Q" horiz-adv-x="759" 
d="M378 756q85 0 152 -30.5t113 -83.5t70 -123.5t24 -149.5q0 -100 -40.5 -184.5t-109.5 -138.5l54 -81h-151l-15 28q-23 -6 -46.5 -9t-50.5 -3q-84 0 -150.5 31t-112.5 83.5t-70 123t-24 150.5q0 79 24 149.5t70 123.5t112.5 83.5t150.5 30.5zM378 93q8 0 17.5 0.5
t17.5 2.5q-12 19 -24.5 41t-25.5 43.5t-24.5 41.5t-20.5 35h129l73 -111q39 36 62 93.5t23 129.5q0 60 -16.5 110.5t-46.5 87t-72 57t-92 20.5t-91.5 -20.5t-71 -57t-46 -87t-16.5 -110.5q0 -61 16.5 -111.5t46.5 -87t71 -57t91 -20.5z" />
    <glyph glyph-name="R" unicode="R" horiz-adv-x="647" 
d="M339 737q71 0 123.5 -16t87 -45t51.5 -70t17 -92q0 -78 -44 -135t-134 -80l212 -299h-153l-199 288h-147v-288h-132v737h318zM153 625v-224h179q81 0 117.5 31.5t36.5 80.5q0 47 -36 79.5t-118 32.5h-179z" />
    <glyph glyph-name="S" unicode="S" horiz-adv-x="638" 
d="M183 541q0 -34 32 -54t80.5 -35.5t105 -31t105 -41t80.5 -66t32 -104.5q0 -43 -19.5 -84t-57.5 -73t-94 -51.5t-128 -19.5q-75 0 -130.5 23t-92.5 59t-56 80t-21 86h123q6 -30 21 -55t38 -43t53 -28t65 -10q41 0 72.5 10.5t52.5 27.5t31.5 37.5t10.5 40.5q0 28 -18.5 47
t-49.5 33t-70 26t-79.5 25t-79.5 29t-70 39t-49.5 55t-18.5 77q0 43 18.5 82t54.5 69t87.5 47.5t117.5 17.5q63 0 111.5 -18t82 -48.5t53.5 -72t27 -87.5h-124q-14 49 -51.5 81.5t-98.5 32.5q-34 0 -61 -9t-46 -23t-29 -33t-10 -38z" />
    <glyph glyph-name="T" unicode="T" horiz-adv-x="692" 
d="M671 625h-260v-625h-131v625h-259v112h650v-112z" />
    <glyph glyph-name="U" unicode="U" 
d="M648 278q0 -146 -83 -221.5t-231 -75.5q-149 0 -231 75.5t-82 221.5v459h132v-459q0 -89 47.5 -137t133.5 -48q87 0 134.5 47t47.5 138v459h132v-459z" />
    <glyph glyph-name="V" unicode="V" horiz-adv-x="744" 
d="M426 0h-118l-301 737h144l218 -553l224 553h144z" />
    <glyph glyph-name="W" unicode="W" horiz-adv-x="1007" 
d="M12 737h140l131 -506l171 506h107l167 -497q32 124 65 251t63 246h140l-200 -737h-120l-167 504q-44 -130 -85 -253.5t-84 -250.5h-118z" />
    <glyph glyph-name="X" unicode="X" horiz-adv-x="741" 
d="M366 277q-52 -69 -107 -139.5t-106 -137.5h-161l293 382l-273 355h156l196 -251q48 63 97.5 127t95.5 124h160l-271 -355q34 -43 72.5 -92.5t78 -100t77.5 -99t71 -90.5h-164z" />
    <glyph glyph-name="Y" unicode="Y" horiz-adv-x="723" 
d="M295 0v291l-298 446h158l206 -318l207 318h158l-300 -447v-290h-131z" />
    <glyph glyph-name="Z" unicode="Z" 
d="M648 0h-627v80l436 545h-406v112h587v-81l-433 -544h443v-112z" />
    <glyph glyph-name="bracketleft" unicode="[" horiz-adv-x="345" 
d="M24 -60v838h297v-111h-167v-616h167v-111h-297z" />
    <glyph glyph-name="backslash" unicode="\" horiz-adv-x="656" 
d="M651 -132h-148l-499 850h149z" />
    <glyph glyph-name="bracketright" unicode="]" horiz-adv-x="345" 
d="M321 778v-838h-297v111h167v616h-167v111h297z" />
    <glyph glyph-name="asciicircum" unicode="^" horiz-adv-x="510" 
d="M212 802h87l220 -255h-148l-116 127q-27 -31 -58.5 -64.5t-56.5 -62.5h-149z" />
    <glyph glyph-name="underscore" unicode="_" horiz-adv-x="639" 
d="M24 -79v115h591v-115h-591z" />
    <glyph glyph-name="grave" unicode="`" horiz-adv-x="421" 
d="M120 815l246 -240l-69 -80l-267 230z" />
    <glyph glyph-name="a" unicode="a" horiz-adv-x="604" 
d="M584 97q-57 -52 -129.5 -84t-156.5 -32q-58 0 -109 12t-88.5 36t-59 60.5t-21.5 85.5q0 51 21 88.5t56.5 61.5t82.5 35.5t99 11.5q56 0 100 -8.5t76 -22.5v12q0 29 -31.5 50.5t-97.5 21.5q-62 0 -127 -16t-139 -60v131q57 33 120 50.5t146 17.5q58 0 105.5 -15t81.5 -45
t52.5 -74.5t18.5 -102.5v-214zM148 175q0 -19 12 -32.5t33 -22t48 -12.5t57 -4q44 0 83.5 10.5t73.5 28.5v73q-47 20 -90.5 29t-81.5 9q-59 0 -97 -20.5t-38 -58.5z" />
    <glyph glyph-name="b" unicode="b" horiz-adv-x="634" 
d="M614 273q0 -59 -23.5 -112t-66 -93t-103 -63.5t-134.5 -23.5q-94 0 -158 25.5t-109 72.5v686h128v-248q73 31 158 31q63 0 119 -20.5t98 -57.5t66.5 -87t24.5 -110zM485 273q0 33 -15 60.5t-39.5 48t-57 32t-67.5 11.5q-44 0 -84 -10t-74 -29v-257q34 -13 65.5 -19
t73.5 -6q46 0 83 14t62.5 37.5t39 54t13.5 63.5z" />
    <glyph glyph-name="c" unicode="c" horiz-adv-x="604" 
d="M148 265q0 -38 12.5 -68t35 -50.5t53.5 -31.5t67 -11q25 0 52.5 5t60 17.5t70.5 34.5t85 57v-139q-62 -53 -126.5 -75.5t-146.5 -22.5q-65 0 -119 21t-92 58.5t-59 89.5t-21 115t21 115t59 89.5t92 58t119 20.5q82 0 146.5 -22.5t126.5 -75.5v-139q-47 34 -85 56.5
t-70.5 35t-60 17.5t-52.5 5q-36 0 -67 -11t-53.5 -32t-35 -50.5t-12.5 -66.5z" />
    <glyph glyph-name="d" unicode="d" horiz-adv-x="643" 
d="M624 79q-46 -47 -115 -72.5t-163 -25.5q-66 0 -125.5 21.5t-104 60.5t-70.5 92.5t-26 117.5q0 60 26 110t69.5 87t101.5 57.5t121 20.5q84 0 157 -31v248h129v-686zM148 273q0 -37 15 -68t42 -53.5t63 -35t78 -12.5t78 6t71 19v257q-34 19 -73.5 29t-83.5 10
q-36 0 -70 -11.5t-61 -32t-43 -48t-16 -60.5z" />
    <glyph glyph-name="e" unicode="e" horiz-adv-x="640" 
d="M165 186q21 -42 67 -62t103 -20q51 0 119.5 27.5t159.5 96.5v-140q-61 -51 -131 -79t-152 -28q-66 0 -123 20.5t-98.5 57.5t-65.5 89.5t-24 116.5q0 63 23.5 115t65 89.5t98.5 58t124 20.5q68 0 121.5 -19.5t90.5 -54.5t57 -83t20 -105zM335 425q-33 0 -63 -8.5
t-54 -24.5t-41 -39t-24 -52l320 70q-16 21 -50.5 37.5t-87.5 16.5z" />
    <glyph glyph-name="f" unicode="f" horiz-adv-x="276" 
d="M-30 529h72v9q0 60 17 101t47.5 65.5t73 33.5t94.5 3l8 -115q-46 7 -79 -11.5t-33 -69.5v-16h141v-113h-141v-416h-128v416h-72v113z" />
    <glyph glyph-name="g" unicode="g" horiz-adv-x="634" 
d="M485 31q-74 -31 -157 -31q-65 0 -121 20.5t-97.5 56.5t-65.5 86t-24 110t24 110t65.5 87t97.5 57.5t121 20.5q84 0 156.5 -32t129.5 -83v-394q0 -59 -22 -103.5t-59.5 -74t-88.5 -44.5t-109 -15q-82 0 -154.5 21.5t-121.5 65.5v131q77 -55 145.5 -75.5t130.5 -20.5
q30 0 57.5 6t48 18t32.5 28.5t12 37.5v17zM148 273q0 -33 14.5 -60.5t39 -47.5t57 -31t69.5 -11q44 0 83.5 10.5t73.5 28.5v224q-34 19 -73.5 29t-83.5 10q-37 0 -69.5 -11.5t-57 -32t-39 -48t-14.5 -60.5z" />
    <glyph glyph-name="h" unicode="h" horiz-adv-x="614" 
d="M20 765h128v-252q42 16 90.5 25.5t92.5 9.5q60 0 108.5 -18.5t83 -52t53 -80.5t18.5 -105v-292h-129v292q0 61 -36 97t-98 36q-45 0 -95.5 -12t-87.5 -31v-382h-128v765z" />
    <glyph glyph-name="i" unicode="i" horiz-adv-x="206" 
d="M41 529h128v-529h-128v529zM20 626q0 33 24 56t59 23t59 -23t24 -56q0 -34 -24 -57t-59 -23t-59 23t-24 57z" />
    <glyph glyph-name="j" unicode="j" horiz-adv-x="212" 
d="M-68 -117q48 -8 80 10.5t32 71.5v564h129v-556q0 -120 -62 -168t-170 -37zM25 626q0 33 24.5 56t59.5 23t59.5 -23t24.5 -56q0 -34 -24.5 -57t-59.5 -23t-59.5 23t-24.5 57z" />
    <glyph glyph-name="k" unicode="k" horiz-adv-x="614" 
d="M301 194q-34 -8 -68 -14.5t-85 -14.5v-165h-128v765h128v-484q89 16 148 31.5t94.5 36t50 47.5t14.5 68v65h129v-65q0 -48 -7.5 -83.5t-24.5 -62.5t-45.5 -47t-71.5 -36l190 -235h-167z" />
    <glyph glyph-name="l" unicode="l" horiz-adv-x="168" 
d="M20 765h128v-765h-128v765z" />
    <glyph glyph-name="m" unicode="m" horiz-adv-x="782" 
d="M634 349q0 38 -21.5 57t-59.5 19q-26 0 -52.5 -6.5t-45.5 -19.5v-399h-128v358q0 36 -21.5 51.5t-59.5 15.5q-26 0 -53 -7t-45 -19v-399h-128v439q21 25 49 45t58.5 34t61.5 22t57 8q48 0 86 -12t65 -37q37 22 79 35.5t77 13.5q47 0 85.5 -14t66 -39.5t42.5 -62.5t15 -83
v-349h-128v349z" />
    <glyph glyph-name="n" unicode="n" horiz-adv-x="604" 
d="M455 292q0 61 -35 97t-94 36q-47 0 -94.5 -10t-83.5 -30v-385h-128v433q28 25 64 46.5t76 36.5t82.5 23.5t83.5 8.5q58 0 105.5 -18.5t81.5 -52t52.5 -80.5t18.5 -105v-292h-129v292z" />
    <glyph glyph-name="o" unicode="o" horiz-adv-x="634" 
d="M20 264q0 61 22 113.5t61.5 90t93.5 59t119 21.5q64 0 119 -21.5t94.5 -59t62 -90t22.5 -113.5q0 -62 -22.5 -113.5t-62 -89.5t-94.5 -59t-119 -21q-65 0 -119 21t-93.5 59t-61.5 89.5t-22 113.5zM148 264q0 -35 12.5 -64.5t35 -50.5t53 -33t67.5 -12t68 12t53.5 33
t35 50.5t12.5 64.5t-12.5 64.5t-35 51t-53.5 33.5t-68 12t-67.5 -12t-53 -33.5t-35 -51t-12.5 -64.5z" />
    <glyph glyph-name="p" unicode="p" horiz-adv-x="634" 
d="M20 433q57 51 129.5 83t156.5 32q74 0 131.5 -22t96.5 -60.5t59.5 -90.5t20.5 -111q0 -60 -20.5 -111.5t-59.5 -89.5t-96.5 -60t-131.5 -22q-44 0 -83 8.5t-75 23.5v-249h-128v669zM485 264q0 33 -11.5 62.5t-34 51t-56 34.5t-77.5 13t-84 -10t-74 -29v-243
q34 -18 74 -28.5t84 -10.5t77.5 12.5t56 34t34 51t11.5 62.5z" />
    <glyph glyph-name="q" unicode="q" horiz-adv-x="639" 
d="M619 -236h-128v248q-38 -17 -75 -24t-83 -7q-74 0 -132.5 22t-98.5 60t-61 89.5t-21 111.5q0 59 21 111t61 90.5t98.5 60.5t132.5 22q84 0 156.5 -32t129.5 -83v-669zM148 264q0 -33 12.5 -62.5t36 -51t58 -34t78.5 -12.5q45 0 85 10.5t73 28.5v243q-33 19 -73 29t-85 10
q-44 0 -78.5 -13t-58 -34.5t-36 -51t-12.5 -62.5z" />
    <glyph glyph-name="r" unicode="r" horiz-adv-x="316" 
d="M335 425q-60 0 -106.5 -10t-80.5 -29v-386h-128v433q57 51 136.5 83t178.5 32v-123z" />
    <glyph glyph-name="s" unicode="s" horiz-adv-x="614" 
d="M465 166q0 27 -32 38.5t-80 18t-103.5 12t-103.5 21t-80 44t-32 81.5q0 41 21 72.5t57 52.5t84 31.5t102 10.5q41 0 81.5 -6t76.5 -16t66.5 -22t51.5 -24v-131q-30 21 -65.5 35.5t-72 23.5t-72 13t-66.5 4q-61 0 -98 -11t-37 -28q0 -13 18.5 -20t49 -10.5t69 -6.5t79 -9
t79 -17t69 -30.5t49 -50.5t18.5 -76q0 -42 -21.5 -76t-59 -58t-88 -37.5t-109.5 -13.5q-38 0 -77.5 5t-78 15t-74.5 24.5t-66 32.5v141q39 -28 79.5 -46t79 -29t73.5 -15.5t64 -4.5q31 0 58 4.5t47 12.5t32 19.5t12 25.5z" />
    <glyph glyph-name="t" unicode="t" horiz-adv-x="389" 
d="M20 529h71v160h129v-160h141v-113h-141v-218q0 -88 77 -88q8 0 28.5 2.5t44.5 5.5v-114q-26 -3 -47 -5.5t-38 -2.5q-41 0 -76.5 10.5t-61.5 34t-41 60t-15 88.5v227h-71v113z" />
    <glyph glyph-name="u" unicode="u" horiz-adv-x="614" 
d="M148 237q0 -66 40.5 -99.5t109.5 -33.5q93 0 167 23v402h129v-450q-24 -21 -57.5 -39t-72 -31t-81 -20.5t-85.5 -7.5q-63 0 -114 17t-87.5 49.5t-56.5 80t-20 109.5v292h128v-292z" />
    <glyph glyph-name="v" unicode="v" horiz-adv-x="592" 
d="M255 2q-54 22 -97.5 60.5t-74 92t-47 121.5t-16.5 148v105h128v-105q0 -53 10 -102.5t29 -90.5t46.5 -71.5t62.5 -45.5q35 15 62.5 45.5t46 71.5t28.5 90.5t10 102.5v105h129v-105q0 -161 -64.5 -269.5t-176.5 -154.5h-64z" />
    <glyph glyph-name="w" unicode="w" horiz-adv-x="782" 
d="M148 181q0 -77 81 -77q26 0 52.5 6.5t45.5 19.5v399h128v-399q19 -11 46 -18.5t52 -7.5q81 0 81 77v348h128v-348q0 -94 -54.5 -147t-154.5 -53q-37 0 -80.5 14t-81.5 38q-38 -24 -81.5 -38t-80.5 -14q-100 0 -154.5 53t-54.5 147v348h128v-348z" />
    <glyph glyph-name="x" unicode="x" horiz-adv-x="592" 
d="M443 77q0 48 -39 82t-108 60q-70 -26 -109 -60t-39 -82v-77h-128v77q0 72 29.5 115t84.5 75q-53 26 -83.5 70t-30.5 116v76h128v-76q0 -25 11.5 -47t32 -39t47.5 -27t57 -10t57 10t47 27t31.5 39t11.5 47v76h129v-76q0 -38 -8 -66.5t-23.5 -50.5t-38 -38t-51.5 -29
q26 -16 48.5 -34.5t38.5 -42t25 -52t9 -63.5v-77h-129v77v0z" />
    <glyph glyph-name="y" unicode="y" horiz-adv-x="599" 
d="M451 28q-35 -13 -76 -20.5t-87 -7.5q-129 0 -198.5 66t-69.5 190v273h128v-273q0 -66 35.5 -99.5t104.5 -33.5q49 0 88.5 7.5t74.5 23.5v375h129v-490q0 -59 -21.5 -103.5t-59.5 -74t-89 -44.5t-109 -15q-81 0 -153.5 21.5t-122.5 65.5v131q77 -55 146 -75.5t130 -20.5
q30 0 57.5 6t48 18.5t32.5 31t12 43.5v5z" />
    <glyph glyph-name="z" unicode="z" horiz-adv-x="602" 
d="M35 529h534v-76q0 -54 -16 -90t-47 -61t-75 -44t-99 -39q-69 -25 -111 -47t-59 -49h420v-123h-562v77q0 54 16.5 90.5t49 64t81.5 49.5t115 47q52 19 89.5 37t55.5 41h-392v123z" />
    <glyph glyph-name="braceleft" unicode="{" horiz-adv-x="427" 
d="M24 414q45 0 73.5 5.5t45 15t23 22.5t6.5 28q0 12 -3.5 30t-5.5 37q-5 22 -7.5 42.5t-2.5 37.5q0 30 10 57t37.5 46.5t76 31t125.5 11.5v-114q-41 1 -66.5 -3t-40.5 -11.5t-20.5 -18t-5.5 -23.5q0 -26 8 -61.5t8 -77.5q0 -30 -11 -59.5t-36 -50.5q26 -21 36.5 -50
t10.5 -59q0 -42 -8 -78t-8 -61q0 -12 5.5 -23t20.5 -18.5t40.5 -11.5t66.5 -2v-115q-77 0 -125.5 11.5t-76 31t-37.5 46t-10 57.5q0 17 2.5 38t7.5 42q2 19 5.5 37t3.5 30q0 15 -6.5 28t-23 23t-45 15.5t-73.5 5.5v108z" />
    <glyph glyph-name="bar" unicode="|" horiz-adv-x="176" 
d="M24 764h128v-943h-128v943z" />
    <glyph glyph-name="braceright" unicode="}" horiz-adv-x="427" 
d="M402 306q-45 0 -73.5 -5.5t-45 -15.5t-22.5 -23t-6 -28q0 -12 3.5 -30t5.5 -37h-1q5 -21 7.5 -42t2.5 -38q0 -31 -10 -57.5t-37 -46t-75.5 -31t-126.5 -11.5v115q41 -2 66.5 2t40 11.5t20 18t5.5 22.5q0 26 -7.5 61.5t-7.5 77.5q0 30 10.5 59t37.5 51q-27 22 -37.5 51
t-10.5 60q0 42 7.5 77.5t7.5 61.5q0 12 -5.5 22.5t-20 18t-40 11.5t-66.5 3v114q78 0 126.5 -11.5t75.5 -31t37 -46.5t10 -57q0 -17 -2.5 -37.5t-7.5 -42.5h1q-2 -19 -5.5 -37t-3.5 -30q0 -15 6 -28t22.5 -22.5t45 -15t73.5 -5.5v-108z" />
    <glyph glyph-name="asciitilde" unicode="~" horiz-adv-x="499" 
d="M470 405q8 -20 12 -45.5t4 -48.5q0 -62 -35 -99.5t-92 -37.5q-41 0 -70.5 19t-52.5 42l-42 42t-40 19q-20 0 -20 -24q0 -21 31 -98h-120q-9 29 -14 53t-5 43q0 63 35.5 99t92.5 36q41 0 71.5 -19t54 -42t43 -42t37.5 -19q7 0 10 9t3 23q0 12 -5.5 35t-16.5 55h119v0z" />
    <glyph glyph-name="uni00A0" unicode="&#xa0;" horiz-adv-x="329" 
 />
    <glyph glyph-name="exclamdown" unicode="&#xa1;" horiz-adv-x="226" 
d="M58 411h115l11 -506h-137zM28 543q0 15 6.5 29.5t18 26t27 18.5t33.5 7t33.5 -7t26.5 -18.5t17.5 -26t6.5 -29.5q0 -31 -23.5 -56t-60.5 -25q-18 0 -33.5 7t-27 18t-18 26t-6.5 30z" />
    <glyph glyph-name="cent" unicode="&#xa2;" horiz-adv-x="579" 
d="M565 140q-50 -43 -105.5 -68t-118.5 -25h-18.5t-16.5 1l-33 -128h-106l38 153q-41 18 -74.5 47t-57 66t-36.5 81t-13 92q0 66 22.5 123t64 99t100 66t130.5 24h4v0h0.5h5.5q8 31 17 65.5t15 61.5h108l-37 -148q29 -11 56 -29.5t55 -41.5l-75 -81q-20 17 -35.5 27.5
t-26.5 16.5q-12 -50 -24 -96.5l-24 -93t-24 -93.5t-24 -98q5 -1 7 -0.5t7 0.5q38 0 74.5 16t66.5 45zM151 359q0 -53 22 -96.5t60 -69.5l94 364q-32 1 -63.5 -13.5t-56.5 -41.5t-40.5 -64t-15.5 -79z" />
    <glyph glyph-name="sterling" unicode="&#xa3;" 
d="M474 477q5 21 2.5 44t-15.5 42t-37.5 31t-62.5 12q-62 0 -97.5 -40t-35.5 -112q0 -20 3 -41.5t8 -46.5v-2q0 -1 1 -1h186v-103h-170q1 -8 1 -18.5v-19.5q0 -34 -5 -61.5t-19 -49.5h409v-111h-618v105q57 7 84 34t27 84v10.5v6.5t-0.5 7t-1.5 13h-78v103h62q-7 26 -9 50
t-2 46q0 62 18.5 110.5t52.5 81.5t80.5 50t103.5 17q68 0 114.5 -18.5t75 -51t39 -76.5t6.5 -95h-122v0z" />
    <glyph glyph-name="currency" unicode="&#xa4;" horiz-adv-x="656" 
d="M571 359q0 -38 -8 -71.5t-22 -57.5q24 -22 53 -48t48 -46l-79 -87l-101 98q-30 -18 -63 -25.5t-71 -7.5q-39 0 -71.5 8.5t-58.5 24.5l-97 -96l-89 84l106 99q-27 52 -27 125q0 70 25 121q-24 23 -55 50t-51 47l92 76l89 -88q28 19 61.5 29t75.5 10q41 0 76.5 -9.5
t65.5 -31.5l91 91l81 -78l-96 -97q11 -24 18 -54.5t7 -65.5zM452 359q0 59 -32 95t-92 36q-56 0 -87.5 -34.5t-31.5 -96.5t29.5 -96.5t89.5 -34.5q64 0 94 36t30 95z" />
    <glyph glyph-name="yen" unicode="&#xa5;" horiz-adv-x="708" 
d="M417 46v-46h-126v46h-155v103h155v36h-155v103h149q-33 49 -69.5 104.5t-73.5 111.5t-73 111t-68 103h150l203 -328q50 81 103 165t102 163h148l-277 -430h136v-103h-149v-36h149v-103h-149z" />
    <glyph glyph-name="brokenbar" unicode="&#xa6;" horiz-adv-x="174" 
d="M150 267v-446h-126v446h126zM24 319v445h126v-445h-126z" />
    <glyph glyph-name="section" unicode="&#xa7;" horiz-adv-x="585" 
d="M539 223q6 -12 9.5 -27t5.5 -31q3 -32 -11.5 -63.5t-47.5 -57t-87 -41.5t-130 -16q-33 0 -66.5 6.5t-65 20t-59 33t-47.5 45.5l87 64q27 -27 66 -42t84 -15q42 0 71 5t47 13.5t26.5 19.5t8.5 23q-5 26 -33 38t-68.5 17.5t-88 10t-90 16t-76 34.5t-45.5 67q-7 24 -3 53.5
t21 51.5q-13 25 -16 60q-3 32 11 63.5t47.5 57t87 41.5t130.5 16q68 0 133 -27t107 -78l-89 -60q-26 26 -64 41t-85 15q-42 0 -71 -5.5t-47.5 -14t-27.5 -19.5t-9 -22q4 -26 31.5 -37.5t67 -17.5t85.5 -10t88.5 -15t76.5 -32.5t48 -61.5q2 -6 4 -18.5t2 -28.5t-4 -34.5
t-14 -37.5zM145 379q-2 -18 11.5 -28.5t36.5 -16t54 -8.5t64 -6.5t66 -9.5t62 -18v3q0 18 -14 27.5t-37.5 14.5t-54 7.5t-63.5 6t-65.5 9.5t-59.5 19z" />
    <glyph glyph-name="dieresis" unicode="&#xa8;" horiz-adv-x="519" 
d="M198 656q0 -15 -6.5 -29.5t-17.5 -26t-27 -18.5t-34 -7t-33.5 7t-26.5 18.5t-17.5 26t-6.5 29.5t6.5 30t17.5 26t26.5 18t33.5 7q37 0 61 -25t24 -56zM455 656q0 -15 -6.5 -29.5t-17.5 -26t-26.5 -18.5t-33.5 -7t-34 7t-27 18.5t-17.5 26t-6.5 29.5q0 31 24 56t61 25
q18 0 33.5 -7t26.5 -18t17.5 -26t6.5 -30z" />
    <glyph glyph-name="copyright" unicode="&#xa9;" horiz-adv-x="957" 
d="M822 359q0 67 -23 127t-67 105t-107.5 71t-145.5 26q-80 0 -143.5 -26t-108 -71t-68.5 -105t-24 -127t24 -127t68.5 -105t108 -71t143.5 -26q82 0 145.5 26t107.5 71t67 105t23 127zM933 359q0 -98 -34 -177.5t-94 -136.5t-143.5 -88t-182.5 -31q-105 0 -189.5 34
t-143.5 93t-90.5 137.5t-31.5 168.5t31.5 168.5t90.5 137.5t143.5 93t189.5 34q99 0 182.5 -31t143.5 -88t94 -137t34 -177zM706 195q-48 -46 -103.5 -72t-119.5 -26q-50 0 -97.5 19.5t-84.5 54t-59.5 82.5t-22.5 106t22.5 106t59.5 83t84.5 54.5t97.5 19.5q65 0 121 -26.5
t101 -74.5l-80 -71q-31 27 -64.5 42t-70.5 15q-27 0 -53 -11t-47 -30.5t-34 -46.5t-13 -60t13 -60.5t34 -47t47 -30t53 -10.5q37 0 70 15.5t64 43.5z" />
    <glyph glyph-name="ordfeminine" unicode="&#xaa;" horiz-adv-x="604" 
d="M584 297q-57 -52 -129.5 -84t-156.5 -32q-58 0 -109 12t-88.5 36t-59 60.5t-21.5 85.5q0 51 21 88.5t56.5 61.5t82.5 35.5t99 11.5q56 0 100 -8.5t76 -22.5v12q0 29 -31.5 50.5t-97.5 21.5q-62 0 -127 -16t-139 -60v131q57 33 120 50.5t146 17.5q58 0 105.5 -15t81.5 -45
t52.5 -74.5t18.5 -102.5v-214zM148 375q0 -19 12 -32.5t33 -22t48 -12.5t57 -4q44 0 83.5 10.5t73.5 28.5v73q-47 20 -90.5 29t-81.5 9q-59 0 -97 -20.5t-38 -58.5z" />
    <glyph glyph-name="guillemotleft" unicode="&#xab;" horiz-adv-x="756" 
d="M451 543l-253 -189l252 -185l-75 -83l-371 267l369 265zM741 543l-253 -189l252 -185l-75 -83l-371 267l369 265z" />
    <glyph glyph-name="logicalnot" unicode="&#xac;" horiz-adv-x="631" 
d="M607 76h-119v222h-464v115h583v-337z" />
    <glyph glyph-name="uni00AD" unicode="&#xad;" horiz-adv-x="559" 
d="M24 243v120h509v-120h-509z" />
    <glyph glyph-name="registered" unicode="&#xae;" horiz-adv-x="957" 
d="M933 359q0 -98 -34 -177.5t-94 -136.5t-143.5 -88t-182.5 -31q-105 0 -189.5 34t-143.5 93t-90.5 137.5t-31.5 168.5t31.5 168.5t90.5 137.5t143.5 93t189.5 34q99 0 182.5 -31t143.5 -88t94 -137t34 -177zM488 270h-102v-159h-121v498h274q54 0 93 -14.5t64 -38.5
t37 -55t12 -64q0 -48 -29.5 -92t-91.5 -64l126 -134q35 44 53.5 98t18.5 114q0 67 -23 127t-67 105t-107.5 71t-145.5 26q-80 0 -143.5 -26t-108 -71t-68.5 -105t-24 -127t24 -127t68.5 -105t108 -71t143.5 -26q74 0 133 21.5t103 59.5h-87zM386 501v-128h142
q52 0 73.5 19.5t21.5 41.5q0 14 -4 26t-15 21t-29.5 14.5t-46.5 5.5h-142z" />
    <glyph glyph-name="macron" unicode="&#xaf;" horiz-adv-x="496" 
d="M24 587v111h447v-111h-447z" />
    <glyph glyph-name="degree" unicode="&#xb0;" horiz-adv-x="403" 
d="M201 860q37 0 69 -13.5t56 -36.5t38 -53.5t14 -65.5t-14 -66t-38 -53.5t-56 -35.5t-69 -13q-36 0 -68 13t-56.5 35.5t-38.5 53.5t-14 66t14 65.5t38.5 53.5t56.5 36.5t68 13.5zM201 630q26 0 45 18t19 43q0 24 -19 42.5t-45 18.5t-45 -18.5t-19 -42.5q0 -25 19 -43
t45 -18z" />
    <glyph glyph-name="plusminus" unicode="&#xb1;" horiz-adv-x="631" 
d="M380 507h227v-114h-227v-223h-120v223h-236v114h236v216h120v-216zM24 12v114h583v-114h-583z" />
    <glyph glyph-name="twosuperior" unicode="&#xb2;" horiz-adv-x="514" 
d="M32 503q-7 42 5.5 80.5t42 68.5t74 48t101.5 18q47 0 87 -14t69 -39t45 -58t16 -70q0 -25 -8 -52t-25 -53l1 1q-23 -38 -63.5 -69.5t-89.5 -57.5h203v-108h-466v98q48 18 96.5 39.5t90 45t73 47t47.5 44.5v-1q22 35 22 62q0 35 -29.5 57t-71.5 22q-28 0 -48.5 -11.5
t-34 -30.5t-19 -43t-3.5 -49h-85z" />
    <glyph glyph-name="threesuperior" unicode="&#xb3;" horiz-adv-x="556" 
d="M70 542q-3 34 10.5 66t41.5 56.5t69.5 39t93.5 14.5q54 0 92.5 -13t63 -33t36 -45.5t11.5 -50.5q0 -26 -11 -49.5t-35 -41.5q38 -17 58.5 -45.5t21.5 -72.5q1 -28 -10.5 -58t-39.5 -54.5t-75 -40.5t-119 -16q-60 0 -108 16.5t-81 44.5t-49 66t-12 80h116q-3 -20 6 -38.5
t27 -32.5t44 -22.5t56 -8.5q67 0 96 19.5t29 48.5q0 10 -6 20t-22 17.5t-44 12t-73 4.5h-87v99h82q67 0 100 18t25 41q-6 18 -24.5 27.5t-42 12.5t-49 -1.5t-45 -14.5t-30 -26.5t-4.5 -37.5z" />
    <glyph glyph-name="acute" unicode="&#xb4;" horiz-adv-x="421" 
d="M405 765l-297 -245l-67 81l274 255z" />
    <glyph glyph-name="mu" unicode="&#xb5;" horiz-adv-x="614" 
d="M20 529h128v-292q0 -66 40.5 -99.5t109.5 -33.5q93 0 167 23v402h129v-450q-24 -21 -57.5 -39t-72 -31t-81 -20.5t-85.5 -7.5q-45 0 -83 8.5t-70 24.5v-193h-125v708z" />
    <glyph glyph-name="paragraph" unicode="&#xb6;" horiz-adv-x="658" 
d="M150 499q-48 8 -80 43.5t-32 90.5q0 31 11.5 55.5t31 41.5t45 25.5t53.5 8.5h419v-113h-99v-830h-126v830h-97v-830h-126v678z" />
    <glyph glyph-name="periodcentered" unicode="&#xb7;" horiz-adv-x="219" 
d="M194 353q0 -15 -6.5 -30t-18 -26.5t-27 -18.5t-33.5 -7t-33.5 7t-27 18.5t-18 26.5t-6.5 30t6.5 29.5t18 25.5t27 18t33.5 7t33.5 -7t27 -18t18 -25.5t6.5 -29.5z" />
    <glyph glyph-name="cedilla" unicode="&#xb8;" horiz-adv-x="387" 
d="M220 29q34 -3 60.5 -16t44.5 -31.5t27.5 -41t9.5 -44.5q0 -30 -10 -56t-31 -46t-53.5 -31.5t-77.5 -11.5q-29 0 -70 5t-96 22v103q45 -7 79 -9.5t54 -2.5q37 0 57.5 9.5t23 21.5t-13 21.5t-50.5 9.5q-23 0 -84 -14v77l45 121h117z" />
    <glyph glyph-name="onesuperior" unicode="&#xb9;" horiz-adv-x="285" 
d="M143 198v289h-119v108q34 0 56.5 2.5t36 11t19.5 24.5t7 42v43h118v-520h-118z" />
    <glyph glyph-name="ordmasculine" unicode="&#xba;" horiz-adv-x="577" 
d="M431 458q0 30 -10.5 57t-29.5 47.5t-45 32.5t-57 12t-57 -11.5t-45.5 -31.5t-30.5 -47t-11 -59t11 -59t30.5 -46.5t45.5 -31t57 -11.5t57 12t45 32.5t29.5 47t10.5 56.5zM552 458q0 -64 -23 -112.5t-60.5 -81.5t-84.5 -49.5t-95 -16.5q-54 0 -102.5 20t-84.5 54.5t-57 82
t-21 103.5t20 103.5t55 82.5t84 54.5t106 19.5q48 0 95 -17.5t84.5 -51t60.5 -82t23 -109.5z" />
    <glyph glyph-name="guillemotright" unicode="&#xbb;" horiz-adv-x="776" 
d="M4 161l253 189l-252 185l75 83l371 -267l-369 -265zM304 161l253 189l-252 185l75 83l371 -267l-369 -265z" />
    <glyph glyph-name="onequarter" unicode="&#xbc;" horiz-adv-x="970" 
d="M886 520v-327h78v-104h-78v-89h-112v89h-311v77l319 354h104zM758 718h151l-649 -718h-151zM261 198h-118v289h-119v108q36 0 59 4t36.5 16.5t18.5 37t5 65.5h118v-520zM774 193l5 170q-18 -21 -34.5 -40.5t-33 -40t-35 -42.5t-40.5 -47h138z" />
    <glyph glyph-name="onehalf" unicode="&#xbd;" horiz-adv-x="997" 
d="M261 256l417 462h150l-198 -219q23 10 50 15.5t58 5.5q47 0 87 -14t69 -39t45 -58t16 -71q0 -24 -8 -51t-25 -54h1q-23 -36 -64 -68t-90 -58h203v-107h-464v98q48 18 96 39.5t89 44.5t73 46.5t48 45.5v-1q22 34 22 62q0 35 -29.5 57t-71.5 22q-28 0 -48.5 -12t-34 -31
t-19 -43t-3.5 -49h-86q-7 7 -14 13t-15 12q-6 36 3 71l-339 -375h-150l179 198h-65v289h-119v108q36 0 59 4t36.5 16.5t18.5 37t5 65.5h118v-462z" />
    <glyph glyph-name="threequarters" unicode="&#xbe;" horiz-adv-x="1058" 
d="M388 211q-23 -6 -50.5 -9.5t-59.5 -3.5q-60 0 -108 16.5t-81 44.5t-49 66t-12 80h116q-3 -20 6 -38.5t27 -32.5t44 -22.5t56 -8.5q67 0 96 19.5t29 48.5q0 10 -6 20t-22 17.5t-44 12t-73 4.5h-87v99h82q57 0 88.5 13.5t31.5 33.5q0 23 -25.5 34.5t-57.5 11.5
q-15 0 -33.5 -1.5t-34 -6.5t-26.5 -14t-11 -25h-114q0 26 14 52.5t41.5 47.5t67.5 34.5t92 13.5q54 0 92.5 -13t63 -33t36 -45.5t11.5 -50.5q0 -26 -11 -49.5t-35 -41.5q38 -17 58.5 -45.5t21.5 -72.5v-8l324 359h151l-649 -718h-151zM967 520v-327h77v-104h-77v-89h-112v89
h-310v77l319 354h103zM855 193q0 27 0.5 45t1.5 35t2 37.5t2 52.5q-18 -21 -34.5 -40.5t-33.5 -40t-35.5 -42.5t-40.5 -47h138z" />
    <glyph glyph-name="questiondown" unicode="&#xbf;" horiz-adv-x="593" 
d="M555 131q8 -39 -6 -79.5t-47.5 -73t-87 -53t-125.5 -20.5q-62 0 -112 19t-85.5 50t-55 71t-20.5 83q5 36 20.5 64t37.5 49.5t47.5 38t50.5 28.5q18 9 34.5 18.5t28 23t17 32.5t1.5 48h117q7 -58 -6.5 -95.5t-38 -62t-55.5 -40t-58.5 -30t-47 -32.5t-20.5 -47
q0 -23 10.5 -42t30.5 -33.5t47.5 -22.5t60.5 -8q41 0 69 13.5t44.5 34t21.5 44.5t0 45h99zM232 546q0 15 6.5 29t17.5 25t27 17.5t34 6.5t33.5 -6.5t27 -17.5t18 -25t6.5 -29t-6.5 -29t-18 -25t-27 -17.5t-33.5 -6.5t-34 6.5t-27 17.5t-17.5 25t-6.5 29z" />
    <glyph glyph-name="Agrave" unicode="&#xc0;" horiz-adv-x="782" 
d="M313 1015l246 -240l-69 -80l-33 28l320 -723h-145l-68 155h-352q-14 -36 -33.5 -78t-34.5 -77h-140l327 737h110l-218 188zM262 269h253q-17 40 -32 73t-29.5 66t-30.5 68.5t-35 79.5z" />
    <glyph glyph-name="Aacute" unicode="&#xc1;" horiz-adv-x="782" 
d="M331 737h120l326 -737h-145l-68 155h-352q-14 -36 -33.5 -78t-34.5 -77h-140zM262 269h253q-17 40 -32 73t-29.5 66t-30.5 68.5t-35 79.5zM573 965l-297 -245l-67 81l274 255z" />
    <glyph glyph-name="Acircumflex" unicode="&#xc2;" horiz-adv-x="782" 
d="M331 737h120l326 -737h-145l-68 155h-352q-14 -36 -33.5 -78t-34.5 -77h-140zM262 269h253q-17 40 -32 73t-29.5 66t-30.5 68.5t-35 79.5zM348 1002h87l220 -255h-148l-116 127q-27 -31 -58.5 -64.5t-56.5 -62.5h-149z" />
    <glyph glyph-name="Atilde" unicode="&#xc3;" horiz-adv-x="782" 
d="M331 737h120l326 -737h-145l-68 155h-352q-14 -36 -33.5 -78t-34.5 -77h-140zM262 269h253q-17 40 -32 73t-29.5 66t-30.5 68.5t-35 79.5zM605 972q6 -16 11 -44t5 -51q0 -62 -35 -99t-92 -37q-41 0 -70.5 19t-52.5 41.5t-42 41.5t-40 19q-20 0 -20 -24q0 -21 31 -97
h-120q-9 28 -14 52t-5 43q0 63 35.5 99.5t92.5 36.5q41 0 71.5 -19t54 -42t43 -42t37.5 -19q13 0 13 31q0 12 -5.5 35.5t-16.5 55.5h119z" />
    <glyph glyph-name="Adieresis" unicode="&#xc4;" horiz-adv-x="782" 
d="M331 737h120l326 -737h-145l-68 155h-352q-14 -36 -33.5 -78t-34.5 -77h-140zM262 269h253q-17 40 -32 73t-29.5 66t-30.5 68.5t-35 79.5zM347 856q0 -15 -6.5 -29.5t-17.5 -26t-27 -18.5t-34 -7t-33.5 7t-26.5 18.5t-17.5 26t-6.5 29.5t6.5 30t17.5 26t26.5 18t33.5 7
q37 0 61 -25t24 -56zM604 856q0 -15 -6.5 -29.5t-17.5 -26t-26.5 -18.5t-33.5 -7t-34 7t-27 18.5t-17.5 26t-6.5 29.5q0 31 24 56t61 25q18 0 33.5 -7t26.5 -18t17.5 -26t6.5 -30z" />
    <glyph glyph-name="Aring" unicode="&#xc5;" horiz-adv-x="782" 
d="M391 980q37 0 69 -13.5t56 -36.5t38 -53.5t14 -65.5q0 -47 -24 -85t-62 -60l295 -666h-145l-68 155h-352q-14 -36 -33.5 -78t-34.5 -77h-140l296 667q-38 22 -62 59.5t-24 84.5q0 35 14 65.5t38.5 53.5t56.5 36.5t68 13.5zM262 269h253q-17 40 -32 73t-29.5 66
t-30.5 68.5t-35 79.5zM391 750q26 0 45 18t19 43q0 24 -19 42.5t-45 18.5t-45 -18.5t-19 -42.5q0 -25 19 -43t45 -18z" />
    <glyph glyph-name="AE" unicode="&#xc6;" horiz-adv-x="1138" 
d="M1117 0h-573v155h-335q-15 -18 -32 -38t-34 -40.5t-34 -40t-31 -36.5h-148l609 737h568v-112h-431v-183h382v-113h-382v-217h441v-112zM544 269v292l-238 -292h238z" />
    <glyph glyph-name="Ccedilla" unicode="&#xc7;" horiz-adv-x="710" 
d="M689 228q-14 -46 -39.5 -88.5t-62.5 -76.5t-85.5 -55.5t-107.5 -25.5l-12 -33q34 -3 60.5 -16t44.5 -31.5t27.5 -41t9.5 -44.5q0 -30 -10 -56t-31 -46t-53.5 -31.5t-77.5 -11.5q-29 0 -70 5t-96 22v103q45 -7 79 -9.5t54 -2.5q37 0 57.5 9.5t23 21.5t-13 21.5t-50.5 9.5
q-23 0 -84 -14v77l29 78q-61 14 -109 47t-81.5 80.5t-51.5 108.5t-18 131q0 84 25.5 156.5t72 126.5t112.5 84.5t147 30.5q69 0 124 -23.5t95.5 -60t65 -82t31.5 -89.5h-131q-7 27 -23 53t-39.5 46t-54 32t-66.5 12q-54 0 -96 -23t-71 -62t-44.5 -91t-15.5 -110
q0 -56 14.5 -104.5t42 -84.5t68.5 -56.5t95 -20.5q34 0 63 10.5t52.5 29t41 43t28.5 52.5h131z" />
    <glyph glyph-name="Egrave" unicode="&#xc8;" horiz-adv-x="615" 
d="M229 1015l246 -240l-33 -38h142v-112h-431v-183h382v-113h-382v-217h441v-112h-573v737h336l-218 188z" />
    <glyph glyph-name="Eacute" unicode="&#xc9;" horiz-adv-x="615" 
d="M489 965l-277 -228h372v-112h-431v-183h382v-113h-382v-217h441v-112h-573v737h157l-53 64l274 255z" />
    <glyph glyph-name="Ecircumflex" unicode="&#xca;" horiz-adv-x="615" 
d="M594 0h-573v737h563v-112h-431v-183h382v-113h-382v-217h441v-112zM264 1002h87l220 -255h-148l-116 127q-27 -31 -58.5 -64.5t-56.5 -62.5h-149z" />
    <glyph glyph-name="Edieresis" unicode="&#xcb;" horiz-adv-x="615" 
d="M594 0h-573v737h563v-112h-431v-183h382v-113h-382v-217h441v-112zM263 856q0 -15 -6.5 -29.5t-17.5 -26t-27 -18.5t-34 -7t-33.5 7t-26.5 18.5t-17.5 26t-6.5 29.5t6.5 30t17.5 26t26.5 18t33.5 7q37 0 61 -25t24 -56zM520 856q0 -15 -6.5 -29.5t-17.5 -26t-26.5 -18.5
t-33.5 -7t-34 7t-27 18.5t-17.5 26t-6.5 29.5q0 31 24 56t61 25q18 0 33.5 -7t26.5 -18t17.5 -26t6.5 -30z" />
    <glyph glyph-name="Igrave" unicode="&#xcc;" horiz-adv-x="173" 
d="M9 1015l246 -240l-69 -80l-33 28v-723h-132v737h116l-218 188z" />
    <glyph glyph-name="Iacute" unicode="&#xcd;" horiz-adv-x="173" 
d="M153 0h-132v737h132v-737zM269 965l-297 -245l-67 81l274 255z" />
    <glyph glyph-name="Icircumflex" unicode="&#xce;" horiz-adv-x="173" 
d="M153 0h-132v737h132v-737zM44 1002h87l220 -255h-148l-116 127q-27 -31 -58.5 -64.5t-56.5 -62.5h-149z" />
    <glyph glyph-name="Idieresis" unicode="&#xcf;" horiz-adv-x="173" 
d="M153 0h-132v737h132v-737zM43 856q0 -15 -6.5 -29.5t-17.5 -26t-27 -18.5t-34 -7t-33.5 7t-26.5 18.5t-17.5 26t-6.5 29.5t6.5 30t17.5 26t26.5 18t33.5 7q37 0 61 -25t24 -56zM300 856q0 -15 -6.5 -29.5t-17.5 -26t-26.5 -18.5t-33.5 -7t-34 7t-27 18.5t-17.5 26
t-6.5 29.5q0 31 24 56t61 25q18 0 33.5 -7t26.5 -18t17.5 -26t6.5 -30z" />
    <glyph glyph-name="Eth" unicode="&#xd0;" horiz-adv-x="680" 
d="M310 737q82 0 147 -25.5t110 -73t68.5 -115.5t23.5 -154t-25 -154.5t-70 -116t-109 -73t-142 -25.5h-292v273h-66v120h66v344h289zM153 273v-161h162q47 0 86.5 17t68 49.5t44 80.5t15.5 110q0 130 -60 193t-159 63h-157v-232h201v-120h-201z" />
    <glyph glyph-name="Ntilde" unicode="&#xd1;" 
d="M21 737h120l376 -502v502h131v-737h-112l-384 511v-511h-131v737zM548 972q6 -16 11 -44t5 -51q0 -62 -35 -99t-92 -37q-41 0 -70.5 19t-52.5 41.5t-42 41.5t-40 19q-20 0 -20 -24q0 -21 31 -97h-120q-9 28 -14 52t-5 43q0 63 35.5 99.5t92.5 36.5q41 0 71.5 -19t54 -42
t43 -42t37.5 -19q13 0 13 31q0 12 -5.5 35.5t-16.5 55.5h119z" />
    <glyph glyph-name="Ograve" unicode="&#xd2;" horiz-adv-x="757" 
d="M300 1015l246 -240l-36 -42q54 -20 96.5 -56t71.5 -83.5t44 -104.5t15 -120q0 -80 -24 -150.5t-70 -123.5t-113 -83.5t-152 -30.5q-84 0 -150.5 31t-112.5 83.5t-70 123t-24 150.5q0 79 24 149.5t70 123.5t112.5 83.5t150.5 30.5q8 0 15 -0.5t14 -1.5l-197 171zM378 93
q50 0 92 20.5t72 57t46.5 87t16.5 111.5q0 60 -16.5 110.5t-46.5 87t-72 57t-92 20.5t-91.5 -20.5t-71 -57t-46 -87t-16.5 -110.5q0 -61 16.5 -111.5t46.5 -87t71 -57t91 -20.5z" />
    <glyph glyph-name="Oacute" unicode="&#xd3;" horiz-adv-x="757" 
d="M560 965l-264 -218q39 9 82 9q85 0 152 -30.5t113 -83.5t70 -123.5t24 -149.5q0 -80 -24 -150.5t-70 -123.5t-113 -83.5t-152 -30.5q-84 0 -150.5 31t-112.5 83.5t-70 123t-24 150.5q0 63 15.5 120.5t44.5 105.5t72 83.5t98 55.5l-55 67l274 255zM378 93q50 0 92 20.5
t72 57t46.5 87t16.5 111.5q0 60 -16.5 110.5t-46.5 87t-72 57t-92 20.5t-91.5 -20.5t-71 -57t-46 -87t-16.5 -110.5q0 -61 16.5 -111.5t46.5 -87t71 -57t91 -20.5z" />
    <glyph glyph-name="Ocircumflex" unicode="&#xd4;" horiz-adv-x="757" 
d="M378 756q85 0 152 -30.5t113 -83.5t70 -123.5t24 -149.5q0 -80 -24 -150.5t-70 -123.5t-113 -83.5t-152 -30.5q-84 0 -150.5 31t-112.5 83.5t-70 123t-24 150.5q0 79 24 149.5t70 123.5t112.5 83.5t150.5 30.5zM378 93q50 0 92 20.5t72 57t46.5 87t16.5 111.5
q0 60 -16.5 110.5t-46.5 87t-72 57t-92 20.5t-91.5 -20.5t-71 -57t-46 -87t-16.5 -110.5q0 -61 16.5 -111.5t46.5 -87t71 -57t91 -20.5zM335 1002h87l220 -255h-148l-116 127q-27 -31 -58.5 -64.5t-56.5 -62.5h-149z" />
    <glyph glyph-name="Otilde" unicode="&#xd5;" horiz-adv-x="757" 
d="M592 972q6 -16 11 -44t5 -51q0 -60 -33.5 -97t-88.5 -39q60 -18 106.5 -53.5t79 -84.5t49 -108.5t16.5 -125.5q0 -80 -24 -150.5t-70 -123.5t-113 -83.5t-152 -30.5q-84 0 -150.5 31t-112.5 83.5t-70 123t-24 150.5q0 66 16.5 125.5t48.5 108.5t78 84.5t106 53.5h-103
q-9 28 -14 52t-5 43q0 63 35.5 99.5t92.5 36.5q41 0 71.5 -19t54 -42t43 -42t37.5 -19q13 0 13 31q0 12 -5.5 35.5t-16.5 55.5h119zM378 93q50 0 92 20.5t72 57t46.5 87t16.5 111.5q0 60 -16.5 110.5t-46.5 87t-72 57t-92 20.5t-91.5 -20.5t-71 -57t-46 -87t-16.5 -110.5
q0 -61 16.5 -111.5t46.5 -87t71 -57t91 -20.5zM378 756q23 0 44 -3q-26 12 -45.5 30.5t-36.5 36t-32.5 30t-31.5 12.5q-20 0 -20 -24q0 -21 29 -93q46 11 93 11z" />
    <glyph glyph-name="Odieresis" unicode="&#xd6;" horiz-adv-x="757" 
d="M378 756q85 0 152 -30.5t113 -83.5t70 -123.5t24 -149.5q0 -80 -24 -150.5t-70 -123.5t-113 -83.5t-152 -30.5q-84 0 -150.5 31t-112.5 83.5t-70 123t-24 150.5q0 79 24 149.5t70 123.5t112.5 83.5t150.5 30.5zM378 93q50 0 92 20.5t72 57t46.5 87t16.5 111.5
q0 60 -16.5 110.5t-46.5 87t-72 57t-92 20.5t-91.5 -20.5t-71 -57t-46 -87t-16.5 -110.5q0 -61 16.5 -111.5t46.5 -87t71 -57t91 -20.5zM334 856q0 -15 -6.5 -29.5t-17.5 -26t-27 -18.5t-34 -7t-33.5 7t-26.5 18.5t-17.5 26t-6.5 29.5t6.5 30t17.5 26t26.5 18t33.5 7
q37 0 61 -25t24 -56zM591 856q0 -15 -6.5 -29.5t-17.5 -26t-26.5 -18.5t-33.5 -7t-34 7t-27 18.5t-17.5 26t-6.5 29.5q0 31 24 56t61 25q18 0 33.5 -7t26.5 -18t17.5 -26t6.5 -30z" />
    <glyph glyph-name="multiply" unicode="&#xd7;" horiz-adv-x="587" 
d="M376 354l198 -186l-88 -83l-195 188l-197 -190l-80 89l193 183l-195 190l83 73l195 -183l192 183l93 -75z" />
    <glyph glyph-name="Oslash" unicode="&#xd8;" horiz-adv-x="757" 
d="M135 74q-56 54 -85 130.5t-29 164.5q0 79 24 149.5t70 123.5t112.5 83.5t150.5 30.5q39 0 74.5 -7t67.5 -20l34 58h148l-75 -128q54 -54 82 -129t28 -161q0 -80 -24 -150.5t-70 -123.5t-113 -83.5t-152 -30.5q-38 0 -71.5 6.5t-63.5 17.5l-39 -68h-149zM153 369
q0 -54 13 -100t36 -81l258 440q-40 16 -82 16q-50 0 -91.5 -20.5t-71 -57t-46 -87t-16.5 -110.5zM378 93q50 0 92 20.5t72 57t46.5 87t16.5 111.5q0 51 -12 95t-34 79l-256 -437q33 -13 75 -13z" />
    <glyph glyph-name="Ugrave" unicode="&#xd9;" 
d="M648 278q0 -146 -83 -221.5t-231 -75.5q-149 0 -231 75.5t-82 221.5v459h132v-459q0 -89 47.5 -137t133.5 -48q87 0 134.5 47t47.5 138v459h132v-459zM256 1015l246 -240l-69 -80l-267 230z" />
    <glyph glyph-name="Uacute" unicode="&#xda;" 
d="M648 278q0 -146 -83 -221.5t-231 -75.5q-149 0 -231 75.5t-82 221.5v459h132v-459q0 -89 47.5 -137t133.5 -48q87 0 134.5 47t47.5 138v459h132v-459zM516 965l-297 -245l-67 81l274 255z" />
    <glyph glyph-name="Ucircumflex" unicode="&#xdb;" 
d="M648 278q0 -146 -83 -221.5t-231 -75.5q-149 0 -231 75.5t-82 221.5v459h132v-459q0 -89 47.5 -137t133.5 -48q87 0 134.5 47t47.5 138v459h132v-459zM291 1002h87l220 -255h-148l-116 127q-27 -31 -58.5 -64.5t-56.5 -62.5h-149z" />
    <glyph glyph-name="Udieresis" unicode="&#xdc;" 
d="M648 278q0 -146 -83 -221.5t-231 -75.5q-149 0 -231 75.5t-82 221.5v459h132v-459q0 -89 47.5 -137t133.5 -48q87 0 134.5 47t47.5 138v459h132v-459zM290 856q0 -15 -6.5 -29.5t-17.5 -26t-27 -18.5t-34 -7t-33.5 7t-26.5 18.5t-17.5 26t-6.5 29.5t6.5 30t17.5 26
t26.5 18t33.5 7q37 0 61 -25t24 -56zM547 856q0 -15 -6.5 -29.5t-17.5 -26t-26.5 -18.5t-33.5 -7t-34 7t-27 18.5t-17.5 26t-6.5 29.5q0 31 24 56t61 25q18 0 33.5 -7t26.5 -18t17.5 -26t6.5 -30z" />
    <glyph glyph-name="Yacute" unicode="&#xdd;" horiz-adv-x="723" 
d="M295 0v291l-298 446h158l206 -318l207 318h158l-300 -447v-290h-131zM543 965l-297 -245l-67 81l274 255z" />
    <glyph glyph-name="Thorn" unicode="&#xde;" horiz-adv-x="638" 
d="M153 737v-127h190q66 0 117 -18.5t86 -50.5t53 -75t18 -92t-16.5 -92t-50.5 -75t-85.5 -50.5t-121.5 -18.5h-190v-138h-132v737h132zM153 497v-247h184q69 0 108.5 34t39.5 90q0 54 -39.5 88.5t-108.5 34.5h-184z" />
    <glyph glyph-name="germandbls" unicode="&#xdf;" horiz-adv-x="683" 
d="M174 412q75 -2 129 8t89 26t51.5 35.5t16.5 38.5q0 38 -36 63t-102 26q-78 -2 -124.5 -44t-46.5 -121v-444h-130v440q0 133 79 204t220 74q70 0 121 -15.5t84.5 -42.5t50 -62.5t16.5 -74.5q0 -40 -15.5 -75t-50.5 -64q71 -24 104 -70.5t33 -111.5q0 -45 -19 -85.5
t-56 -70.5t-92.5 -47.5t-128.5 -17.5q-25 0 -52.5 4.5t-53.5 11.5t-48.5 16.5t-38.5 20.5v132q21 -15 46.5 -29t52 -24.5t51 -17t43.5 -6.5q40 0 71 10t51.5 25.5t31 35.5t10.5 41q0 49 -44 78t-133 32q-34 -7 -79 -11t-101 -5v117z" />
    <glyph glyph-name="agrave" unicode="&#xe0;" horiz-adv-x="604" 
d="M224 815l246 -240l-37 -43q70 -23 110.5 -78t40.5 -143v-214q-57 -52 -129.5 -84t-156.5 -32q-58 0 -109 12t-88.5 36t-59 60.5t-21.5 85.5q0 51 21 88.5t56.5 61.5t82.5 35.5t99 11.5q56 0 100 -8.5t76 -22.5v12q0 29 -31.5 50.5t-97.5 21.5q-62 0 -127 -16t-139 -60
v131q57 33 120 50.5t146 17.5h13l-205 177zM148 175q0 -19 12 -32.5t33 -22t48 -12.5t57 -4q44 0 83.5 10.5t73.5 28.5v73q-47 20 -90.5 29t-81.5 9q-59 0 -97 -20.5t-38 -58.5z" />
    <glyph glyph-name="aacute" unicode="&#xe1;" horiz-adv-x="604" 
d="M484 765l-277 -228q27 5 56.5 8t62.5 3q58 0 105.5 -15t81.5 -45t52.5 -74.5t18.5 -102.5v-214q-57 -52 -129.5 -84t-156.5 -32q-58 0 -109 12t-88.5 36t-59 60.5t-21.5 85.5q0 51 21 88.5t56.5 61.5t82.5 35.5t99 11.5q56 0 100 -8.5t76 -22.5v12q0 29 -31.5 50.5
t-97.5 21.5q-62 0 -127 -16t-139 -60v131q28 16 57 28.5t61 21.5l-58 71l274 255zM148 175q0 -19 12 -32.5t33 -22t48 -12.5t57 -4q44 0 83.5 10.5t73.5 28.5v73q-47 20 -90.5 29t-81.5 9q-59 0 -97 -20.5t-38 -58.5z" />
    <glyph glyph-name="acircumflex" unicode="&#xe2;" horiz-adv-x="604" 
d="M584 97q-57 -52 -129.5 -84t-156.5 -32q-58 0 -109 12t-88.5 36t-59 60.5t-21.5 85.5q0 51 21 88.5t56.5 61.5t82.5 35.5t99 11.5q56 0 100 -8.5t76 -22.5v12q0 29 -31.5 50.5t-97.5 21.5q-62 0 -127 -16t-139 -60v131q57 33 120 50.5t146 17.5q58 0 105.5 -15t81.5 -45
t52.5 -74.5t18.5 -102.5v-214zM148 175q0 -19 12 -32.5t33 -22t48 -12.5t57 -4q44 0 83.5 10.5t73.5 28.5v73q-47 20 -90.5 29t-81.5 9q-59 0 -97 -20.5t-38 -58.5zM259 802h87l220 -255h-148l-116 127q-27 -31 -58.5 -64.5t-56.5 -62.5h-149z" />
    <glyph glyph-name="atilde" unicode="&#xe3;" horiz-adv-x="604" 
d="M516 772q6 -16 11 -44t5 -51q0 -62 -35 -99t-92 -37h-5q85 -17 134.5 -75t49.5 -155v-214q-57 -52 -129.5 -84t-156.5 -32q-58 0 -109 12t-88.5 36t-59 60.5t-21.5 85.5q0 51 21 88.5t56.5 61.5t82.5 35.5t99 11.5q56 0 100 -8.5t76 -22.5v12q0 29 -31.5 50.5t-97.5 21.5
q-62 0 -127 -16t-139 -60v131q57 33 120 50.5t146 17.5q11 0 21 -0.5t21 -1.5q-31 8 -54.5 27.5t-42.5 39t-36 34.5t-35 15q-20 0 -20 -24q0 -21 31 -97h-120q-9 28 -14 52t-5 43q0 63 35.5 99.5t92.5 36.5q41 0 71.5 -19t54 -42t43 -42t37.5 -19q13 0 13 31q0 12 -5.5 35.5
t-16.5 55.5h119zM148 175q0 -19 12 -32.5t33 -22t48 -12.5t57 -4q44 0 83.5 10.5t73.5 28.5v73q-47 20 -90.5 29t-81.5 9q-59 0 -97 -20.5t-38 -58.5z" />
    <glyph glyph-name="adieresis" unicode="&#xe4;" horiz-adv-x="604" 
d="M584 97q-57 -52 -129.5 -84t-156.5 -32q-58 0 -109 12t-88.5 36t-59 60.5t-21.5 85.5q0 51 21 88.5t56.5 61.5t82.5 35.5t99 11.5q56 0 100 -8.5t76 -22.5v12q0 29 -31.5 50.5t-97.5 21.5q-62 0 -127 -16t-139 -60v131q57 33 120 50.5t146 17.5q58 0 105.5 -15t81.5 -45
t52.5 -74.5t18.5 -102.5v-214zM148 175q0 -19 12 -32.5t33 -22t48 -12.5t57 -4q44 0 83.5 10.5t73.5 28.5v73q-47 20 -90.5 29t-81.5 9q-59 0 -97 -20.5t-38 -58.5zM268 656q0 -15 -6.5 -29.5t-17.5 -26t-27 -18.5t-34 -7t-33.5 7t-26.5 18.5t-17.5 26t-6.5 29.5t6.5 30
t17.5 26t26.5 18t33.5 7q37 0 61 -25t24 -56zM525 656q0 -15 -6.5 -29.5t-17.5 -26t-26.5 -18.5t-33.5 -7t-34 7t-27 18.5t-17.5 26t-6.5 29.5q0 31 24 56t61 25q18 0 33.5 -7t26.5 -18t17.5 -26t6.5 -30z" />
    <glyph glyph-name="aring" unicode="&#xe5;" horiz-adv-x="604" 
d="M312 860q37 0 69 -13.5t56 -36.5t38 -53.5t14 -65.5q0 -50 -26 -89t-69 -60q88 -16 139 -74t51 -157v-214q-57 -52 -129.5 -84t-156.5 -32q-58 0 -109 12t-88.5 36t-59 60.5t-21.5 85.5q0 51 21 88.5t56.5 61.5t82.5 35.5t99 11.5q56 0 100 -8.5t76 -22.5v12
q0 29 -31.5 50.5t-97.5 21.5q-62 0 -127 -16t-139 -60v131q39 23 80.5 38t91.5 23q-43 20 -70 60t-27 90q0 35 14 65.5t38.5 53.5t56.5 36.5t68 13.5zM148 175q0 -19 12 -32.5t33 -22t48 -12.5t57 -4q44 0 83.5 10.5t73.5 28.5v73q-47 20 -90.5 29t-81.5 9q-59 0 -97 -20.5
t-38 -58.5zM312 630q26 0 45 18t19 43q0 24 -19 42.5t-45 18.5t-45 -18.5t-19 -42.5q0 -25 19 -43t45 -18z" />
    <glyph glyph-name="ae" unicode="&#xe6;" horiz-adv-x="1077" 
d="M603 186q21 -42 67 -62t103 -20q51 0 119.5 27.5t159.5 96.5v-140q-61 -51 -131 -79t-152 -28q-69 0 -126.5 21.5t-99.5 60.5q-52 -38 -114 -60t-131 -22q-58 0 -109 12t-88.5 36t-59 60.5t-21.5 85.5q0 51 21 88.5t56.5 61.5t82.5 35.5t99 11.5q56 0 100 -8.5t76 -22.5
v12q0 29 -31.5 50.5t-97.5 21.5q-62 0 -127 -16t-139 -60v131q57 33 120 50.5t146 17.5q70 0 124.5 -21.5t87.5 -65.5q42 42 101 64.5t130 22.5q68 0 121.5 -19.5t90.5 -54.5t57 -83t20 -105zM148 175q0 -19 12 -32.5t33 -22t48 -12.5t57 -4q44 0 83.5 10.5t73.5 28.5v73
q-47 20 -90.5 29t-81.5 9q-59 0 -97 -20.5t-38 -58.5zM773 425q-33 0 -63 -8.5t-54 -24.5t-41 -39t-24 -52l320 70q-16 21 -50.5 37.5t-87.5 16.5z" />
    <glyph glyph-name="ccedilla" unicode="&#xe7;" horiz-adv-x="604" 
d="M148 265q0 -38 12.5 -68t35 -50.5t53.5 -31.5t67 -11q25 0 52.5 5t60 17.5t70.5 34.5t85 57v-139q-51 -44 -103.5 -66.5t-115.5 -28.5l-9 -26q34 -3 60.5 -16t44.5 -31.5t27.5 -41t9.5 -44.5q0 -30 -10 -56t-31 -46t-53.5 -31.5t-77.5 -11.5q-29 0 -70 5t-96 22v103
q45 -7 79 -9.5t54 -2.5q37 0 57.5 9.5t23 21.5t-13 21.5t-50.5 9.5q-23 0 -84 -14v77l23 64q-52 9 -94.5 33t-72.5 60t-46 83t-16 102q0 63 21 115t59 89.5t92 58t119 20.5q82 0 146.5 -22.5t126.5 -75.5v-139q-47 34 -85 56.5t-70.5 35t-60 17.5t-52.5 5q-36 0 -67 -11
t-53.5 -32t-35 -50.5t-12.5 -66.5z" />
    <glyph glyph-name="egrave" unicode="&#xe8;" horiz-adv-x="640" 
d="M242 815l246 -240l-39 -46q81 -28 125.5 -92t45.5 -151l-455 -100q21 -42 67 -62t103 -20q51 0 119.5 27.5t159.5 96.5v-140q-61 -51 -131 -79t-152 -28q-66 0 -123 20.5t-98.5 57.5t-65.5 89.5t-24 116.5q0 63 23.5 115t65 89.5t98.5 58t124 20.5q7 0 13.5 -0.5
t13.5 -0.5l-206 178zM335 425q-33 0 -63 -8.5t-54 -24.5t-41 -39t-24 -52l320 70q-16 21 -50.5 37.5t-87.5 16.5z" />
    <glyph glyph-name="eacute" unicode="&#xe9;" horiz-adv-x="640" 
d="M502 765l-284 -234q53 17 113 17q68 0 121.5 -19.5t90.5 -54.5t57 -83t20 -105l-455 -100q21 -42 67 -62t103 -20q51 0 119.5 27.5t159.5 96.5v-140q-61 -51 -131 -79t-152 -28q-66 0 -123 20.5t-98.5 57.5t-65.5 89.5t-24 116.5q0 93 49.5 160.5t131.5 99.5l-63 76
l274 255zM335 425q-33 0 -63 -8.5t-54 -24.5t-41 -39t-24 -52l320 70q-16 21 -50.5 37.5t-87.5 16.5z" />
    <glyph glyph-name="ecircumflex" unicode="&#xea;" horiz-adv-x="640" 
d="M165 186q21 -42 67 -62t103 -20q51 0 119.5 27.5t159.5 96.5v-140q-61 -51 -131 -79t-152 -28q-66 0 -123 20.5t-98.5 57.5t-65.5 89.5t-24 116.5q0 63 23.5 115t65 89.5t98.5 58t124 20.5q68 0 121.5 -19.5t90.5 -54.5t57 -83t20 -105zM335 425q-33 0 -63 -8.5
t-54 -24.5t-41 -39t-24 -52l320 70q-16 21 -50.5 37.5t-87.5 16.5zM289 802h87l220 -255h-148l-116 127q-27 -31 -58.5 -64.5t-56.5 -62.5h-149z" />
    <glyph glyph-name="edieresis" unicode="&#xeb;" horiz-adv-x="640" 
d="M165 186q21 -42 67 -62t103 -20q51 0 119.5 27.5t159.5 96.5v-140q-61 -51 -131 -79t-152 -28q-66 0 -123 20.5t-98.5 57.5t-65.5 89.5t-24 116.5q0 63 23.5 115t65 89.5t98.5 58t124 20.5q68 0 121.5 -19.5t90.5 -54.5t57 -83t20 -105zM335 425q-33 0 -63 -8.5
t-54 -24.5t-41 -39t-24 -52l320 70q-16 21 -50.5 37.5t-87.5 16.5zM286 656q0 -15 -6.5 -29.5t-17.5 -26t-27 -18.5t-34 -7t-33.5 7t-26.5 18.5t-17.5 26t-6.5 29.5t6.5 30t17.5 26t26.5 18t33.5 7q37 0 61 -25t24 -56zM543 656q0 -15 -6.5 -29.5t-17.5 -26t-26.5 -18.5
t-33.5 -7t-34 7t-27 18.5t-17.5 26t-6.5 29.5q0 31 24 56t61 25q18 0 33.5 -7t26.5 -18t17.5 -26t6.5 -30z" />
    <glyph glyph-name="igrave" unicode="&#xec;" horiz-adv-x="206" 
d="M25 815l246 -240l-69 -80l-33 28v-523h-128v529h121l-227 196z" />
    <glyph glyph-name="iacute" unicode="&#xed;" horiz-adv-x="206" 
d="M41 529h128v-529h-128v529zM285 765l-297 -245l-67 81l274 255z" />
    <glyph glyph-name="icircumflex" unicode="&#xee;" horiz-adv-x="206" 
d="M41 529h128v-529h-128v529zM60 802h87l220 -255h-148l-116 127q-27 -31 -58.5 -64.5t-56.5 -62.5h-149z" />
    <glyph glyph-name="idieresis" unicode="&#xef;" horiz-adv-x="206" 
d="M41 529h128v-529h-128v529zM59 656q0 -15 -6.5 -29.5t-17.5 -26t-27 -18.5t-34 -7t-33.5 7t-26.5 18.5t-17.5 26t-6.5 29.5t6.5 30t17.5 26t26.5 18t33.5 7q37 0 61 -25t24 -56zM316 656q0 -15 -6.5 -29.5t-17.5 -26t-26.5 -18.5t-33.5 -7t-34 7t-27 18.5t-17.5 26
t-6.5 29.5q0 31 24 56t61 25q18 0 33.5 -7t26.5 -18t17.5 -26t6.5 -30z" />
    <glyph glyph-name="eth" unicode="&#xf0;" horiz-adv-x="658" 
d="M638 283q0 -62 -21 -116.5t-61 -96t-97.5 -65.5t-129.5 -24q-71 0 -127.5 20t-97 58.5t-62 95t-21.5 128.5q0 106 54 176.5t146 95.5l-54 17l63 76q-32 7 -71.5 12t-81.5 6v107q74 -3 126.5 -12t98.5 -23l80 98l108 -44l-82 -97q109 -56 169.5 -156t60.5 -256zM329 93
q42 0 75 15t56 41t35 60.5t12 73.5q0 38 -12.5 70t-36 55.5t-56.5 36.5t-73 13q-84 0 -131 -46.5t-47 -128.5q0 -38 10.5 -72.5t32 -60.5t55 -41.5t80.5 -15.5zM300 567q5 1 10 1h10q31 0 55 -4t49 -12q-38 35 -86 59z" />
    <glyph glyph-name="ntilde" unicode="&#xf1;" horiz-adv-x="604" 
d="M516 772q6 -16 11 -44t5 -51q0 -62 -35 -99t-92 -37q-10 0 -15 1q89 -19 141.5 -85t52.5 -165v-292h-129v292q0 61 -35 97t-94 36q-47 0 -94.5 -10t-83.5 -30v-385h-128v433q28 25 64 46.5t76 36.5t82.5 23.5t83.5 8.5q22 0 45 -3q-32 8 -56 27t-43.5 39t-36.5 35.5
t-35 15.5q-20 0 -20 -24q0 -21 31 -97h-120q-9 28 -14 52t-5 43q0 63 35.5 99.5t92.5 36.5q41 0 71.5 -19t54 -42t43 -42t37.5 -19q13 0 13 31q0 12 -5.5 35.5t-16.5 55.5h119v0z" />
    <glyph glyph-name="ograve" unicode="&#xf2;" horiz-adv-x="634" 
d="M239 815l246 -240l-44 -51q39 -16 71 -42t54.5 -59.5t35 -73.5t12.5 -85q0 -62 -22.5 -113.5t-62 -89.5t-94.5 -59t-119 -21q-65 0 -119 21t-93.5 59t-61.5 89.5t-22 113.5q0 61 22 113.5t61.5 90t93.5 59t119 21.5q21 0 41 -3l-208 180zM148 264q0 -35 12.5 -64.5
t35 -50.5t53 -33t67.5 -12t68 12t53.5 33t35 50.5t12.5 64.5t-12.5 64.5t-35 51t-53.5 33.5t-68 12t-67.5 -12t-53 -33.5t-35 -51t-12.5 -64.5z" />
    <glyph glyph-name="oacute" unicode="&#xf3;" horiz-adv-x="634" 
d="M499 765l-280 -231q47 14 97 14q64 0 119 -21.5t94.5 -59t62 -90t22.5 -113.5q0 -62 -22.5 -113.5t-62 -89.5t-94.5 -59t-119 -21q-65 0 -119 21t-93.5 59t-61.5 89.5t-22 113.5q0 93 47.5 162t128.5 100l-61 75l274 255zM148 264q0 -35 12.5 -64.5t35 -50.5t53 -33
t67.5 -12t68 12t53.5 33t35 50.5t12.5 64.5t-12.5 64.5t-35 51t-53.5 33.5t-68 12t-67.5 -12t-53 -33.5t-35 -51t-12.5 -64.5z" />
    <glyph glyph-name="ocircumflex" unicode="&#xf4;" horiz-adv-x="634" 
d="M20 264q0 61 22 113.5t61.5 90t93.5 59t119 21.5q64 0 119 -21.5t94.5 -59t62 -90t22.5 -113.5q0 -62 -22.5 -113.5t-62 -89.5t-94.5 -59t-119 -21q-65 0 -119 21t-93.5 59t-61.5 89.5t-22 113.5zM148 264q0 -35 12.5 -64.5t35 -50.5t53 -33t67.5 -12t68 12t53.5 33
t35 50.5t12.5 64.5t-12.5 64.5t-35 51t-53.5 33.5t-68 12t-67.5 -12t-53 -33.5t-35 -51t-12.5 -64.5zM274 802h87l220 -255h-148l-116 127q-27 -31 -58.5 -64.5t-56.5 -62.5h-149z" />
    <glyph glyph-name="otilde" unicode="&#xf5;" horiz-adv-x="634" 
d="M20 264q0 61 22 113.5t61.5 90t93.5 59t119 21.5q64 0 119 -21.5t94.5 -59t62 -90t22.5 -113.5q0 -62 -22.5 -113.5t-62 -89.5t-94.5 -59t-119 -21q-65 0 -119 21t-93.5 59t-61.5 89.5t-22 113.5zM148 264q0 -35 12.5 -64.5t35 -50.5t53 -33t67.5 -12t68 12t53.5 33
t35 50.5t12.5 64.5t-12.5 64.5t-35 51t-53.5 33.5t-68 12t-67.5 -12t-53 -33.5t-35 -51t-12.5 -64.5zM531 772q6 -16 11 -44t5 -51q0 -62 -35 -99t-92 -37q-41 0 -70.5 19t-52.5 41.5t-42 41.5t-40 19q-20 0 -20 -24q0 -21 31 -97h-120q-9 28 -14 52t-5 43q0 63 35.5 99.5
t92.5 36.5q41 0 71.5 -19t54 -42t43 -42t37.5 -19q13 0 13 31q0 12 -5.5 35.5t-16.5 55.5h119z" />
    <glyph glyph-name="odieresis" unicode="&#xf6;" horiz-adv-x="634" 
d="M20 264q0 61 22 113.5t61.5 90t93.5 59t119 21.5q64 0 119 -21.5t94.5 -59t62 -90t22.5 -113.5q0 -62 -22.5 -113.5t-62 -89.5t-94.5 -59t-119 -21q-65 0 -119 21t-93.5 59t-61.5 89.5t-22 113.5zM148 264q0 -35 12.5 -64.5t35 -50.5t53 -33t67.5 -12t68 12t53.5 33
t35 50.5t12.5 64.5t-12.5 64.5t-35 51t-53.5 33.5t-68 12t-67.5 -12t-53 -33.5t-35 -51t-12.5 -64.5zM273 656q0 -15 -6.5 -29.5t-17.5 -26t-27 -18.5t-34 -7t-33.5 7t-26.5 18.5t-17.5 26t-6.5 29.5t6.5 30t17.5 26t26.5 18t33.5 7q37 0 61 -25t24 -56zM530 656
q0 -15 -6.5 -29.5t-17.5 -26t-26.5 -18.5t-33.5 -7t-34 7t-27 18.5t-17.5 26t-6.5 29.5q0 31 24 56t61 25q18 0 33.5 -7t26.5 -18t17.5 -26t6.5 -30z" />
    <glyph glyph-name="divide" unicode="&#xf7;" horiz-adv-x="628" 
d="M18 299v115h582v-115h-582zM394 170q0 -15 -6.5 -30t-18 -26t-27 -18t-33.5 -7t-33.5 7t-27 18t-18 26t-6.5 30t6.5 29.5t18 26t27 18t33.5 6.5t33.5 -6.5t27 -18t18 -26t6.5 -29.5zM394 545q0 -15 -6.5 -29.5t-18 -26t-27 -18.5t-33.5 -7t-33.5 7t-27 18.5t-18 26
t-6.5 29.5t6.5 30t18 26t27 18t33.5 7t33.5 -7t27 -18t18 -26t6.5 -30z" />
    <glyph glyph-name="oslash" unicode="&#xf8;" horiz-adv-x="634" 
d="M20 264q0 61 22 113.5t61.5 90t93.5 59t119 21.5q35 0 68 -7t62 -19l44 56h148l-96 -124q34 -37 53 -85t19 -105q0 -62 -22.5 -113.5t-62 -89.5t-94.5 -59t-119 -21q-65 0 -123 22l-43 -55h-149l94 121q-35 38 -55 87t-20 108zM148 264q0 -51 27 -92l191 246q-12 3 -24 5
t-26 2q-37 0 -67.5 -12t-53 -33.5t-35 -51t-12.5 -64.5zM485 264q0 24 -6.5 45.5t-17.5 40.5l-187 -242q17 -4 42 -4q37 0 68 12t53.5 33t35 50.5t12.5 64.5z" />
    <glyph glyph-name="ugrave" unicode="&#xf9;" horiz-adv-x="614" 
d="M148 237q0 -66 40.5 -99.5t109.5 -33.5q93 0 167 23v402h129v-450q-24 -21 -57.5 -39t-72 -31t-81 -20.5t-85.5 -7.5q-63 0 -114 17t-87.5 49.5t-56.5 80t-20 109.5v292h128v-292zM229 815l246 -240l-69 -80l-267 230z" />
    <glyph glyph-name="uacute" unicode="&#xfa;" horiz-adv-x="614" 
d="M148 237q0 -66 40.5 -99.5t109.5 -33.5q93 0 167 23v402h129v-450q-24 -21 -57.5 -39t-72 -31t-81 -20.5t-85.5 -7.5q-63 0 -114 17t-87.5 49.5t-56.5 80t-20 109.5v292h128v-292zM489 765l-297 -245l-67 81l274 255z" />
    <glyph glyph-name="ucircumflex" unicode="&#xfb;" horiz-adv-x="614" 
d="M148 237q0 -66 40.5 -99.5t109.5 -33.5q93 0 167 23v402h129v-450q-24 -21 -57.5 -39t-72 -31t-81 -20.5t-85.5 -7.5q-63 0 -114 17t-87.5 49.5t-56.5 80t-20 109.5v292h128v-292zM264 802h87l220 -255h-148l-116 127q-27 -31 -58.5 -64.5t-56.5 -62.5h-149z" />
    <glyph glyph-name="udieresis" unicode="&#xfc;" horiz-adv-x="614" 
d="M148 237q0 -66 40.5 -99.5t109.5 -33.5q93 0 167 23v402h129v-450q-24 -21 -57.5 -39t-72 -31t-81 -20.5t-85.5 -7.5q-63 0 -114 17t-87.5 49.5t-56.5 80t-20 109.5v292h128v-292zM263 656q0 -15 -6.5 -29.5t-17.5 -26t-27 -18.5t-34 -7t-33.5 7t-26.5 18.5t-17.5 26
t-6.5 29.5t6.5 30t17.5 26t26.5 18t33.5 7q37 0 61 -25t24 -56zM520 656q0 -15 -6.5 -29.5t-17.5 -26t-26.5 -18.5t-33.5 -7t-34 7t-27 18.5t-17.5 26t-6.5 29.5q0 31 24 56t61 25q18 0 33.5 -7t26.5 -18t17.5 -26t6.5 -30z" />
    <glyph glyph-name="yacute" unicode="&#xfd;" horiz-adv-x="599" 
d="M451 28q-35 -13 -76 -20.5t-87 -7.5q-129 0 -198.5 66t-69.5 190v273h128v-273q0 -66 35.5 -99.5t104.5 -33.5q49 0 88.5 7.5t74.5 23.5v375h129v-490q0 -59 -21.5 -103.5t-59.5 -74t-89 -44.5t-109 -15q-81 0 -153.5 21.5t-122.5 65.5v131q77 -55 146 -75.5t130 -20.5
q30 0 57.5 6t48 18.5t32.5 31t12 43.5v5zM481 765l-297 -245l-67 81l274 255z" />
    <glyph glyph-name="thorn" unicode="&#xfe;" horiz-adv-x="618" 
d="M20 765h128v-248q73 31 158 31q74 0 131.5 -22t96.5 -60.5t59.5 -90.5t20.5 -111q0 -60 -20.5 -111.5t-59.5 -89.5t-96.5 -60t-131.5 -22q-44 0 -83 8.5t-75 23.5v-249h-128v1001zM485 264q0 33 -11.5 62.5t-34 51t-56 34.5t-77.5 13t-84 -10t-74 -29v-243
q34 -18 74 -28.5t84 -10.5t77.5 12.5t56 34t34 51t11.5 62.5z" />
    <glyph glyph-name="ydieresis" unicode="&#xff;" horiz-adv-x="599" 
d="M451 28q-35 -13 -76 -20.5t-87 -7.5q-129 0 -198.5 66t-69.5 190v273h128v-273q0 -66 35.5 -99.5t104.5 -33.5q49 0 88.5 7.5t74.5 23.5v375h129v-490q0 -59 -21.5 -103.5t-59.5 -74t-89 -44.5t-109 -15q-81 0 -153.5 21.5t-122.5 65.5v131q77 -55 146 -75.5t130 -20.5
q30 0 57.5 6t48 18.5t32.5 31t12 43.5v5zM255 656q0 -15 -6.5 -29.5t-17.5 -26t-27 -18.5t-34 -7t-33.5 7t-26.5 18.5t-17.5 26t-6.5 29.5t6.5 30t17.5 26t26.5 18t33.5 7q37 0 61 -25t24 -56zM512 656q0 -15 -6.5 -29.5t-17.5 -26t-26.5 -18.5t-33.5 -7t-34 7t-27 18.5
t-17.5 26t-6.5 29.5q0 31 24 56t61 25q18 0 33.5 -7t26.5 -18t17.5 -26t6.5 -30z" />
    <glyph glyph-name="Amacron" unicode="&#x100;" horiz-adv-x="782" 
d="M331 737h120l326 -737h-145l-68 155h-352q-14 -36 -33.5 -78t-34.5 -77h-140zM262 269h253q-17 40 -32 73t-29.5 66t-30.5 68.5t-35 79.5zM167 787v111h447v-111h-447z" />
    <glyph glyph-name="amacron" unicode="&#x101;" horiz-adv-x="604" 
d="M584 97q-57 -52 -129.5 -84t-156.5 -32q-58 0 -109 12t-88.5 36t-59 60.5t-21.5 85.5q0 51 21 88.5t56.5 61.5t82.5 35.5t99 11.5q56 0 100 -8.5t76 -22.5v12q0 29 -31.5 50.5t-97.5 21.5q-62 0 -127 -16t-139 -60v131q57 33 120 50.5t146 17.5q58 0 105.5 -15t81.5 -45
t52.5 -74.5t18.5 -102.5v-214zM148 175q0 -19 12 -32.5t33 -22t48 -12.5t57 -4q44 0 83.5 10.5t73.5 28.5v73q-47 20 -90.5 29t-81.5 9q-59 0 -97 -20.5t-38 -58.5zM78 587v111h447v-111h-447z" />
    <glyph glyph-name="Abreve" unicode="&#x102;" horiz-adv-x="782" 
d="M617 983q11 -19 14 -41.5t3 -41.5q0 -69 -44.5 -111t-138.5 -53l326 -736h-145l-68 155h-352q-14 -36 -33.5 -78t-34.5 -77h-140l326 736q-90 10 -136 50.5t-46 107.5q0 18 5.5 40.5t13.5 48.5h125q-8 -29 -12 -48t-4 -27q0 -62 113 -62q64 0 91.5 16.5t27.5 50.5
q0 8 -2.5 24t-10.5 46h122zM262 269h253q-17 40 -32 73t-29.5 66t-30.5 68.5t-35 79.5z" />
    <glyph glyph-name="abreve" unicode="&#x103;" horiz-adv-x="604" 
d="M538 783q11 -19 14 -41.5t3 -41.5q0 -63 -37.5 -104t-115.5 -56q85 -17 133.5 -74.5t48.5 -154.5v-214q-57 -52 -129.5 -84t-156.5 -32q-58 0 -109 12t-88.5 36t-59 60.5t-21.5 85.5q0 51 21 88.5t56.5 61.5t82.5 35.5t99 11.5q56 0 100 -8.5t76 -22.5v12
q0 29 -31.5 50.5t-97.5 21.5q-62 0 -127 -16t-139 -60v131q38 22 77.5 37t86.5 23q-77 14 -116 53t-39 101q0 18 5.5 40.5t13.5 48.5h125q-8 -29 -12 -48t-4 -27q0 -62 113 -62q64 0 91.5 16.5t27.5 50.5q0 8 -2.5 24t-10.5 46h122zM148 175q0 -19 12 -32.5t33 -22t48 -12.5
t57 -4q44 0 83.5 10.5t73.5 28.5v73q-47 20 -90.5 29t-81.5 9q-59 0 -97 -20.5t-38 -58.5z" />
    <glyph glyph-name="Aogonek" unicode="&#x104;" horiz-adv-x="782" 
d="M521 -191q0 -18 23.5 -29t62.5 -11q24 0 60 8t86 25v-109q-51 -17 -93 -24.5t-75 -7.5q-87 0 -140 37t-53 102q0 46 21.5 73t55.5 46.5t76.5 37.5t84.5 47l-66 151h-352q-14 -36 -33.5 -78t-34.5 -77h-140l327 737h120l326 -737q-53 -57 -99.5 -87t-81.5 -47t-55 -27.5
t-20 -29.5zM262 269h253q-17 40 -32 73t-29.5 66t-30.5 68.5t-35 79.5z" />
    <glyph glyph-name="aogonek" unicode="&#x105;" horiz-adv-x="604" 
d="M288 -112q0 -18 23.5 -29t62.5 -11q24 0 60 8t86 25v-109q-51 -17 -93 -24.5t-75 -7.5q-87 0 -140 37t-53 102q0 40 16 65.5t42 43.5q-43 7 -79 22t-62.5 38t-41 55t-14.5 72q0 51 21 88.5t56.5 61.5t82.5 35.5t99 11.5q56 0 100 -8.5t76 -22.5v12q0 29 -31.5 50.5
t-97.5 21.5q-62 0 -127 -16t-139 -60v131q57 33 120 50.5t146 17.5q58 0 105.5 -15t81.5 -45t52.5 -74.5t18.5 -102.5v-214q-20 -17 -40.5 -32.5t-43.5 -28.5q-45 -41 -84 -62.5t-67.5 -35t-44.5 -23.5t-16 -27zM148 175q0 -19 12 -32.5t33 -22t48 -12.5t57 -4
q44 0 83.5 10.5t73.5 28.5v73q-47 20 -90.5 29t-81.5 9q-59 0 -97 -20.5t-38 -58.5z" />
    <glyph glyph-name="Cacute" unicode="&#x106;" horiz-adv-x="710" 
d="M598 965l-254 -210q8 1 16.5 1.5t17.5 0.5q69 0 124 -23.5t95.5 -60t65 -82t31.5 -89.5h-131q-7 27 -23 53t-39.5 46t-54 32t-66.5 12q-54 0 -96 -23t-71 -62t-44.5 -91t-15.5 -110q0 -56 14.5 -104.5t42 -84.5t68.5 -56.5t95 -20.5q34 0 63 10.5t52.5 29t41 43
t28.5 52.5h131q-14 -48 -41.5 -92.5t-67.5 -79t-92 -55t-116 -20.5q-81 0 -146 28.5t-110.5 78.5t-70 119.5t-24.5 151.5q0 70 18 133t51.5 113.5t82 86t108.5 52.5l-47 57l274 255z" />
    <glyph glyph-name="cacute" unicode="&#x107;" horiz-adv-x="604" 
d="M538 765l-266 -219q10 1 19.5 1.5t19.5 0.5q82 0 146.5 -22.5t126.5 -75.5v-139q-47 34 -85 56.5t-70.5 35t-60 17.5t-52.5 5q-36 0 -67 -11t-53.5 -32t-35 -50.5t-12.5 -66.5q0 -38 12.5 -68t35 -50.5t53.5 -31.5t67 -11q25 0 52.5 5t60 17.5t70.5 34.5t85 57v-139
q-62 -53 -126.5 -75.5t-146.5 -22.5q-65 0 -119 21t-92 58.5t-59 89.5t-21 115q0 52 14.5 96.5t41.5 79.5t65 60t85 37l-52 63l274 255z" />
    <glyph glyph-name="Ccircumflex" unicode="&#x108;" horiz-adv-x="710" 
d="M689 228q-14 -48 -41.5 -92.5t-67.5 -79t-92 -55t-116 -20.5q-81 0 -146 28.5t-110.5 78.5t-70 119.5t-24.5 151.5q0 84 25.5 156.5t72 126.5t112.5 84.5t147 30.5q69 0 124 -23.5t95.5 -60t65 -82t31.5 -89.5h-131q-7 27 -23 53t-39.5 46t-54 32t-66.5 12q-54 0 -96 -23
t-71 -62t-44.5 -91t-15.5 -110q0 -56 14.5 -104.5t42 -84.5t68.5 -56.5t95 -20.5q34 0 63 10.5t52.5 29t41 43t28.5 52.5h131zM344 1015h87l220 -255h-148l-116 127q-27 -31 -58.5 -64.5t-56.5 -62.5h-149z" />
    <glyph glyph-name="ccircumflex" unicode="&#x109;" horiz-adv-x="604" 
d="M148 265q0 -38 12.5 -68t35 -50.5t53.5 -31.5t67 -11q25 0 52.5 5t60 17.5t70.5 34.5t85 57v-139q-62 -53 -126.5 -75.5t-146.5 -22.5q-65 0 -119 21t-92 58.5t-59 89.5t-21 115t21 115t59 89.5t92 58t119 20.5q82 0 146.5 -22.5t126.5 -75.5v-139q-47 34 -85 56.5
t-70.5 35t-60 17.5t-52.5 5q-36 0 -67 -11t-53.5 -32t-35 -50.5t-12.5 -66.5zM280 802h87l220 -255h-148l-116 127q-27 -31 -58.5 -64.5t-56.5 -62.5h-149z" />
    <glyph glyph-name="Cdotaccent" unicode="&#x10a;" horiz-adv-x="710" 
d="M689 228q-14 -48 -41.5 -92.5t-67.5 -79t-92 -55t-116 -20.5q-81 0 -146 28.5t-110.5 78.5t-70 119.5t-24.5 151.5q0 84 25.5 156.5t72 126.5t112.5 84.5t147 30.5q69 0 124 -23.5t95.5 -60t65 -82t31.5 -89.5h-131q-7 27 -23 53t-39.5 46t-54 32t-66.5 12q-54 0 -96 -23
t-71 -62t-44.5 -91t-15.5 -110q0 -56 14.5 -104.5t42 -84.5t68.5 -56.5t95 -20.5q34 0 63 10.5t52.5 29t41 43t28.5 52.5h131zM455 866q0 -15 -6.5 -29.5t-18 -26t-27 -18.5t-33.5 -7t-33.5 7t-27 18.5t-18 26t-6.5 29.5t6.5 30t18 26t27 18t33.5 7t33.5 -7t27 -18t18 -26
t6.5 -30z" />
    <glyph glyph-name="cdotaccent" unicode="&#x10b;" horiz-adv-x="604" 
d="M148 265q0 -38 12.5 -68t35 -50.5t53.5 -31.5t67 -11q25 0 52.5 5t60 17.5t70.5 34.5t85 57v-139q-62 -53 -126.5 -75.5t-146.5 -22.5q-65 0 -119 21t-92 58.5t-59 89.5t-21 115t21 115t59 89.5t92 58t119 20.5q82 0 146.5 -22.5t126.5 -75.5v-139q-47 34 -85 56.5
t-70.5 35t-60 17.5t-52.5 5q-36 0 -67 -11t-53.5 -32t-35 -50.5t-12.5 -66.5zM411 696q0 -15 -6.5 -29.5t-18 -26t-27 -18.5t-33.5 -7t-33.5 7t-27 18.5t-18 26t-6.5 29.5t6.5 30t18 26t27 18t33.5 7t33.5 -7t27 -18t18 -26t6.5 -30z" />
    <glyph glyph-name="Ccaron" unicode="&#x10c;" horiz-adv-x="710" 
d="M442 751q55 -11 99 -36.5t76 -60t51.5 -74.5t25.5 -78h-131q-7 27 -23 53t-39.5 46t-54 32t-66.5 12q-54 0 -96 -23t-71 -62t-44.5 -91t-15.5 -110q0 -56 14.5 -104.5t42 -84.5t68.5 -56.5t95 -20.5q34 0 63 10.5t52.5 29t41 43t28.5 52.5h131q-14 -48 -41.5 -92.5
t-67.5 -79t-92 -55t-116 -20.5q-81 0 -146 28.5t-110.5 78.5t-70 119.5t-24.5 151.5q0 78 21.5 146t62 120.5t98 86t128.5 42.5l-206 239h148l115 -127q27 31 59 64.5t57 62.5h148z" />
    <glyph glyph-name="ccaron" unicode="&#x10d;" horiz-adv-x="604" 
d="M372 544q60 -7 111 -29.5t101 -64.5v-139q-47 34 -85 56.5t-70.5 35t-60 17.5t-52.5 5q-36 0 -67 -11t-53.5 -32t-35 -50.5t-12.5 -66.5q0 -38 12.5 -68t35 -50.5t53.5 -31.5t67 -11q25 0 52.5 5t60 17.5t70.5 34.5t85 57v-139q-62 -53 -126.5 -75.5t-146.5 -22.5
q-65 0 -119 21t-92 58.5t-59 89.5t-21 115q0 58 18 107t51 85.5t80 59.5t105 29l-213 247h148l115 -127q27 31 59 64.5t57 62.5h148z" />
    <glyph glyph-name="Dcaron" unicode="&#x10e;" horiz-adv-x="680" 
d="M310 737q82 0 147 -25.5t110 -73t68.5 -115.5t23.5 -154t-25 -154.5t-70 -116t-109 -73t-142 -25.5h-292v737h289zM315 112q47 0 86.5 17t68 49.5t44 80.5t15.5 110q0 130 -60 193t-159 63h-157v-513h162zM382 738h-86l-220 255h148l115 -127q27 31 59 64.5t57 62.5h148z
" />
    <glyph glyph-name="dcaron" unicode="&#x10f;" horiz-adv-x="905" 
d="M624 79q-46 -47 -115 -72.5t-163 -25.5q-66 0 -125.5 21.5t-104 60.5t-70.5 92.5t-26 117.5q0 60 26 110t69.5 87t101.5 57.5t121 20.5q84 0 157 -31v248h129v-686zM148 273q0 -37 15 -68t42 -53.5t63 -35t78 -12.5t78 6t71 19v257q-34 19 -73.5 29t-83.5 10
q-36 0 -70 -11.5t-61 -32t-43 -48t-16 -60.5zM755 721h136l-112 -354h-121z" />
    <glyph glyph-name="Dcroat" unicode="&#x110;" horiz-adv-x="680" 
d="M310 737q82 0 147 -25.5t110 -73t68.5 -115.5t23.5 -154t-25 -154.5t-70 -116t-109 -73t-142 -25.5h-292v366h-48v111h48v260h289zM153 366v-254h162q47 0 86.5 17t68 49.5t44 80.5t15.5 110q0 130 -60 193t-159 63h-157v-148h267v-111h-267z" />
    <glyph glyph-name="dcroat" unicode="&#x111;" horiz-adv-x="643" 
d="M624 592v-513q-46 -47 -115 -72.5t-163 -25.5q-66 0 -125.5 21.5t-104 60.5t-70.5 92.5t-26 117.5q0 60 26 110t69.5 87t101.5 57.5t121 20.5q84 0 157 -31v75h-324v120h324v53h129v-53h56v-120h-56zM148 273q0 -37 15 -68t42 -53.5t63 -35t78 -12.5t78 6t71 19v257
q-34 19 -73.5 29t-83.5 10q-36 0 -70 -11.5t-61 -32t-43 -48t-16 -60.5z" />
    <glyph glyph-name="Emacron" unicode="&#x112;" horiz-adv-x="615" 
d="M594 0h-573v737h563v-112h-431v-183h382v-113h-382v-217h441v-112zM84 787v111h447v-111h-447z" />
    <glyph glyph-name="emacron" unicode="&#x113;" horiz-adv-x="640" 
d="M165 186q21 -42 67 -62t103 -20q51 0 119.5 27.5t159.5 96.5v-140q-61 -51 -131 -79t-152 -28q-66 0 -123 20.5t-98.5 57.5t-65.5 89.5t-24 116.5q0 63 23.5 115t65 89.5t98.5 58t124 20.5q68 0 121.5 -19.5t90.5 -54.5t57 -83t20 -105zM335 425q-33 0 -63 -8.5
t-54 -24.5t-41 -39t-24 -52l320 70q-16 21 -50.5 37.5t-87.5 16.5zM96 587v111h447v-111h-447z" />
    <glyph glyph-name="Edotaccent" unicode="&#x116;" horiz-adv-x="615" 
d="M594 0h-573v737h563v-112h-431v-183h382v-113h-382v-217h441v-112zM392 896q0 -15 -6.5 -29.5t-18 -26t-27 -18.5t-33.5 -7t-33.5 7t-27 18.5t-18 26t-6.5 29.5t6.5 30t18 26t27 18t33.5 7t33.5 -7t27 -18t18 -26t6.5 -30z" />
    <glyph glyph-name="edotaccent" unicode="&#x117;" horiz-adv-x="640" 
d="M165 186q21 -42 67 -62t103 -20q51 0 119.5 27.5t159.5 96.5v-140q-61 -51 -131 -79t-152 -28q-66 0 -123 20.5t-98.5 57.5t-65.5 89.5t-24 116.5q0 63 23.5 115t65 89.5t98.5 58t124 20.5q68 0 121.5 -19.5t90.5 -54.5t57 -83t20 -105zM335 425q-33 0 -63 -8.5
t-54 -24.5t-41 -39t-24 -52l320 70q-16 21 -50.5 37.5t-87.5 16.5zM405 696q0 -15 -6.5 -29.5t-18 -26t-27 -18.5t-33.5 -7t-33.5 7t-27 18.5t-18 26t-6.5 29.5t6.5 30t18 26t27 18t33.5 7t33.5 -7t27 -18t18 -26t6.5 -30z" />
    <glyph glyph-name="Eogonek" unicode="&#x118;" horiz-adv-x="615" 
d="M189 -154q0 -18 23.5 -29t62.5 -11q24 0 60 8t86 25v-109q-51 -17 -93 -24.5t-75 -7.5q-87 0 -140 37t-53 102q0 37 13.5 61t36 41t52.5 31t63 30h-204v737h563v-112h-431v-183h382v-113h-382v-217h441v-112h-186q-47 -43 -87 -66t-69 -36.5t-46 -24t-17 -27.5z" />
    <glyph glyph-name="eogonek" unicode="&#x119;" horiz-adv-x="640" 
d="M318 -116q0 -18 23.5 -29t62.5 -11q24 0 60 8t86 25v-109q-51 -17 -93 -24.5t-75 -7.5q-87 0 -140 37t-53 102q0 43 18.5 69t47.5 45q-51 10 -94.5 34t-74.5 59.5t-48.5 81.5t-17.5 101q0 63 23.5 115t65 89.5t98.5 58t124 20.5q68 0 121.5 -19.5t90.5 -54.5t57 -83
t20 -105l-455 -100q21 -42 67 -62t103 -20q51 0 119.5 27.5t159.5 96.5v-140q-43 -37 -88 -60q-44 -39 -82 -60t-66 -34.5t-44 -23.5t-16 -26zM335 425q-33 0 -63 -8.5t-54 -24.5t-41 -39t-24 -52l320 70q-16 21 -50.5 37.5t-87.5 16.5z" />
    <glyph glyph-name="Ecaron" unicode="&#x11a;" horiz-adv-x="615" 
d="M594 0h-573v737h563v-112h-431v-183h382v-113h-382v-217h441v-112zM350 738h-86l-220 255h148l115 -127q27 31 59 64.5t57 62.5h148z" />
    <glyph glyph-name="ecaron" unicode="&#x11b;" horiz-adv-x="640" 
d="M369 546q59 -6 105.5 -27.5t79 -55.5t49.5 -79t17 -98l-455 -100q21 -42 67 -62t103 -20q51 0 119.5 27.5t159.5 96.5v-140q-61 -51 -131 -79t-152 -28q-66 0 -123 20.5t-98.5 57.5t-65.5 89.5t-24 116.5q0 55 18.5 102.5t52 83.5t79.5 59.5t101 32.5l-215 250h148
l115 -127q27 31 59 64.5t57 62.5h148zM335 425q-33 0 -63 -8.5t-54 -24.5t-41 -39t-24 -52l320 70q-16 21 -50.5 37.5t-87.5 16.5z" />
    <glyph glyph-name="Gcircumflex" unicode="&#x11c;" horiz-adv-x="708" 
d="M682 0h-117v50q-37 -30 -89 -49.5t-118 -19.5q-72 0 -133.5 25.5t-106.5 74t-71 119t-26 159.5q0 91 27 164.5t74 125t112 79.5t140 28q60 0 113 -18.5t94.5 -51.5t70.5 -79.5t43 -101.5h-133q-20 66 -72.5 102.5t-118.5 36.5q-45 0 -84.5 -20t-69.5 -56.5t-47 -89.5
t-17 -119q0 -60 15 -109.5t42.5 -84t66.5 -53.5t88 -19q40 0 74 12.5t59 33.5t38.5 48t13.5 56v42h-223v111h355v-396zM333 1017h87l220 -255h-148l-116 127q-27 -31 -58.5 -64.5t-56.5 -62.5h-149z" />
    <glyph glyph-name="gcircumflex" unicode="&#x11d;" horiz-adv-x="634" 
d="M485 31q-74 -31 -157 -31q-65 0 -121 20.5t-97.5 56.5t-65.5 86t-24 110t24 110t65.5 87t97.5 57.5t121 20.5q84 0 156.5 -32t129.5 -83v-394q0 -59 -22 -103.5t-59.5 -74t-88.5 -44.5t-109 -15q-82 0 -154.5 21.5t-121.5 65.5v131q77 -55 145.5 -75.5t130.5 -20.5
q30 0 57.5 6t48 18t32.5 28.5t12 37.5v17zM148 273q0 -33 14.5 -60.5t39 -47.5t57 -31t69.5 -11q44 0 83.5 10.5t73.5 28.5v224q-34 19 -73.5 29t-83.5 10q-37 0 -69.5 -11.5t-57 -32t-39 -48t-14.5 -60.5zM289 806h87l220 -255h-148l-116 127q-27 -31 -58.5 -64.5
t-56.5 -62.5h-149z" />
    <glyph glyph-name="Gbreve" unicode="&#x11e;" horiz-adv-x="708" 
d="M580 983q11 -19 14 -41.5t3 -41.5q0 -60 -33 -99t-101 -56q88 -23 149 -87t83 -153h-133q-20 66 -72.5 102.5t-118.5 36.5q-45 0 -84.5 -20t-69.5 -56.5t-47 -89.5t-17 -119q0 -60 15 -109.5t42.5 -84t66.5 -53.5t88 -19q40 0 74 12.5t59 33.5t38.5 48t13.5 56v42h-223
v111h355v-396h-117v50q-37 -30 -89 -49.5t-118 -19.5q-72 0 -133.5 25.5t-106.5 74t-71 119t-26 159.5q0 74 18 136.5t50 111t77.5 82.5t99.5 51q-77 14 -116 53t-39 101q0 18 5.5 40.5t13.5 48.5h125q-8 -29 -12 -48t-4 -27q0 -62 113 -62q64 0 91.5 16.5t27.5 50.5
q0 8 -2.5 24t-10.5 46h122v0z" />
    <glyph glyph-name="gbreve" unicode="&#x11f;" horiz-adv-x="634" 
d="M543 783q11 -19 14 -41.5t3 -41.5q0 -64 -38.5 -105t-116.5 -55q60 -12 112.5 -40t96.5 -67v-394q0 -59 -22 -103.5t-59.5 -74t-88.5 -44.5t-109 -15q-82 0 -154.5 21.5t-121.5 65.5v131q77 -55 145.5 -75.5t130.5 -20.5q30 0 57.5 6t48 18t32.5 28.5t12 37.5v17
q-74 -31 -157 -31q-65 0 -121 20.5t-97.5 56.5t-65.5 86t-24 110q0 49 16.5 92.5t46 78t70.5 58.5t90 36q-84 12 -126.5 52t-42.5 104q0 18 5.5 40.5t13.5 48.5h125q-8 -29 -12 -48t-4 -27q0 -62 113 -62q64 0 91.5 16.5t27.5 50.5q0 8 -2.5 24t-10.5 46h122zM148 273
q0 -33 14.5 -60.5t39 -47.5t57 -31t69.5 -11q44 0 83.5 10.5t73.5 28.5v224q-34 19 -73.5 29t-83.5 10q-37 0 -69.5 -11.5t-57 -32t-39 -48t-14.5 -60.5z" />
    <glyph glyph-name="Gdotaccent" unicode="&#x120;" horiz-adv-x="708" 
d="M682 0h-117v50q-37 -30 -89 -49.5t-118 -19.5q-72 0 -133.5 25.5t-106.5 74t-71 119t-26 159.5q0 91 27 164.5t74 125t112 79.5t140 28q60 0 113 -18.5t94.5 -51.5t70.5 -79.5t43 -101.5h-133q-20 66 -72.5 102.5t-118.5 36.5q-45 0 -84.5 -20t-69.5 -56.5t-47 -89.5
t-17 -119q0 -60 15 -109.5t42.5 -84t66.5 -53.5t88 -19q40 0 74 12.5t59 33.5t38.5 48t13.5 56v42h-223v111h355v-396zM475 878q0 -15 -6.5 -29.5t-18 -26t-27 -18.5t-33.5 -7t-33.5 7t-27 18.5t-18 26t-6.5 29.5t6.5 30t18 26t27 18t33.5 7t33.5 -7t27 -18t18 -26t6.5 -30z
" />
    <glyph glyph-name="gdotaccent" unicode="&#x121;" horiz-adv-x="634" 
d="M485 31q-74 -31 -157 -31q-65 0 -121 20.5t-97.5 56.5t-65.5 86t-24 110t24 110t65.5 87t97.5 57.5t121 20.5q84 0 156.5 -32t129.5 -83v-394q0 -59 -22 -103.5t-59.5 -74t-88.5 -44.5t-109 -15q-82 0 -154.5 21.5t-121.5 65.5v131q77 -55 145.5 -75.5t130.5 -20.5
q30 0 57.5 6t48 18t32.5 28.5t12 37.5v17zM148 273q0 -33 14.5 -60.5t39 -47.5t57 -31t69.5 -11q44 0 83.5 10.5t73.5 28.5v224q-34 19 -73.5 29t-83.5 10q-37 0 -69.5 -11.5t-57 -32t-39 -48t-14.5 -60.5zM422 683q0 -15 -6.5 -29.5t-18 -26t-27 -18.5t-33.5 -7t-33.5 7
t-27 18.5t-18 26t-6.5 29.5t6.5 30t18 26t27 18t33.5 7t33.5 -7t27 -18t18 -26t6.5 -30z" />
    <glyph glyph-name="uni0122" unicode="&#x122;" horiz-adv-x="708" 
d="M682 0h-117v50q-37 -30 -89 -49.5t-118 -19.5q-72 0 -133.5 25.5t-106.5 74t-71 119t-26 159.5q0 91 27 164.5t74 125t112 79.5t140 28q60 0 113 -18.5t94.5 -51.5t70.5 -79.5t43 -101.5h-133q-20 66 -72.5 102.5t-118.5 36.5q-45 0 -84.5 -20t-69.5 -56.5t-47 -89.5
t-17 -119q0 -60 15 -109.5t42.5 -84t66.5 -53.5t88 -19q40 0 74 12.5t59 33.5t38.5 48t13.5 56v42h-223v111h355v-396zM296 -47h132l-103 -308h-116z" />
    <glyph glyph-name="uni0123" unicode="&#x123;" horiz-adv-x="634" 
d="M485 31q-74 -31 -157 -31q-65 0 -121 20.5t-97.5 56.5t-65.5 86t-24 110t24 110t65.5 87t97.5 57.5t121 20.5q84 0 156.5 -32t129.5 -83v-394q0 -59 -22 -103.5t-59.5 -74t-88.5 -44.5t-109 -15q-82 0 -154.5 21.5t-121.5 65.5v131q77 -55 145.5 -75.5t130.5 -20.5
q30 0 57.5 6t48 18t32.5 28.5t12 37.5v17zM148 273q0 -33 14.5 -60.5t39 -47.5t57 -31t69.5 -11q44 0 83.5 10.5t73.5 28.5v224q-34 19 -73.5 29t-83.5 10q-37 0 -69.5 -11.5t-57 -32t-39 -48t-14.5 -60.5zM387 566h-132l103 308h116z" />
    <glyph glyph-name="Hcircumflex" unicode="&#x124;" 
d="M648 0h-132v303h-363v-303h-132v737h132v-322h363v322h132v-737zM291 1002h87l220 -255h-148l-116 127q-27 -31 -58.5 -64.5t-56.5 -62.5h-149z" />
    <glyph glyph-name="hcircumflex" unicode="&#x125;" horiz-adv-x="614" 
d="M20 765h128v-252q42 16 90.5 25.5t92.5 9.5q60 0 108.5 -18.5t83 -52t53 -80.5t18.5 -105v-292h-129v292q0 61 -36 97t-98 36q-45 0 -95.5 -12t-87.5 -31v-382h-128v765zM236 1044h87l220 -255h-148l-116 127q-27 -31 -58.5 -64.5t-56.5 -62.5h-149z" />
    <glyph glyph-name="Hbar" unicode="&#x126;" 
d="M648 0h-132v303h-363v-303h-132v737h132v-146h363v146h132v-737zM516 415v65h-363v-65h363z" />
    <glyph glyph-name="hbar" unicode="&#x127;" horiz-adv-x="614" 
d="M148 607v-94q42 16 90.5 25.5t92.5 9.5q60 0 108.5 -18.5t83 -52t53 -80.5t18.5 -105v-292h-129v292q0 61 -36 97t-98 36q-45 0 -95.5 -12t-87.5 -31v-382h-128v607h-37v111h37v47h128v-47h282v-111h-282z" />
    <glyph glyph-name="Itilde" unicode="&#x128;" horiz-adv-x="173" 
d="M153 0h-132v737h132v-737zM301 972q6 -16 11 -44t5 -51q0 -62 -35 -99t-92 -37q-41 0 -70.5 19t-52.5 41.5t-42 41.5t-40 19q-20 0 -20 -24q0 -21 31 -97h-120q-9 28 -14 52t-5 43q0 63 35.5 99.5t92.5 36.5q41 0 71.5 -19t54 -42t43 -42t37.5 -19q13 0 13 31
q0 12 -5.5 35.5t-16.5 55.5h119z" />
    <glyph glyph-name="itilde" unicode="&#x129;" horiz-adv-x="206" 
d="M41 529h128v-529h-128v529zM317 772q6 -16 11 -44t5 -51q0 -62 -35 -99t-92 -37q-41 0 -70.5 19t-52.5 41.5t-42 41.5t-40 19q-20 0 -20 -24q0 -21 31 -97h-120q-9 28 -14 52t-5 43q0 63 35.5 99.5t92.5 36.5q41 0 71.5 -19t54 -42t43 -42t37.5 -19q13 0 13 31
q0 12 -5.5 35.5t-16.5 55.5h119z" />
    <glyph glyph-name="Imacron" unicode="&#x12a;" horiz-adv-x="173" 
d="M153 0h-132v737h132v-737zM-137 787v111h447v-111h-447z" />
    <glyph glyph-name="imacron" unicode="&#x12b;" horiz-adv-x="206" 
d="M41 529h128v-529h-128v529zM-120 587v111h447v-111h-447z" />
    <glyph glyph-name="Iogonek" unicode="&#x12e;" horiz-adv-x="173" 
d="M-103 -191q0 -18 23.5 -29t62.5 -11q24 0 60 8t86 25v-109q-51 -17 -93 -24.5t-75 -7.5q-87 0 -140 37t-53 102q0 49 23 76t60 47t81.5 39.5t88.5 52.5v722h132v-737q-53 -57 -99.5 -87t-81.5 -47t-55 -27.5t-20 -29.5z" />
    <glyph glyph-name="iogonek" unicode="&#x12f;" horiz-adv-x="206" 
d="M-87 -191q0 -18 23.5 -29t62.5 -11q24 0 60 8t86 25v-109q-51 -17 -93 -24.5t-75 -7.5q-87 0 -140 37t-53 102q0 49 23.5 76.5t61 47.5t83 40t89.5 54v511h128v-529q-53 -57 -99.5 -87t-81.5 -47t-55 -27.5t-20 -29.5zM20 626q0 33 24 56t59 23t59 -23t24 -56
q0 -34 -24 -57t-59 -23t-59 23t-24 57z" />
    <glyph glyph-name="Idotaccent" unicode="&#x130;" horiz-adv-x="173" 
d="M153 0h-132v737h132v-737zM172 896q0 -15 -6.5 -29.5t-18 -26t-27 -18.5t-33.5 -7t-33.5 7t-27 18.5t-18 26t-6.5 29.5t6.5 30t18 26t27 18t33.5 7t33.5 -7t27 -18t18 -26t6.5 -30z" />
    <glyph glyph-name="dotlessi" unicode="&#x131;" horiz-adv-x="206" 
d="M41 529h128v-529h-128v529z" />
    <glyph glyph-name="Jcircumflex" unicode="&#x134;" horiz-adv-x="535" 
d="M514 737v-489q0 -128 -74 -197.5t-208 -69.5q-27 0 -57 4.5t-59.5 12t-55 18t-42.5 21.5l26 122q19 -14 41.5 -26t46.5 -21t47 -14t43 -5q79 0 119.5 42.5t40.5 112.5v489h132zM324 1022h87l220 -255h-148l-116 127q-27 -31 -58.5 -64.5t-56.5 -62.5h-149z" />
    <glyph glyph-name="jcircumflex" unicode="&#x135;" horiz-adv-x="212" 
d="M-68 -117q48 -8 80 10.5t32 71.5v564h129v-556q0 -120 -62 -168t-170 -37zM63 802h87l220 -255h-148l-116 127q-27 -31 -58.5 -64.5t-56.5 -62.5h-149z" />
    <glyph glyph-name="uni0136" unicode="&#x136;" horiz-adv-x="696" 
d="M153 737v-333l360 333h187l-389 -350l406 -387h-179l-320 303l-65 -60v-243h-132v737h132zM282 -36h132l-103 -308h-116z" />
    <glyph glyph-name="uni0137" unicode="&#x137;" horiz-adv-x="614" 
d="M301 194q-34 -8 -68 -14.5t-85 -14.5v-165h-128v765h128v-484q89 16 148 31.5t94.5 36t50 47.5t14.5 68v65h129v-65q0 -48 -7.5 -83.5t-24.5 -62.5t-45.5 -47t-71.5 -36l190 -235h-167zM232 -36h132l-103 -308h-116z" />
    <glyph glyph-name="kgreenlandic" unicode="&#x138;" horiz-adv-x="614" 
d="M301 194q-34 -8 -68 -14.5t-85 -14.5v-165h-128v529h128v-248q89 16 148 31.5t94.5 36t50 47.5t14.5 68v65h129v-65q0 -48 -7.5 -83.5t-24.5 -62.5t-45.5 -47t-71.5 -36l190 -235h-167z" />
    <glyph glyph-name="Lacute" unicode="&#x139;" horiz-adv-x="608" 
d="M588 0h-567v737h132v-625h435v-112zM486 965l-297 -245l-67 81l274 255z" />
    <glyph glyph-name="lacute" unicode="&#x13a;" horiz-adv-x="168" 
d="M292 955l-230 -190h86v-765h-128v730l-25 -20l-67 81l274 255z" />
    <glyph glyph-name="uni013B" unicode="&#x13b;" horiz-adv-x="608" 
d="M588 0h-567v737h132v-625h435v-112zM282 -36h132l-103 -308h-116z" />
    <glyph glyph-name="uni013C" unicode="&#x13c;" horiz-adv-x="168" 
d="M20 765h128v-765h-128v765zM22 -36h132l-103 -308h-116z" />
    <glyph glyph-name="Lcaron" unicode="&#x13d;" horiz-adv-x="608" 
d="M588 0h-567v737h132v-625h435v-112zM395 761h136l-112 -354h-121z" />
    <glyph glyph-name="lcaron" unicode="&#x13e;" horiz-adv-x="430" 
d="M20 765h128v-765h-128v765zM280 721h136l-112 -354h-121z" />
    <glyph glyph-name="Lslash" unicode="&#x141;" horiz-adv-x="608" 
d="M588 0h-567v247l-74 -34v120l74 34v370h132v-309l228 105v-120l-228 -105v-196h435v-112z" />
    <glyph glyph-name="lslash" unicode="&#x142;" horiz-adv-x="168" 
d="M20 539l-83 -26v120l83 26v106h128v-65l103 33v-120l-103 -33v-580h-128v539z" />
    <glyph glyph-name="Nacute" unicode="&#x143;" 
d="M21 737h120l376 -502v502h131v-737h-112l-384 511v-511h-131v737zM516 965l-297 -245l-67 81l274 255z" />
    <glyph glyph-name="nacute" unicode="&#x144;" horiz-adv-x="604" 
d="M484 765l-287 -237q65 20 129 20q58 0 105.5 -18.5t81.5 -52t52.5 -80.5t18.5 -105v-292h-129v292q0 61 -35 97t-94 36q-47 0 -94.5 -10t-83.5 -30v-385h-128v433q32 29 74 52t89 39l-63 77l274 255z" />
    <glyph glyph-name="uni0145" unicode="&#x145;" 
d="M21 737h120l376 -502v502h131v-737h-112l-384 511v-511h-131v737zM282 -36h132l-103 -308h-116z" />
    <glyph glyph-name="uni0146" unicode="&#x146;" horiz-adv-x="604" 
d="M455 292q0 61 -35 97t-94 36q-47 0 -94.5 -10t-83.5 -30v-385h-128v433q28 25 64 46.5t76 36.5t82.5 23.5t83.5 8.5q58 0 105.5 -18.5t81.5 -52t52.5 -80.5t18.5 -105v-292h-129v292zM232 -36h132l-103 -308h-116z" />
    <glyph glyph-name="Ncaron" unicode="&#x147;" 
d="M21 737h120l376 -502v502h131v-737h-112l-384 511v-511h-131v737zM376 738h-86l-220 255h148l115 -127q27 31 59 64.5t57 62.5h148z" />
    <glyph glyph-name="ncaron" unicode="&#x148;" horiz-adv-x="604" 
d="M352 547q52 -4 95 -24t73.5 -53t47 -78.5t16.5 -99.5v-292h-129v292q0 61 -35 97t-94 36q-47 0 -94.5 -10t-83.5 -30v-385h-128v433q45 40 107 68.5t128 39.5l-217 252h148l115 -127q27 31 59 64.5t57 62.5h148z" />
    <glyph glyph-name="Eng" unicode="&#x14a;" 
d="M21 737h120l376 -502v502h131v-737q0 -128 -74 -197.5t-208 -69.5q-27 0 -57 4.5t-59.5 12t-55 18t-42.5 21.5l26 122q19 -14 41.5 -26t46.5 -21t47 -14t43 -5q45 0 76 13t50 37t27 57t8 73l-365 486v-511h-131v737z" />
    <glyph glyph-name="eng" unicode="&#x14b;" horiz-adv-x="604" 
d="M343 -117q48 -8 80 10.5t32 71.5v327q0 61 -35 97t-94 36q-47 0 -94.5 -10t-83.5 -30v-385h-128v433q28 25 64 46.5t76 36.5t82.5 23.5t83.5 8.5q58 0 105.5 -18.5t81.5 -52t52.5 -80.5t18.5 -105v-319q0 -120 -62 -168t-170 -37z" />
    <glyph glyph-name="Omacron" unicode="&#x14c;" horiz-adv-x="757" 
d="M378 756q85 0 152 -30.5t113 -83.5t70 -123.5t24 -149.5q0 -80 -24 -150.5t-70 -123.5t-113 -83.5t-152 -30.5q-84 0 -150.5 31t-112.5 83.5t-70 123t-24 150.5q0 79 24 149.5t70 123.5t112.5 83.5t150.5 30.5zM378 93q50 0 92 20.5t72 57t46.5 87t16.5 111.5
q0 60 -16.5 110.5t-46.5 87t-72 57t-92 20.5t-91.5 -20.5t-71 -57t-46 -87t-16.5 -110.5q0 -61 16.5 -111.5t46.5 -87t71 -57t91 -20.5zM155 787v111h447v-111h-447z" />
    <glyph glyph-name="omacron" unicode="&#x14d;" horiz-adv-x="634" 
d="M20 264q0 61 22 113.5t61.5 90t93.5 59t119 21.5q64 0 119 -21.5t94.5 -59t62 -90t22.5 -113.5q0 -62 -22.5 -113.5t-62 -89.5t-94.5 -59t-119 -21q-65 0 -119 21t-93.5 59t-61.5 89.5t-22 113.5zM148 264q0 -35 12.5 -64.5t35 -50.5t53 -33t67.5 -12t68 12t53.5 33
t35 50.5t12.5 64.5t-12.5 64.5t-35 51t-53.5 33.5t-68 12t-67.5 -12t-53 -33.5t-35 -51t-12.5 -64.5zM93 587v111h447v-111h-447z" />
    <glyph glyph-name="Ohungarumlaut" unicode="&#x150;" horiz-adv-x="757" 
d="M750 985l-288 -238q66 -14 117 -49t86 -85t53.5 -112.5t18.5 -131.5q0 -80 -24 -150.5t-70 -123.5t-113 -83.5t-152 -30.5q-84 0 -150.5 31t-112.5 83.5t-70 123t-24 150.5q0 79 24 149.5t70 123.5t112.5 83.5t150.5 30.5q17 0 33.5 -1.5t32.5 -3.5l-60 70l275 255z
M378 93q50 0 92 20.5t72 57t46.5 87t16.5 111.5q0 60 -16.5 110.5t-46.5 87t-72 57t-92 20.5t-91.5 -20.5t-71 -57t-46 -87t-16.5 -110.5q0 -61 16.5 -111.5t46.5 -87t71 -57t91 -20.5zM498 985l-297 -245l-67 81l274 255z" />
    <glyph glyph-name="ohungarumlaut" unicode="&#x151;" horiz-adv-x="634" 
d="M686 785l-297 -245q50 -11 91.5 -36t71 -61t46 -81.5t16.5 -97.5q0 -62 -22.5 -113.5t-62 -89.5t-94.5 -59t-119 -21q-65 0 -119 21t-93.5 59t-61.5 89.5t-22 113.5q0 61 22 113.5t61.5 90t93.5 59t119 21.5q36 0 73 -8l-69 81l275 255zM148 264q0 -35 12.5 -64.5
t35 -50.5t53 -33t67.5 -12t68 12t53.5 33t35 50.5t12.5 64.5t-12.5 64.5t-35 51t-53.5 33.5t-68 12t-67.5 -12t-53 -33.5t-35 -51t-12.5 -64.5zM434 785l-297 -245l-67 81l274 255z" />
    <glyph glyph-name="OE" unicode="&#x152;" horiz-adv-x="1200" 
d="M1183 0h-573v63q-45 -38 -102.5 -60t-129.5 -22q-84 0 -150.5 31t-112.5 83.5t-70 123t-24 150.5q0 79 24 149.5t70 123.5t112.5 83.5t150.5 30.5q72 0 129.5 -22t102.5 -60v63h563v-112h-431v-183h382v-113h-382v-217h441v-112zM378 93q50 0 92 20.5t72 57t46.5 87
t16.5 111.5q0 60 -16.5 110.5t-46.5 87t-72 57t-92 20.5t-91.5 -20.5t-71 -57t-46 -87t-16.5 -110.5q0 -61 16.5 -111.5t46.5 -87t71 -57t91 -20.5z" />
    <glyph glyph-name="oe" unicode="&#x153;" horiz-adv-x="1107" 
d="M636 186q21 -42 67 -62t103 -20q51 0 119.5 27.5t159.5 96.5v-140q-61 -51 -131 -79t-152 -28q-78 0 -142.5 27.5t-106.5 78.5q-40 -50 -101 -78t-136 -28q-65 0 -119 21t-93.5 59t-61.5 89.5t-22 113.5q0 61 22 113.5t61.5 90t93.5 59t119 21.5q75 0 136 -28t101 -78
q42 50 106.5 78t142.5 28q68 0 121.5 -19.5t90.5 -54.5t57 -83t20 -105zM148 264q0 -35 12.5 -64.5t35 -50.5t53 -33t67.5 -12t68 12t53.5 33t35 50.5t12.5 64.5t-12.5 64.5t-35 51t-53.5 33.5t-68 12t-67.5 -12t-53 -33.5t-35 -51t-12.5 -64.5zM806 425q-33 0 -63 -8.5
t-54 -24.5t-41 -39t-24 -52l320 70q-16 21 -50.5 37.5t-87.5 16.5z" />
    <glyph glyph-name="Racute" unicode="&#x154;" horiz-adv-x="647" 
d="M505 965l-277 -228h111q71 0 123.5 -16t87 -45t51.5 -70t17 -92q0 -78 -44 -135t-134 -80l212 -299h-153l-199 288h-147v-288h-132v737h173l-53 64l274 255zM153 625v-224h179q81 0 117.5 31.5t36.5 80.5q0 47 -36 79.5t-118 32.5h-179z" />
    <glyph glyph-name="racute" unicode="&#x155;" horiz-adv-x="316" 
d="M335 425q-60 0 -106.5 -10t-80.5 -29v-386h-128v433q57 51 136.5 83t178.5 32v-123zM372 765l-297 -245l-67 81l274 255z" />
    <glyph glyph-name="uni0156" unicode="&#x156;" horiz-adv-x="647" 
d="M339 737q71 0 123.5 -16t87 -45t51.5 -70t17 -92q0 -78 -44 -135t-134 -80l212 -299h-153l-199 288h-147v-288h-132v737h318zM153 625v-224h179q81 0 117.5 31.5t36.5 80.5q0 47 -36 79.5t-118 32.5h-179zM282 -36h132l-103 -308h-116z" />
    <glyph glyph-name="uni0157" unicode="&#x157;" horiz-adv-x="316" 
d="M335 425q-60 0 -106.5 -10t-80.5 -29v-386h-128v433q57 51 136.5 83t178.5 32v-123zM62 -36h132l-103 -308h-116z" />
    <glyph glyph-name="Rcaron" unicode="&#x158;" horiz-adv-x="647" 
d="M339 737q71 0 123.5 -16t87 -45t51.5 -70t17 -92q0 -78 -44 -135t-134 -80l212 -299h-153l-199 288h-147v-288h-132v737h318zM153 625v-224h179q81 0 117.5 31.5t36.5 80.5q0 47 -36 79.5t-118 32.5h-179zM366 738h-86l-220 255h148l115 -127q27 31 59 64.5t57 62.5h148z
" />
    <glyph glyph-name="rcaron" unicode="&#x159;" horiz-adv-x="316" 
d="M335 425q-60 0 -106.5 -10t-80.5 -29v-386h-128v433q57 51 136.5 83t178.5 32v-123zM201 538h-86l-220 255h148l115 -127q27 31 59 64.5t57 62.5h148z" />
    <glyph glyph-name="Sacute" unicode="&#x15a;" horiz-adv-x="638" 
d="M501 965l-267 -220q44 11 95 11q63 0 111.5 -18t82 -48.5t53.5 -72t27 -87.5h-124q-14 49 -51.5 81.5t-98.5 32.5q-34 0 -61 -9t-46 -23t-29 -33t-10 -38q0 -34 32 -54t80.5 -35.5t105 -31t105 -41t80.5 -66t32 -104.5q0 -43 -19.5 -84t-57.5 -73t-94 -51.5t-128 -19.5
q-75 0 -130.5 23t-92.5 59t-56 80t-21 86h123q6 -30 21 -55t38 -43t53 -28t65 -10q41 0 72.5 10.5t52.5 27.5t31.5 37.5t10.5 40.5q0 28 -18.5 47t-49.5 33t-70 26t-79.5 25t-79.5 29t-70 39t-49.5 55t-18.5 77q0 60 37 112t106 80l-57 69l274 255z" />
    <glyph glyph-name="sacute" unicode="&#x15b;" horiz-adv-x="614" 
d="M489 765l-271 -223q37 6 80 6q41 0 81.5 -6t76.5 -16t66.5 -22t51.5 -24v-131q-30 21 -65.5 35.5t-72 23.5t-72 13t-66.5 4q-61 0 -98 -11t-37 -28q0 -13 18.5 -20t49 -10.5t69 -6.5t79 -9t79 -17t69 -30.5t49 -50.5t18.5 -76q0 -42 -21.5 -76t-59 -58t-88 -37.5
t-109.5 -13.5q-38 0 -77.5 5t-78 15t-74.5 24.5t-66 32.5v141q39 -28 79.5 -46t79 -29t73.5 -15.5t64 -4.5q31 0 58 4.5t47 12.5t32 19.5t12 25.5q0 27 -32 38.5t-80 18t-103.5 12t-103.5 21t-80 44t-32 81.5q0 59 40.5 97t106.5 55l-56 68l274 255z" />
    <glyph glyph-name="Scircumflex" unicode="&#x15c;" horiz-adv-x="638" 
d="M183 541q0 -34 32 -54t80.5 -35.5t105 -31t105 -41t80.5 -66t32 -104.5q0 -43 -19.5 -84t-57.5 -73t-94 -51.5t-128 -19.5q-75 0 -130.5 23t-92.5 59t-56 80t-21 86h123q6 -30 21 -55t38 -43t53 -28t65 -10q41 0 72.5 10.5t52.5 27.5t31.5 37.5t10.5 40.5q0 28 -18.5 47
t-49.5 33t-70 26t-79.5 25t-79.5 29t-70 39t-49.5 55t-18.5 77q0 43 18.5 82t54.5 69t87.5 47.5t117.5 17.5q63 0 111.5 -18t82 -48.5t53.5 -72t27 -87.5h-124q-14 49 -51.5 81.5t-98.5 32.5q-34 0 -61 -9t-46 -23t-29 -33t-10 -38zM285 1011h87l220 -255h-148l-116 127
q-27 -31 -58.5 -64.5t-56.5 -62.5h-149z" />
    <glyph glyph-name="scircumflex" unicode="&#x15d;" horiz-adv-x="614" 
d="M465 166q0 27 -32 38.5t-80 18t-103.5 12t-103.5 21t-80 44t-32 81.5q0 41 21 72.5t57 52.5t84 31.5t102 10.5q41 0 81.5 -6t76.5 -16t66.5 -22t51.5 -24v-131q-30 21 -65.5 35.5t-72 23.5t-72 13t-66.5 4q-61 0 -98 -11t-37 -28q0 -13 18.5 -20t49 -10.5t69 -6.5t79 -9
t79 -17t69 -30.5t49 -50.5t18.5 -76q0 -42 -21.5 -76t-59 -58t-88 -37.5t-109.5 -13.5q-38 0 -77.5 5t-78 15t-74.5 24.5t-66 32.5v141q39 -28 79.5 -46t79 -29t73.5 -15.5t64 -4.5q31 0 58 4.5t47 12.5t32 19.5t12 25.5zM264 802h87l220 -255h-148l-116 127
q-27 -31 -58.5 -64.5t-56.5 -62.5h-149z" />
    <glyph glyph-name="Scedilla" unicode="&#x15e;" horiz-adv-x="638" 
d="M183 541q0 -34 32 -54t80.5 -35.5t105 -31t105 -41t80.5 -66t32 -104.5q0 -40 -17 -78.5t-50 -69t-81.5 -51.5t-111.5 -27l-12 -34q34 -3 60.5 -16t44.5 -31.5t27.5 -41t9.5 -44.5q0 -30 -10 -56t-31 -46t-53.5 -31.5t-77.5 -11.5q-29 0 -70 5t-96 22v103q45 -7 79 -9.5
t54 -2.5q37 0 57.5 9.5t23 21.5t-13 21.5t-50.5 9.5q-23 0 -84 -14v77l27 74q-56 11 -97 36.5t-69 59t-42 71.5t-16 74h123q6 -30 21 -55t38 -43t53 -28t65 -10q41 0 72.5 10.5t52.5 27.5t31.5 37.5t10.5 40.5q0 28 -18.5 47t-49.5 33t-70 26t-79.5 25t-79.5 29t-70 39
t-49.5 55t-18.5 77q0 43 18.5 82t54.5 69t87.5 47.5t117.5 17.5q63 0 111.5 -18t82 -48.5t53.5 -72t27 -87.5h-124q-14 49 -51.5 81.5t-98.5 32.5q-34 0 -61 -9t-46 -23t-29 -33t-10 -38z" />
    <glyph glyph-name="scedilla" unicode="&#x15f;" horiz-adv-x="614" 
d="M465 166q0 27 -32 38.5t-80 18t-103.5 12t-103.5 21t-80 44t-32 81.5q0 41 21 72.5t57 52.5t84 31.5t102 10.5q41 0 81.5 -6t76.5 -16t66.5 -22t51.5 -24v-131q-30 21 -65.5 35.5t-72 23.5t-72 13t-66.5 4q-61 0 -98 -11t-37 -28q0 -13 18.5 -20t49 -10.5t69 -6.5t79 -9
t79 -17t69 -30.5t49 -50.5t18.5 -76q0 -38 -18.5 -70t-50.5 -56t-76.5 -39t-96.5 -19l-10 -28q34 -3 60.5 -16t44.5 -31.5t27.5 -41t9.5 -44.5q0 -30 -10 -56t-31 -46t-53.5 -31.5t-77.5 -11.5q-29 0 -70 5t-96 22v103q45 -7 79 -9.5t54 -2.5q37 0 57.5 9.5t23 21.5
t-13 21.5t-50.5 9.5q-23 0 -84 -14v77l25 67q-59 8 -115.5 26t-101.5 46v141q39 -28 79.5 -46t79 -29t73.5 -15.5t64 -4.5q31 0 58 4.5t47 12.5t32 19.5t12 25.5z" />
    <glyph glyph-name="Scaron" unicode="&#x160;" horiz-adv-x="638" 
d="M383 752q50 -8 88.5 -28t65.5 -49.5t43.5 -66.5t22.5 -78h-124q-14 49 -51.5 81.5t-98.5 32.5q-34 0 -61 -9t-46 -23t-29 -33t-10 -38q0 -34 32 -54t80.5 -35.5t105 -31t105 -41t80.5 -66t32 -104.5q0 -43 -19.5 -84t-57.5 -73t-94 -51.5t-128 -19.5q-75 0 -130.5 23
t-92.5 59t-56 80t-21 86h123q6 -30 21 -55t38 -43t53 -28t65 -10q41 0 72.5 10.5t52.5 27.5t31.5 37.5t10.5 40.5q0 28 -18.5 47t-49.5 33t-70 26t-79.5 25t-79.5 29t-70 39t-49.5 55t-18.5 77q0 38 14.5 73t43 63.5t69.5 48.5t94 27l-207 241h148l115 -127q27 31 59 64.5
t57 62.5h148z" />
    <glyph glyph-name="scaron" unicode="&#x161;" horiz-adv-x="614" 
d="M355 545q67 -8 125.5 -26.5t93.5 -38.5v-131q-30 21 -65.5 35.5t-72 23.5t-72 13t-66.5 4q-61 0 -98 -11t-37 -28q0 -13 18.5 -20t49 -10.5t69 -6.5t79 -9t79 -17t69 -30.5t49 -50.5t18.5 -76q0 -42 -21.5 -76t-59 -58t-88 -37.5t-109.5 -13.5q-38 0 -77.5 5t-78 15
t-74.5 24.5t-66 32.5v141q39 -28 79.5 -46t79 -29t73.5 -15.5t64 -4.5q31 0 58 4.5t47 12.5t32 19.5t12 25.5q0 27 -32 38.5t-80 18t-103.5 12t-103.5 21t-80 44t-32 81.5q0 37 17 66t46.5 50t70 33t87.5 16l-212 247h148l115 -127q27 31 59 64.5t57 62.5h148z" />
    <glyph glyph-name="uni0162" unicode="&#x162;" horiz-adv-x="692" 
d="M671 625h-260v-625h-131v625h-259v112h650v-112zM282 -36h132l-103 -308h-116z" />
    <glyph glyph-name="uni0163" unicode="&#x163;" horiz-adv-x="389" 
d="M20 529h71v160h129v-160h141v-113h-141v-218q0 -88 77 -88q8 0 28.5 2.5t44.5 5.5v-114q-26 -3 -47 -5.5t-38 -2.5q-41 0 -76.5 10.5t-61.5 34t-41 60t-15 88.5v227h-71v113zM152 -36h132l-103 -308h-116z" />
    <glyph glyph-name="Tcaron" unicode="&#x164;" horiz-adv-x="692" 
d="M671 625h-260v-625h-131v625h-259v112h650v-112zM388 738h-86l-220 255h148l115 -127q27 31 59 64.5t57 62.5h148z" />
    <glyph glyph-name="tcaron" unicode="&#x165;" horiz-adv-x="651" 
d="M20 529h71v160h129v-160h141v-113h-141v-218q0 -88 77 -88q8 0 28.5 2.5t44.5 5.5v-114q-26 -3 -47 -5.5t-38 -2.5q-41 0 -76.5 10.5t-61.5 34t-41 60t-15 88.5v227h-71v113zM501 721h136l-112 -354h-121z" />
    <glyph glyph-name="Tbar" unicode="&#x166;" horiz-adv-x="692" 
d="M411 336v-336h-131v336h-158v111h158v178h-259v112h650v-112h-260v-178h158v-111h-158z" />
    <glyph glyph-name="tbar" unicode="&#x167;" horiz-adv-x="389" 
d="M220 556v-27h141v-113h-141v-218q0 -88 77 -88q8 0 28.5 2.5t44.5 5.5v-114q-26 -3 -47 -5.5t-38 -2.5q-41 0 -76.5 10.5t-61.5 34t-41 60t-15 88.5v227h-71v113h71v27h-75v111h75v22h129v-22h154v-111h-154z" />
    <glyph glyph-name="Utilde" unicode="&#x168;" 
d="M648 278q0 -146 -83 -221.5t-231 -75.5q-149 0 -231 75.5t-82 221.5v459h132v-459q0 -89 47.5 -137t133.5 -48q87 0 134.5 47t47.5 138v459h132v-459zM548 972q6 -16 11 -44t5 -51q0 -62 -35 -99t-92 -37q-41 0 -70.5 19t-52.5 41.5t-42 41.5t-40 19q-20 0 -20 -24
q0 -21 31 -97h-120q-9 28 -14 52t-5 43q0 63 35.5 99.5t92.5 36.5q41 0 71.5 -19t54 -42t43 -42t37.5 -19q13 0 13 31q0 12 -5.5 35.5t-16.5 55.5h119z" />
    <glyph glyph-name="utilde" unicode="&#x169;" horiz-adv-x="614" 
d="M148 237q0 -66 40.5 -99.5t109.5 -33.5q93 0 167 23v402h129v-450q-24 -21 -57.5 -39t-72 -31t-81 -20.5t-85.5 -7.5q-63 0 -114 17t-87.5 49.5t-56.5 80t-20 109.5v292h128v-292zM521 772q6 -16 11 -44t5 -51q0 -62 -35 -99t-92 -37q-41 0 -70.5 19t-52.5 41.5t-42 41.5
t-40 19q-20 0 -20 -24q0 -21 31 -97h-120q-9 28 -14 52t-5 43q0 63 35.5 99.5t92.5 36.5q41 0 71.5 -19t54 -42t43 -42t37.5 -19q13 0 13 31q0 12 -5.5 35.5t-16.5 55.5h119z" />
    <glyph glyph-name="Umacron" unicode="&#x16a;" 
d="M648 278q0 -146 -83 -221.5t-231 -75.5q-149 0 -231 75.5t-82 221.5v459h132v-459q0 -89 47.5 -137t133.5 -48q87 0 134.5 47t47.5 138v459h132v-459zM110 787v111h447v-111h-447z" />
    <glyph glyph-name="umacron" unicode="&#x16b;" horiz-adv-x="614" 
d="M148 237q0 -66 40.5 -99.5t109.5 -33.5q93 0 167 23v402h129v-450q-24 -21 -57.5 -39t-72 -31t-81 -20.5t-85.5 -7.5q-63 0 -114 17t-87.5 49.5t-56.5 80t-20 109.5v292h128v-292zM83 587v111h447v-111h-447z" />
    <glyph glyph-name="Ubreve" unicode="&#x16c;" 
d="M648 278q0 -146 -83 -221.5t-231 -75.5q-149 0 -231 75.5t-82 221.5v459h132v-459q0 -89 47.5 -137t133.5 -48q87 0 134.5 47t47.5 138v459h132v-459zM560 983q11 -19 14 -41.5t3 -41.5q0 -80 -60 -123.5t-185 -43.5q-118 0 -179.5 42t-61.5 119q0 18 5.5 40.5t13.5 48.5
h125q-8 -29 -12 -48t-4 -27q0 -62 113 -62q64 0 91.5 16.5t27.5 50.5q0 8 -2.5 24t-10.5 46h122z" />
    <glyph glyph-name="ubreve" unicode="&#x16d;" horiz-adv-x="614" 
d="M148 237q0 -66 40.5 -99.5t109.5 -33.5q93 0 167 23v402h129v-450q-24 -21 -57.5 -39t-72 -31t-81 -20.5t-85.5 -7.5q-63 0 -114 17t-87.5 49.5t-56.5 80t-20 109.5v292h128v-292zM533 783q11 -19 14 -41.5t3 -41.5q0 -80 -60 -123.5t-185 -43.5q-118 0 -179.5 42
t-61.5 119q0 18 5.5 40.5t13.5 48.5h125q-8 -29 -12 -48t-4 -27q0 -62 113 -62q64 0 91.5 16.5t27.5 50.5q0 8 -2.5 24t-10.5 46h122z" />
    <glyph glyph-name="Uring" unicode="&#x16e;" 
d="M648 278q0 -146 -83 -221.5t-231 -75.5q-149 0 -231 75.5t-82 221.5v459h132v-459q0 -89 47.5 -137t133.5 -48q87 0 134.5 47t47.5 138v459h132v-459zM334 1060q37 0 69 -13.5t56 -36.5t38 -53.5t14 -65.5t-14 -66t-38 -53.5t-56 -35.5t-69 -13q-36 0 -68 13t-56.5 35.5
t-38.5 53.5t-14 66t14 65.5t38.5 53.5t56.5 36.5t68 13.5zM334 830q26 0 45 18t19 43q0 24 -19 42.5t-45 18.5t-45 -18.5t-19 -42.5q0 -25 19 -43t45 -18z" />
    <glyph glyph-name="uring" unicode="&#x16f;" horiz-adv-x="614" 
d="M148 237q0 -66 40.5 -99.5t109.5 -33.5q93 0 167 23v402h129v-450q-24 -21 -57.5 -39t-72 -31t-81 -20.5t-85.5 -7.5q-63 0 -114 17t-87.5 49.5t-56.5 80t-20 109.5v292h128v-292zM307 860q37 0 69 -13.5t56 -36.5t38 -53.5t14 -65.5t-14 -66t-38 -53.5t-56 -35.5
t-69 -13q-36 0 -68 13t-56.5 35.5t-38.5 53.5t-14 66t14 65.5t38.5 53.5t56.5 36.5t68 13.5zM307 630q26 0 45 18t19 43q0 24 -19 42.5t-45 18.5t-45 -18.5t-19 -42.5q0 -25 19 -43t45 -18z" />
    <glyph glyph-name="Uhungarumlaut" unicode="&#x170;" 
d="M648 278q0 -146 -83 -221.5t-231 -75.5q-149 0 -231 75.5t-82 221.5v459h132v-459q0 -89 47.5 -137t133.5 -48q87 0 134.5 47t47.5 138v459h132v-459zM467 985l-297 -245l-67 81l274 255zM719 985l-297 -245l-69 81l275 255z" />
    <glyph glyph-name="uhungarumlaut" unicode="&#x171;" horiz-adv-x="614" 
d="M148 237q0 -66 40.5 -99.5t109.5 -33.5q93 0 167 23v402h129v-450q-24 -21 -57.5 -39t-72 -31t-81 -20.5t-85.5 -7.5q-63 0 -114 17t-87.5 49.5t-56.5 80t-20 109.5v292h128v-292zM414 785l-297 -245l-67 81l274 255zM666 785l-297 -245l-69 81l275 255z" />
    <glyph glyph-name="Uogonek" unicode="&#x172;" 
d="M279 -136q0 -18 23.5 -29t62.5 -11q24 0 60 8t86 25v-109q-51 -17 -93 -24.5t-75 -7.5q-87 0 -140 37t-53 102q0 27 7.5 47.5t21 35.5t32 27t40.5 23q-110 20 -170 92.5t-60 197.5v459h132v-459q0 -89 47.5 -137t133.5 -48q87 0 134.5 47t47.5 138v459h132v-459
q0 -103 -42 -171t-120 -100q-44 -39 -82 -60t-66 -34t-43.5 -23t-15.5 -26z" />
    <glyph glyph-name="uogonek" unicode="&#x173;" horiz-adv-x="614" 
d="M338 -112q0 -18 23.5 -29t62.5 -11q24 0 60 8t86 25v-109q-51 -17 -93 -24.5t-75 -7.5q-87 0 -140 37t-53 102q0 38 14 62t38 42q-55 5 -99.5 24t-76 51t-48.5 77t-17 102v292h128v-292q0 -66 40.5 -99.5t109.5 -33.5q93 0 167 23v402h129v-450q-53 -57 -99.5 -87
t-81.5 -47t-55 -27.5t-20 -29.5z" />
    <glyph glyph-name="Wcircumflex" unicode="&#x174;" horiz-adv-x="1007" 
d="M12 737h140l131 -506l171 506h107l167 -497q32 124 65 251t63 246h140l-200 -737h-120l-167 504q-44 -130 -85 -253.5t-84 -250.5h-118zM460 1002h87l220 -255h-148l-116 127q-27 -31 -58.5 -64.5t-56.5 -62.5h-149z" />
    <glyph glyph-name="wcircumflex" unicode="&#x175;" horiz-adv-x="782" 
d="M148 181q0 -77 81 -77q26 0 52.5 6.5t45.5 19.5v399h128v-399q19 -11 46 -18.5t52 -7.5q81 0 81 77v348h128v-348q0 -94 -54.5 -147t-154.5 -53q-37 0 -80.5 14t-81.5 38q-38 -24 -81.5 -38t-80.5 -14q-100 0 -154.5 53t-54.5 147v348h128v-348zM348 802h87l220 -255
h-148l-116 127q-27 -31 -58.5 -64.5t-56.5 -62.5h-149z" />
    <glyph glyph-name="Ycircumflex" unicode="&#x176;" horiz-adv-x="723" 
d="M295 0v291l-298 446h158l206 -318l207 318h158l-300 -447v-290h-131zM318 1002h87l220 -255h-148l-116 127q-27 -31 -58.5 -64.5t-56.5 -62.5h-149z" />
    <glyph glyph-name="ycircumflex" unicode="&#x177;" horiz-adv-x="599" 
d="M451 28q-35 -13 -76 -20.5t-87 -7.5q-129 0 -198.5 66t-69.5 190v273h128v-273q0 -66 35.5 -99.5t104.5 -33.5q49 0 88.5 7.5t74.5 23.5v375h129v-490q0 -59 -21.5 -103.5t-59.5 -74t-89 -44.5t-109 -15q-81 0 -153.5 21.5t-122.5 65.5v131q77 -55 146 -75.5t130 -20.5
q30 0 57.5 6t48 18.5t32.5 31t12 43.5v5zM256 802h87l220 -255h-148l-116 127q-27 -31 -58.5 -64.5t-56.5 -62.5h-149z" />
    <glyph glyph-name="Ydieresis" unicode="&#x178;" horiz-adv-x="723" 
d="M295 0v291l-298 446h158l206 -318l207 318h158l-300 -447v-290h-131zM317 856q0 -15 -6.5 -29.5t-17.5 -26t-27 -18.5t-34 -7t-33.5 7t-26.5 18.5t-17.5 26t-6.5 29.5t6.5 30t17.5 26t26.5 18t33.5 7q37 0 61 -25t24 -56zM574 856q0 -15 -6.5 -29.5t-17.5 -26
t-26.5 -18.5t-33.5 -7t-34 7t-27 18.5t-17.5 26t-6.5 29.5q0 31 24 56t61 25q18 0 33.5 -7t26.5 -18t17.5 -26t6.5 -30z" />
    <glyph glyph-name="Zacute" unicode="&#x179;" 
d="M516 965l-277 -228h399v-81l-433 -544h443v-112h-627v80l436 545h-406v112h154l-53 64l274 255z" />
    <glyph glyph-name="zacute" unicode="&#x17a;" horiz-adv-x="602" 
d="M483 765l-286 -236h372v-76q0 -54 -16 -90t-47 -61t-75 -44t-99 -39q-69 -25 -111 -47t-59 -49h420v-123h-562v77q0 54 16.5 90.5t49 64t81.5 49.5t115 47q52 19 89.5 37t55.5 41h-392v123h143l-59 72l274 255z" />
    <glyph glyph-name="Zdotaccent" unicode="&#x17b;" 
d="M648 0h-627v80l436 545h-406v112h587v-81l-433 -544h443v-112zM419 896q0 -15 -6.5 -29.5t-18 -26t-27 -18.5t-33.5 -7t-33.5 7t-27 18.5t-18 26t-6.5 29.5t6.5 30t18 26t27 18t33.5 7t33.5 -7t27 -18t18 -26t6.5 -30z" />
    <glyph glyph-name="zdotaccent" unicode="&#x17c;" horiz-adv-x="602" 
d="M35 529h534v-76q0 -54 -16 -90t-47 -61t-75 -44t-99 -39q-69 -25 -111 -47t-59 -49h420v-123h-562v77q0 54 16.5 90.5t49 64t81.5 49.5t115 47q52 19 89.5 37t55.5 41h-392v123zM386 696q0 -15 -6.5 -29.5t-18 -26t-27 -18.5t-33.5 -7t-33.5 7t-27 18.5t-18 26t-6.5 29.5
t6.5 30t18 26t27 18t33.5 7t33.5 -7t27 -18t18 -26t6.5 -30z" />
    <glyph glyph-name="Zcaron" unicode="&#x17d;" 
d="M648 0h-627v80l436 545h-406v112h587v-81l-433 -544h443v-112zM376 738h-86l-220 255h148l115 -127q27 31 59 64.5t57 62.5h148z" />
    <glyph glyph-name="zcaron" unicode="&#x17e;" horiz-adv-x="602" 
d="M35 529h534v-76q0 -54 -16 -90t-47 -61t-75 -44t-99 -39q-69 -25 -111 -47t-59 -49h420v-123h-562v77q0 54 16.5 90.5t49 64t81.5 49.5t115 47q52 19 89.5 37t55.5 41h-392v123zM343 538h-86l-220 255h148l115 -127q27 31 59 64.5t57 62.5h148z" />
    <glyph glyph-name="florin" unicode="&#x192;" horiz-adv-x="439" 
d="M77 -99q32 0 53 10t33 28t17 43t5 55q0 43 -6.5 96.5t-13.5 111.5l-9 73h-132v111h121q-1 15 -1 31v31q0 60 11.5 112.5t41 91.5t80 61t128.5 22v-113q-39 0 -64.5 -12t-40.5 -33.5t-21 -51.5t-6 -65q0 -18 0.5 -35t2.5 -39h138v-111h-127q7 -68 15.5 -134.5t8.5 -131.5
q0 -56 -10.5 -104.5t-36.5 -84t-71.5 -55.5t-115.5 -20v113z" />
    <glyph glyph-name="circumflex" unicode="&#x2c6;" horiz-adv-x="510" 
d="M212 802h87l220 -255h-148l-116 127q-27 -31 -58.5 -64.5t-56.5 -62.5h-149z" />
    <glyph glyph-name="caron" unicode="&#x2c7;" horiz-adv-x="510" 
d="M298 538h-86l-220 255h148l115 -127q27 31 59 64.5t57 62.5h148z" />
    <glyph glyph-name="breve" unicode="&#x2d8;" horiz-adv-x="537" 
d="M493 783q11 -19 14 -41.5t3 -41.5q0 -80 -60 -123.5t-185 -43.5q-118 0 -179.5 42t-61.5 119q0 18 5.5 40.5t13.5 48.5h125q-8 -29 -12 -48t-4 -27q0 -62 113 -62q64 0 91.5 16.5t27.5 50.5q0 8 -2.5 24t-10.5 46h122v0z" />
    <glyph glyph-name="dotaccent" unicode="&#x2d9;" horiz-adv-x="219" 
d="M194 696q0 -15 -6.5 -29.5t-18 -26t-27 -18.5t-33.5 -7t-33.5 7t-27 18.5t-18 26t-6.5 29.5t6.5 30t18 26t27 18t33.5 7t33.5 -7t27 -18t18 -26t6.5 -30z" />
    <glyph glyph-name="ring" unicode="&#x2da;" horiz-adv-x="403" 
d="M201 860q37 0 69 -13.5t56 -36.5t38 -53.5t14 -65.5t-14 -66t-38 -53.5t-56 -35.5t-69 -13q-36 0 -68 13t-56.5 35.5t-38.5 53.5t-14 66t14 65.5t38.5 53.5t56.5 36.5t68 13.5zM201 630q26 0 45 18t19 43q0 24 -19 42.5t-45 18.5t-45 -18.5t-19 -42.5q0 -25 19 -43
t45 -18z" />
    <glyph glyph-name="ogonek" unicode="&#x2db;" horiz-adv-x="414" 
d="M153 -110q0 -18 23.5 -29t62.5 -11q24 0 60 8t86 25v-109q-51 -17 -93 -24.5t-75 -7.5q-87 0 -140 37t-53 102q0 34 12 57.5t32.5 40.5t48 30t58 28t63 33t62.5 45l109 -34q-53 -57 -99.5 -87t-81.5 -47t-55 -27.5t-20 -29.5z" />
    <glyph glyph-name="tilde" unicode="&#x2dc;" horiz-adv-x="512" 
d="M470 772q6 -16 11 -44t5 -51q0 -62 -35 -99t-92 -37q-41 0 -70.5 19t-52.5 41.5t-42 41.5t-40 19q-20 0 -20 -24q0 -21 31 -97h-120q-9 28 -14 52t-5 43q0 63 35.5 99.5t92.5 36.5q41 0 71.5 -19t54 -42t43 -42t37.5 -19q13 0 13 31q0 12 -5.5 35.5t-16.5 55.5h119v0z
" />
    <glyph glyph-name="hungarumlaut" unicode="&#x2dd;" horiz-adv-x="643" 
d="M405 785l-297 -245l-67 81l274 255zM657 785l-297 -245l-69 81l275 255z" />
    <glyph glyph-name="uni1E02" unicode="&#x1e02;" horiz-adv-x="642" 
d="M592 530q0 -43 -18 -80t-52 -63q48 -25 73.5 -68t25.5 -105q0 -46 -17 -85.5t-48.5 -68t-77 -44.5t-103.5 -16h-354v737h313q69 0 117.5 -15t80 -42.5t46 -65.5t14.5 -84zM361 112q62 0 95.5 30t33.5 75q0 47 -34.5 76t-99.5 29h-203v-210h208zM153 434h197q48 0 79 23.5
t31 66.5q0 101 -133 101h-174v-191zM406 896q0 -15 -6.5 -29.5t-18 -26t-27 -18.5t-33.5 -7t-33.5 7t-27 18.5t-18 26t-6.5 29.5t6.5 30t18 26t27 18t33.5 7t33.5 -7t27 -18t18 -26t6.5 -30z" />
    <glyph glyph-name="uni1E03" unicode="&#x1e03;" horiz-adv-x="634" 
d="M614 273q0 -59 -23.5 -112t-66 -93t-103 -63.5t-134.5 -23.5q-94 0 -158 25.5t-109 72.5v686h128v-248q73 31 158 31q63 0 119 -20.5t98 -57.5t66.5 -87t24.5 -110zM485 273q0 33 -15 60.5t-39.5 48t-57 32t-67.5 11.5q-44 0 -84 -10t-74 -29v-257q34 -13 65.5 -19
t73.5 -6q46 0 83 14t62.5 37.5t39 54t13.5 63.5zM402 696q0 -15 -6.5 -29.5t-18 -26t-27 -18.5t-33.5 -7t-33.5 7t-27 18.5t-18 26t-6.5 29.5t6.5 30t18 26t27 18t33.5 7t33.5 -7t27 -18t18 -26t6.5 -30z" />
    <glyph glyph-name="uni1E0A" unicode="&#x1e0a;" horiz-adv-x="680" 
d="M310 737q82 0 147 -25.5t110 -73t68.5 -115.5t23.5 -154t-25 -154.5t-70 -116t-109 -73t-142 -25.5h-292v737h289zM315 112q47 0 86.5 17t68 49.5t44 80.5t15.5 110q0 130 -60 193t-159 63h-157v-513h162zM425 896q0 -15 -6.5 -29.5t-18 -26t-27 -18.5t-33.5 -7t-33.5 7
t-27 18.5t-18 26t-6.5 29.5t6.5 30t18 26t27 18t33.5 7t33.5 -7t27 -18t18 -26t6.5 -30z" />
    <glyph glyph-name="uni1E0B" unicode="&#x1e0b;" horiz-adv-x="643" 
d="M624 79q-46 -47 -115 -72.5t-163 -25.5q-66 0 -125.5 21.5t-104 60.5t-70.5 92.5t-26 117.5q0 60 26 110t69.5 87t101.5 57.5t121 20.5q84 0 157 -31v248h129v-686zM148 273q0 -37 15 -68t42 -53.5t63 -35t78 -12.5t78 6t71 19v257q-34 19 -73.5 29t-83.5 10
q-36 0 -70 -11.5t-61 -32t-43 -48t-16 -60.5zM406 696q0 -15 -6.5 -29.5t-18 -26t-27 -18.5t-33.5 -7t-33.5 7t-27 18.5t-18 26t-6.5 29.5t6.5 30t18 26t27 18t33.5 7t33.5 -7t27 -18t18 -26t6.5 -30z" />
    <glyph glyph-name="uni1E1E" unicode="&#x1e1e;" horiz-adv-x="584" 
d="M524 285h-371v-285h-132v737h542v-112h-410v-229h371v-111zM377 896q0 -15 -6.5 -29.5t-18 -26t-27 -18.5t-33.5 -7t-33.5 7t-27 18.5t-18 26t-6.5 29.5t6.5 30t18 26t27 18t33.5 7t33.5 -7t27 -18t18 -26t6.5 -30z" />
    <glyph glyph-name="uni1E1F" unicode="&#x1e1f;" horiz-adv-x="276" 
d="M-30 529h72v9q0 60 17 101t47.5 65.5t73 33.5t94.5 3l8 -115q-46 7 -79 -11.5t-33 -69.5v-16h141v-113h-141v-416h-128v416h-72v113zM239 830q0 -15 -6.5 -29.5t-18 -26t-27 -18.5t-33.5 -7t-33.5 7t-27 18.5t-18 26t-6.5 29.5t6.5 30t18 26t27 18t33.5 7t33.5 -7t27 -18
t18 -26t6.5 -30z" />
    <glyph glyph-name="uni1E40" unicode="&#x1e40;" horiz-adv-x="814" 
d="M413 261l250 476h131v-737h-126v489l-208 -405h-97l-216 406v-490h-126v737h132zM492 846q0 -15 -6.5 -29.5t-18 -26t-27 -18.5t-33.5 -7t-33.5 7t-27 18.5t-18 26t-6.5 29.5t6.5 30t18 26t27 18t33.5 7t33.5 -7t27 -18t18 -26t6.5 -30z" />
    <glyph glyph-name="uni1E41" unicode="&#x1e41;" horiz-adv-x="782" 
d="M634 349q0 38 -21.5 57t-59.5 19q-26 0 -52.5 -6.5t-45.5 -19.5v-399h-128v358q0 36 -21.5 51.5t-59.5 15.5q-26 0 -53 -7t-45 -19v-399h-128v439q21 25 49 45t58.5 34t61.5 22t57 8q48 0 86 -12t65 -37q37 22 79 35.5t77 13.5q47 0 85.5 -14t66 -39.5t42.5 -62.5t15 -83
v-349h-128v349zM476 696q0 -15 -6.5 -29.5t-18 -26t-27 -18.5t-33.5 -7t-33.5 7t-27 18.5t-18 26t-6.5 29.5t6.5 30t18 26t27 18t33.5 7t33.5 -7t27 -18t18 -26t6.5 -30z" />
    <glyph glyph-name="uni1E56" unicode="&#x1e56;" horiz-adv-x="638" 
d="M343 737q66 0 117 -18.5t86 -51t53 -75.5t18 -91q0 -49 -16.5 -91.5t-50.5 -74.5t-85.5 -50.5t-121.5 -18.5h-190v-266h-132v737h322zM153 625v-248h185q69 0 108 34t39 90q0 54 -39 89t-108 35h-185zM404 896q0 -15 -6.5 -29.5t-18 -26t-27 -18.5t-33.5 -7t-33.5 7
t-27 18.5t-18 26t-6.5 29.5t6.5 30t18 26t27 18t33.5 7t33.5 -7t27 -18t18 -26t6.5 -30z" />
    <glyph glyph-name="uni1E57" unicode="&#x1e57;" horiz-adv-x="634" 
d="M20 433q57 51 129.5 83t156.5 32q74 0 131.5 -22t96.5 -60.5t59.5 -90.5t20.5 -111q0 -60 -20.5 -111.5t-59.5 -89.5t-96.5 -60t-131.5 -22q-44 0 -83 8.5t-75 23.5v-249h-128v669zM485 264q0 33 -11.5 62.5t-34 51t-56 34.5t-77.5 13t-84 -10t-74 -29v-243
q34 -18 74 -28.5t84 -10.5t77.5 12.5t56 34t34 51t11.5 62.5zM402 696q0 -15 -6.5 -29.5t-18 -26t-27 -18.5t-33.5 -7t-33.5 7t-27 18.5t-18 26t-6.5 29.5t6.5 30t18 26t27 18t33.5 7t33.5 -7t27 -18t18 -26t6.5 -30z" />
    <glyph glyph-name="uni1E60" unicode="&#x1e60;" horiz-adv-x="638" 
d="M183 541q0 -34 32 -54t80.5 -35.5t105 -31t105 -41t80.5 -66t32 -104.5q0 -43 -19.5 -84t-57.5 -73t-94 -51.5t-128 -19.5q-75 0 -130.5 23t-92.5 59t-56 80t-21 86h123q6 -30 21 -55t38 -43t53 -28t65 -10q41 0 72.5 10.5t52.5 27.5t31.5 37.5t10.5 40.5q0 28 -18.5 47
t-49.5 33t-70 26t-79.5 25t-79.5 29t-70 39t-49.5 55t-18.5 77q0 43 18.5 82t54.5 69t87.5 47.5t117.5 17.5q63 0 111.5 -18t82 -48.5t53.5 -72t27 -87.5h-124q-14 49 -51.5 81.5t-98.5 32.5q-34 0 -61 -9t-46 -23t-29 -33t-10 -38zM404 896q0 -15 -6.5 -29.5t-18 -26
t-27 -18.5t-33.5 -7t-33.5 7t-27 18.5t-18 26t-6.5 29.5t6.5 30t18 26t27 18t33.5 7t33.5 -7t27 -18t18 -26t6.5 -30z" />
    <glyph glyph-name="uni1E61" unicode="&#x1e61;" horiz-adv-x="614" 
d="M465 166q0 27 -32 38.5t-80 18t-103.5 12t-103.5 21t-80 44t-32 81.5q0 41 21 72.5t57 52.5t84 31.5t102 10.5q41 0 81.5 -6t76.5 -16t66.5 -22t51.5 -24v-131q-30 21 -65.5 35.5t-72 23.5t-72 13t-66.5 4q-61 0 -98 -11t-37 -28q0 -13 18.5 -20t49 -10.5t69 -6.5t79 -9
t79 -17t69 -30.5t49 -50.5t18.5 -76q0 -42 -21.5 -76t-59 -58t-88 -37.5t-109.5 -13.5q-38 0 -77.5 5t-78 15t-74.5 24.5t-66 32.5v141q39 -28 79.5 -46t79 -29t73.5 -15.5t64 -4.5q31 0 58 4.5t47 12.5t32 19.5t12 25.5zM401 695q0 -15 -6.5 -29.5t-18 -26t-27 -18.5
t-33.5 -7t-33.5 7t-27 18.5t-18 26t-6.5 29.5t6.5 30t18 26t27 18t33.5 7t33.5 -7t27 -18t18 -26t6.5 -30z" />
    <glyph glyph-name="uni1E6A" unicode="&#x1e6a;" horiz-adv-x="692" 
d="M671 625h-260v-625h-131v625h-259v112h650v-112zM431 896q0 -15 -6.5 -29.5t-18 -26t-27 -18.5t-33.5 -7t-33.5 7t-27 18.5t-18 26t-6.5 29.5t6.5 30t18 26t27 18t33.5 7t33.5 -7t27 -18t18 -26t6.5 -30z" />
    <glyph glyph-name="uni1E6B" unicode="&#x1e6b;" horiz-adv-x="389" 
d="M20 529h71v160h129v-160h141v-113h-141v-218q0 -88 77 -88q8 0 28.5 2.5t44.5 5.5v-114q-26 -3 -47 -5.5t-38 -2.5q-41 0 -76.5 10.5t-61.5 34t-41 60t-15 88.5v227h-71v113zM239 796q0 -15 -6.5 -29.5t-18 -26t-27 -18.5t-33.5 -7t-33.5 7t-27 18.5t-18 26t-6.5 29.5
t6.5 30t18 26t27 18t33.5 7t33.5 -7t27 -18t18 -26t6.5 -30z" />
    <glyph glyph-name="Wgrave" unicode="&#x1e80;" horiz-adv-x="1007" 
d="M425 1015l246 -240l-69 -80l-38 32l164 -487q32 124 65 251t63 246h140l-200 -737h-120l-167 504q-44 -130 -85 -253.5t-84 -250.5h-118l-210 737h140l131 -506l171 506h99l-218 188z" />
    <glyph glyph-name="wgrave" unicode="&#x1e81;" horiz-adv-x="782" 
d="M313 815l246 -240l-69 -80l-35 30v-395q19 -11 46 -18.5t52 -7.5q81 0 81 77v348h128v-348q0 -94 -54.5 -147t-154.5 -53q-37 0 -80.5 14t-81.5 38q-38 -24 -81.5 -38t-80.5 -14q-100 0 -154.5 53t-54.5 147v348h128v-348q0 -77 81 -77q26 0 52.5 6.5t45.5 19.5v399h123
l-227 196z" />
    <glyph glyph-name="Wacute" unicode="&#x1e82;" horiz-adv-x="1007" 
d="M12 737h140l131 -506l171 506h107l167 -497q32 124 65 251t63 246h140l-200 -737h-120l-167 504q-44 -130 -85 -253.5t-84 -250.5h-118zM685 965l-297 -245l-67 81l274 255z" />
    <glyph glyph-name="wacute" unicode="&#x1e83;" horiz-adv-x="782" 
d="M148 181q0 -77 81 -77q26 0 52.5 6.5t45.5 19.5v399h128v-399q19 -11 46 -18.5t52 -7.5q81 0 81 77v348h128v-348q0 -94 -54.5 -147t-154.5 -53q-37 0 -80.5 14t-81.5 38q-38 -24 -81.5 -38t-80.5 -14q-100 0 -154.5 53t-54.5 147v348h128v-348zM573 765l-297 -245
l-67 81l274 255z" />
    <glyph glyph-name="Wdieresis" unicode="&#x1e84;" horiz-adv-x="1007" 
d="M12 737h140l131 -506l171 506h107l167 -497q32 124 65 251t63 246h140l-200 -737h-120l-167 504q-44 -130 -85 -253.5t-84 -250.5h-118zM459 856q0 -15 -6.5 -29.5t-17.5 -26t-27 -18.5t-34 -7t-33.5 7t-26.5 18.5t-17.5 26t-6.5 29.5t6.5 30t17.5 26t26.5 18t33.5 7
q37 0 61 -25t24 -56zM716 856q0 -15 -6.5 -29.5t-17.5 -26t-26.5 -18.5t-33.5 -7t-34 7t-27 18.5t-17.5 26t-6.5 29.5q0 31 24 56t61 25q18 0 33.5 -7t26.5 -18t17.5 -26t6.5 -30z" />
    <glyph glyph-name="wdieresis" unicode="&#x1e85;" horiz-adv-x="782" 
d="M148 181q0 -77 81 -77q26 0 52.5 6.5t45.5 19.5v399h128v-399q19 -11 46 -18.5t52 -7.5q81 0 81 77v348h128v-348q0 -94 -54.5 -147t-154.5 -53q-37 0 -80.5 14t-81.5 38q-38 -24 -81.5 -38t-80.5 -14q-100 0 -154.5 53t-54.5 147v348h128v-348zM347 656
q0 -15 -6.5 -29.5t-17.5 -26t-27 -18.5t-34 -7t-33.5 7t-26.5 18.5t-17.5 26t-6.5 29.5t6.5 30t17.5 26t26.5 18t33.5 7q37 0 61 -25t24 -56zM604 656q0 -15 -6.5 -29.5t-17.5 -26t-26.5 -18.5t-33.5 -7t-34 7t-27 18.5t-17.5 26t-6.5 29.5q0 31 24 56t61 25q18 0 33.5 -7
t26.5 -18t17.5 -26t6.5 -30z" />
    <glyph glyph-name="Ygrave" unicode="&#x1ef2;" horiz-adv-x="723" 
d="M295 0v291l-298 446h158l206 -318l207 318h158l-300 -447v-290h-131zM283 1015l246 -240l-69 -80l-267 230z" />
    <glyph glyph-name="ygrave" unicode="&#x1ef3;" horiz-adv-x="599" 
d="M451 28q-35 -13 -76 -20.5t-87 -7.5q-129 0 -198.5 66t-69.5 190v273h128v-273q0 -66 35.5 -99.5t104.5 -33.5q49 0 88.5 7.5t74.5 23.5v375h129v-490q0 -59 -21.5 -103.5t-59.5 -74t-89 -44.5t-109 -15q-81 0 -153.5 21.5t-122.5 65.5v131q77 -55 146 -75.5t130 -20.5
q30 0 57.5 6t48 18.5t32.5 31t12 43.5v5zM221 815l246 -240l-69 -80l-267 230z" />
    <glyph glyph-name="endash" unicode="&#x2013;" horiz-adv-x="773" 
d="M20 243v120h734v-120h-734z" />
    <glyph glyph-name="emdash" unicode="&#x2014;" horiz-adv-x="999" 
d="M20 243v120h958v-120h-958z" />
    <glyph glyph-name="quoteleft" unicode="&#x2018;" horiz-adv-x="262" 
d="M140 367h-136l110 354h121z" />
    <glyph glyph-name="quoteright" unicode="&#x2019;" horiz-adv-x="262" 
d="M112 721h136l-112 -354h-121z" />
    <glyph glyph-name="quotesinglbase" unicode="&#x201a;" horiz-adv-x="262" 
d="M112 249h136l-112 -354h-121z" />
    <glyph glyph-name="quotedblleft" unicode="&#x201c;" horiz-adv-x="457" 
d="M150 367h-136l110 354h121zM344 367h-135l111 354h120z" />
    <glyph glyph-name="quotedblright" unicode="&#x201d;" horiz-adv-x="457" 
d="M112 721h136l-112 -354h-121zM306 721h135l-110 -354h-121z" />
    <glyph glyph-name="quotedblbase" unicode="&#x201e;" horiz-adv-x="463" 
d="M107 249h135l-110 -354h-121zM319 249h135l-111 -354h-121z" />
    <glyph glyph-name="dagger" unicode="&#x2020;" horiz-adv-x="565" 
d="M339 471v-650h-119v650h-196v114h196v179h119v-179h201v-114h-201z" />
    <glyph glyph-name="daggerdbl" unicode="&#x2021;" horiz-adv-x="565" 
d="M339 14v-193h-119v193h-196v113h196v344h-196v114h196v179h119v-179h201v-114h-201v-344h201v-113h-201z" />
    <glyph glyph-name="bullet" unicode="&#x2022;" horiz-adv-x="331" 
d="M307 373q0 -63 -39.5 -100.5t-102.5 -37.5q-28 0 -53.5 9.5t-45 27.5t-31 43.5t-11.5 57.5t11.5 56.5t31 41.5t45 25.5t53.5 8.5q63 0 102.5 -34t39.5 -98z" />
    <glyph glyph-name="ellipsis" unicode="&#x2026;" horiz-adv-x="674" 
d="M663 81q0 -15 -6.5 -29.5t-17.5 -26t-26.5 -18.5t-33.5 -7t-34 7t-27 18.5t-17.5 26t-6.5 29.5q0 31 24 56t61 25q18 0 33.5 -7t26.5 -18t17.5 -26t6.5 -30zM195 81q0 -15 -6.5 -29.5t-18 -26t-27 -18.5t-33.5 -7t-33.5 7t-27 18.5t-18 26t-6.5 29.5t6.5 30t18 26t27 18
t33.5 7t33.5 -7t27 -18t18 -26t6.5 -30zM430 81q0 -15 -6.5 -29.5t-18 -26t-27.5 -18.5t-34 -7t-33 7t-26 18.5t-17.5 26t-6.5 29.5t6.5 30t17.5 26t26 18t33 7q37 0 61.5 -25t24.5 -56z" />
    <glyph glyph-name="perthousand" unicode="&#x2030;" horiz-adv-x="1134" 
d="M429 502q0 -38 -9 -69l256 285h153l-268 -298q16 5 34 8.5t39 3.5q43 0 79.5 -15t64.5 -43q26 28 62 44t85 16q45 0 83 -15.5t65.5 -43.5t43.5 -68.5t16 -89.5q0 -50 -16 -90t-43.5 -68t-65.5 -43.5t-83 -15.5q-52 0 -86.5 13t-60.5 45q-28 -28 -64.5 -43t-79.5 -15
q-52 0 -89.5 17.5t-61.5 47t-35.5 68.5t-11.5 83q0 20 2.5 39.5t8.5 37.5l-264 -293h-153l270 300q-17 -7 -37 -10t-40 -3q-51 0 -88.5 17.5t-61.5 46.5t-36 68t-12 83q0 40 12 79t36 69.5t61.5 49t88.5 18.5q44 0 82 -15.5t65.5 -43.5t43 -68t15.5 -89zM316 502q0 20 -5 40
t-16 36t-29 26t-43 10q-23 0 -39 -10t-26.5 -26t-15.5 -36t-5 -40t5 -40t15.5 -36t26.5 -25.5t39 -9.5q25 0 43 9.5t29 25.5t16 36t5 40zM723 217v14.5t1 13.5q-6 32 -28 57.5t-62 25.5q-23 0 -39.5 -10t-27 -26t-15 -36t-4.5 -40t4.5 -40t15 -36t27 -26t39.5 -10
q20 0 35.5 7t26.5 19t18 27t10 31q-1 5 -1 13v16zM1013 217q0 19 -4.5 38.5t-15 34.5t-27.5 24.5t-41 9.5q-22 0 -37.5 -9.5t-25 -24.5t-14 -34.5t-4.5 -38.5q0 -20 4.5 -39t14 -34.5t25 -25t37.5 -9.5q24 0 41 9.5t27.5 25t15 34.5t4.5 39z" />
    <glyph glyph-name="guilsinglleft" unicode="&#x2039;" horiz-adv-x="461" 
d="M451 543l-253 -189l252 -185l-75 -83l-371 267l369 265z" />
    <glyph glyph-name="guilsinglright" unicode="&#x203a;" horiz-adv-x="461" 
d="M4 161l253 189l-252 185l75 83l371 -267l-369 -265z" />
    <glyph glyph-name="fraction" unicode="&#x2044;" horiz-adv-x="656" 
d="M503 718h148l-498 -850h-149z" />
    <glyph glyph-name="Euro" unicode="&#x20ac;" horiz-adv-x="640" 
d="M627 93q-44 -42 -100.5 -67.5t-119.5 -25.5q-60 0 -111.5 19.5t-91 54t-67 83t-40.5 107.5h-73v184h71q10 62 37 112t67.5 85t93 54t114.5 19q63 0 119.5 -25.5t100.5 -67.5l-77 -81q-32 29 -67 45t-72 16q-33 0 -62.5 -12t-53 -33t-41 -49.5t-27.5 -62.5h231v-184h-229
q20 -68 67.5 -109.5t114.5 -41.5q38 0 73 16t65 45z" />
    <glyph glyph-name="trademark" unicode="&#x2122;" horiz-adv-x="1275" 
d="M1132 205v350l-174 -251h-65l-166 247v-346h-119v559h114l208 -303l207 303h114v-559h-119zM358 650v-445h-126v445h-208v114h547v-114h-213z" />
    <glyph glyph-name="minus" unicode="&#x2212;" horiz-adv-x="631" 
d="M24 298v115h583v-115h-583z" />
    </font>
</defs>
</svg>
